%TF.GenerationSoftware,KiCad,Pcbnew,7.0.1*%
%TF.CreationDate,2023-05-07T16:57:40-06:00*%
%TF.ProjectId,Phase_C_STM_Shield,50686173-655f-4435-9f53-544d5f536869,rev?*%
%TF.SameCoordinates,Original*%
%TF.FileFunction,Soldermask,Top*%
%TF.FilePolarity,Negative*%
%FSLAX46Y46*%
G04 Gerber Fmt 4.6, Leading zero omitted, Abs format (unit mm)*
G04 Created by KiCad (PCBNEW 7.0.1) date 2023-05-07 16:57:40*
%MOMM*%
%LPD*%
G01*
G04 APERTURE LIST*
%ADD10R,1.700000X1.700000*%
%ADD11O,1.700000X1.700000*%
%ADD12C,6.400000*%
%ADD13C,1.600000*%
%ADD14O,1.600000X1.600000*%
G04 APERTURE END LIST*
D10*
%TO.C,J2*%
X161452400Y-42036200D03*
D11*
X158912400Y-42036200D03*
X161452400Y-44576200D03*
X158912400Y-44576200D03*
X161452400Y-47116200D03*
X158912400Y-47116200D03*
X161452400Y-49656200D03*
X158912400Y-49656200D03*
X161452400Y-52196200D03*
X158912400Y-52196200D03*
X161452400Y-54736200D03*
X158912400Y-54736200D03*
X161452400Y-57276200D03*
X158912400Y-57276200D03*
X161452400Y-59816200D03*
X158912400Y-59816200D03*
X161452400Y-62356200D03*
X158912400Y-62356200D03*
X161452400Y-64896200D03*
X158912400Y-64896200D03*
X161452400Y-67436200D03*
X158912400Y-67436200D03*
X161452400Y-69976200D03*
X158912400Y-69976200D03*
X161452400Y-72516200D03*
X158912400Y-72516200D03*
X161452400Y-75056200D03*
X158912400Y-75056200D03*
X161452400Y-77596200D03*
X158912400Y-77596200D03*
X161452400Y-80136200D03*
X158912400Y-80136200D03*
X161452400Y-82676200D03*
X158912400Y-82676200D03*
X161452400Y-85216200D03*
X158912400Y-85216200D03*
X161452400Y-87756200D03*
X158912400Y-87756200D03*
X161452400Y-90296200D03*
X158912400Y-90296200D03*
X161452400Y-92836200D03*
X158912400Y-92836200D03*
X161452400Y-95376200D03*
X158912400Y-95376200D03*
X161452400Y-97916200D03*
X158912400Y-97916200D03*
X161452400Y-100456200D03*
X158912400Y-100456200D03*
X161452400Y-102996200D03*
X158912400Y-102996200D03*
%TD*%
D12*
%TO.C,H3*%
X185699400Y-101879400D03*
%TD*%
D10*
%TO.C,J6*%
X94970600Y-76454000D03*
D11*
X94970600Y-78994000D03*
X94970600Y-81534000D03*
X94970600Y-84074000D03*
X94970600Y-86614000D03*
X94970600Y-89154000D03*
X94970600Y-91694000D03*
X94970600Y-94234000D03*
%TD*%
D10*
%TO.C,J7*%
X172704600Y-61930600D03*
D11*
X172704600Y-64470600D03*
X175244600Y-61930600D03*
X175244600Y-64470600D03*
X177784600Y-61930600D03*
X177784600Y-64470600D03*
X180324600Y-61930600D03*
X180324600Y-64470600D03*
%TD*%
D10*
%TO.C,J1*%
X110662400Y-42016200D03*
D11*
X108122400Y-42016200D03*
X110662400Y-44556200D03*
X108122400Y-44556200D03*
X110662400Y-47096200D03*
X108122400Y-47096200D03*
X110662400Y-49636200D03*
X108122400Y-49636200D03*
X110662400Y-52176200D03*
X108122400Y-52176200D03*
X110662400Y-54716200D03*
X108122400Y-54716200D03*
X110662400Y-57256200D03*
X108122400Y-57256200D03*
X110662400Y-59796200D03*
X108122400Y-59796200D03*
X110662400Y-62336200D03*
X108122400Y-62336200D03*
X110662400Y-64876200D03*
X108122400Y-64876200D03*
X110662400Y-67416200D03*
X108122400Y-67416200D03*
X110662400Y-69956200D03*
X108122400Y-69956200D03*
X110662400Y-72496200D03*
X108122400Y-72496200D03*
X110662400Y-75036200D03*
X108122400Y-75036200D03*
X110662400Y-77576200D03*
X108122400Y-77576200D03*
X110662400Y-80116200D03*
X108122400Y-80116200D03*
X110662400Y-82656200D03*
X108122400Y-82656200D03*
X110662400Y-85196200D03*
X108122400Y-85196200D03*
X110662400Y-87736200D03*
X108122400Y-87736200D03*
X110662400Y-90276200D03*
X108122400Y-90276200D03*
X110662400Y-92816200D03*
X108122400Y-92816200D03*
X110662400Y-95356200D03*
X108122400Y-95356200D03*
X110662400Y-97896200D03*
X108122400Y-97896200D03*
X110662400Y-100436200D03*
X108122400Y-100436200D03*
X110662400Y-102976200D03*
X108122400Y-102976200D03*
%TD*%
D10*
%TO.C,J4*%
X46710600Y-81534000D03*
D11*
X46710600Y-84074000D03*
X46710600Y-86614000D03*
X46710600Y-89154000D03*
X46710600Y-91694000D03*
X46710600Y-94234000D03*
%TD*%
D10*
%TO.C,J3*%
X46710600Y-58674000D03*
D11*
X46710600Y-61214000D03*
X46710600Y-63754000D03*
X46710600Y-66294000D03*
X46710600Y-68834000D03*
X46710600Y-71374000D03*
X46710600Y-73914000D03*
X46710600Y-76454000D03*
%TD*%
D10*
%TO.C,J5*%
X94970600Y-49530000D03*
D11*
X94970600Y-52070000D03*
X94970600Y-54610000D03*
X94970600Y-57150000D03*
X94970600Y-59690000D03*
X94970600Y-62230000D03*
X94970600Y-64770000D03*
X94970600Y-67310000D03*
X94970600Y-69850000D03*
X94970600Y-72390000D03*
%TD*%
D13*
%TO.C,R1*%
X187919200Y-58247600D03*
D14*
X177759200Y-58247600D03*
%TD*%
D12*
%TO.C,H4*%
X48666400Y-101879400D03*
%TD*%
%TO.C,H1*%
X48666400Y-42849800D03*
%TD*%
D10*
%TO.C,J8*%
X173202600Y-81483200D03*
D11*
X173202600Y-84023200D03*
X173202600Y-86563200D03*
X173202600Y-89103200D03*
X173202600Y-91643200D03*
X173202600Y-94183200D03*
X173202600Y-96723200D03*
X173202600Y-99263200D03*
%TD*%
D12*
%TO.C,H2*%
X185699400Y-42824400D03*
%TD*%
M02*
