%TF.GenerationSoftware,KiCad,Pcbnew,7.0.1*%
%TF.CreationDate,2023-05-07T16:57:40-06:00*%
%TF.ProjectId,Phase_C_STM_Shield,50686173-655f-4435-9f53-544d5f536869,rev?*%
%TF.SameCoordinates,Original*%
%TF.FileFunction,Legend,Top*%
%TF.FilePolarity,Positive*%
%FSLAX46Y46*%
G04 Gerber Fmt 4.6, Leading zero omitted, Abs format (unit mm)*
G04 Created by KiCad (PCBNEW 7.0.1) date 2023-05-07 16:57:40*
%MOMM*%
%LPD*%
G01*
G04 APERTURE LIST*
%ADD10C,0.120000*%
%ADD11C,0.150000*%
%ADD12C,0.240000*%
G04 APERTURE END LIST*
D10*
X85742400Y-51958400D02*
X84742400Y-50708400D01*
X84742400Y-50708400D02*
X83742400Y-51958400D01*
X180654800Y-53152800D02*
X179904800Y-53152800D01*
X120134600Y-41970600D02*
X119384600Y-41970600D01*
X121384600Y-41970600D02*
X120384600Y-40720600D01*
X178968400Y-98362200D02*
X178968400Y-97612200D01*
X84492400Y-51958400D02*
X83742400Y-51958400D01*
X180654800Y-55402800D02*
X181154800Y-55402800D01*
X84492400Y-54208400D02*
X84992400Y-54208400D01*
X180654800Y-53152800D02*
X180654800Y-55402800D01*
X84492400Y-51958400D02*
X84492400Y-54208400D01*
X121384600Y-41970600D02*
X120634600Y-41970600D01*
X178968400Y-97112200D02*
X176718400Y-97112200D01*
X181154800Y-55402800D02*
X181154800Y-53152800D01*
X180218400Y-97362200D02*
X178968400Y-96362200D01*
X181904800Y-53152800D02*
X181154800Y-53152800D01*
X180904800Y-51902800D02*
X179904800Y-53152800D01*
X176718400Y-97112200D02*
X176718400Y-97612200D01*
X178968400Y-97112200D02*
X178968400Y-96362200D01*
X85742400Y-51958400D02*
X84992400Y-51958400D01*
X84992400Y-54208400D02*
X84992400Y-51958400D01*
X120134600Y-44220600D02*
X120634600Y-44220600D01*
X178968400Y-98362200D02*
X180218400Y-97362200D01*
X120634600Y-44220600D02*
X120634600Y-41970600D01*
X176718400Y-97612200D02*
X178968400Y-97612200D01*
X120134600Y-41970600D02*
X120134600Y-44220600D01*
X120384600Y-40720600D02*
X119384600Y-41970600D01*
X181904800Y-53152800D02*
X180904800Y-51902800D01*
D11*
X183078933Y-61783619D02*
X182745600Y-61307428D01*
X182507505Y-61783619D02*
X182507505Y-60783619D01*
X182507505Y-60783619D02*
X182888457Y-60783619D01*
X182888457Y-60783619D02*
X182983695Y-60831238D01*
X182983695Y-60831238D02*
X183031314Y-60878857D01*
X183031314Y-60878857D02*
X183078933Y-60974095D01*
X183078933Y-60974095D02*
X183078933Y-61116952D01*
X183078933Y-61116952D02*
X183031314Y-61212190D01*
X183031314Y-61212190D02*
X182983695Y-61259809D01*
X182983695Y-61259809D02*
X182888457Y-61307428D01*
X182888457Y-61307428D02*
X182507505Y-61307428D01*
X183412267Y-60783619D02*
X184078933Y-61783619D01*
X184078933Y-60783619D02*
X183412267Y-61783619D01*
X168252924Y-87003600D02*
X168395781Y-87051219D01*
X168395781Y-87051219D02*
X168633876Y-87051219D01*
X168633876Y-87051219D02*
X168729114Y-87003600D01*
X168729114Y-87003600D02*
X168776733Y-86955980D01*
X168776733Y-86955980D02*
X168824352Y-86860742D01*
X168824352Y-86860742D02*
X168824352Y-86765504D01*
X168824352Y-86765504D02*
X168776733Y-86670266D01*
X168776733Y-86670266D02*
X168729114Y-86622647D01*
X168729114Y-86622647D02*
X168633876Y-86575028D01*
X168633876Y-86575028D02*
X168443400Y-86527409D01*
X168443400Y-86527409D02*
X168348162Y-86479790D01*
X168348162Y-86479790D02*
X168300543Y-86432171D01*
X168300543Y-86432171D02*
X168252924Y-86336933D01*
X168252924Y-86336933D02*
X168252924Y-86241695D01*
X168252924Y-86241695D02*
X168300543Y-86146457D01*
X168300543Y-86146457D02*
X168348162Y-86098838D01*
X168348162Y-86098838D02*
X168443400Y-86051219D01*
X168443400Y-86051219D02*
X168681495Y-86051219D01*
X168681495Y-86051219D02*
X168824352Y-86098838D01*
X169824352Y-86955980D02*
X169776733Y-87003600D01*
X169776733Y-87003600D02*
X169633876Y-87051219D01*
X169633876Y-87051219D02*
X169538638Y-87051219D01*
X169538638Y-87051219D02*
X169395781Y-87003600D01*
X169395781Y-87003600D02*
X169300543Y-86908361D01*
X169300543Y-86908361D02*
X169252924Y-86813123D01*
X169252924Y-86813123D02*
X169205305Y-86622647D01*
X169205305Y-86622647D02*
X169205305Y-86479790D01*
X169205305Y-86479790D02*
X169252924Y-86289314D01*
X169252924Y-86289314D02*
X169300543Y-86194076D01*
X169300543Y-86194076D02*
X169395781Y-86098838D01*
X169395781Y-86098838D02*
X169538638Y-86051219D01*
X169538638Y-86051219D02*
X169633876Y-86051219D01*
X169633876Y-86051219D02*
X169776733Y-86098838D01*
X169776733Y-86098838D02*
X169824352Y-86146457D01*
X170729114Y-87051219D02*
X170252924Y-87051219D01*
X170252924Y-87051219D02*
X170252924Y-86051219D01*
X119825076Y-46575600D02*
X119967933Y-46623219D01*
X119967933Y-46623219D02*
X120206028Y-46623219D01*
X120206028Y-46623219D02*
X120301266Y-46575600D01*
X120301266Y-46575600D02*
X120348885Y-46527980D01*
X120348885Y-46527980D02*
X120396504Y-46432742D01*
X120396504Y-46432742D02*
X120396504Y-46337504D01*
X120396504Y-46337504D02*
X120348885Y-46242266D01*
X120348885Y-46242266D02*
X120301266Y-46194647D01*
X120301266Y-46194647D02*
X120206028Y-46147028D01*
X120206028Y-46147028D02*
X120015552Y-46099409D01*
X120015552Y-46099409D02*
X119920314Y-46051790D01*
X119920314Y-46051790D02*
X119872695Y-46004171D01*
X119872695Y-46004171D02*
X119825076Y-45908933D01*
X119825076Y-45908933D02*
X119825076Y-45813695D01*
X119825076Y-45813695D02*
X119872695Y-45718457D01*
X119872695Y-45718457D02*
X119920314Y-45670838D01*
X119920314Y-45670838D02*
X120015552Y-45623219D01*
X120015552Y-45623219D02*
X120253647Y-45623219D01*
X120253647Y-45623219D02*
X120396504Y-45670838D01*
X120682219Y-45623219D02*
X121253647Y-45623219D01*
X120967933Y-46623219D02*
X120967933Y-45623219D01*
X121586981Y-46623219D02*
X121586981Y-45623219D01*
X121586981Y-45623219D02*
X121920314Y-46337504D01*
X121920314Y-46337504D02*
X122253647Y-45623219D01*
X122253647Y-45623219D02*
X122253647Y-46623219D01*
X122634600Y-45623219D02*
X123253647Y-45623219D01*
X123253647Y-45623219D02*
X122920314Y-46004171D01*
X122920314Y-46004171D02*
X123063171Y-46004171D01*
X123063171Y-46004171D02*
X123158409Y-46051790D01*
X123158409Y-46051790D02*
X123206028Y-46099409D01*
X123206028Y-46099409D02*
X123253647Y-46194647D01*
X123253647Y-46194647D02*
X123253647Y-46432742D01*
X123253647Y-46432742D02*
X123206028Y-46527980D01*
X123206028Y-46527980D02*
X123158409Y-46575600D01*
X123158409Y-46575600D02*
X123063171Y-46623219D01*
X123063171Y-46623219D02*
X122777457Y-46623219D01*
X122777457Y-46623219D02*
X122682219Y-46575600D01*
X122682219Y-46575600D02*
X122634600Y-46527980D01*
X123634600Y-45718457D02*
X123682219Y-45670838D01*
X123682219Y-45670838D02*
X123777457Y-45623219D01*
X123777457Y-45623219D02*
X124015552Y-45623219D01*
X124015552Y-45623219D02*
X124110790Y-45670838D01*
X124110790Y-45670838D02*
X124158409Y-45718457D01*
X124158409Y-45718457D02*
X124206028Y-45813695D01*
X124206028Y-45813695D02*
X124206028Y-45908933D01*
X124206028Y-45908933D02*
X124158409Y-46051790D01*
X124158409Y-46051790D02*
X123586981Y-46623219D01*
X123586981Y-46623219D02*
X124206028Y-46623219D01*
X124967933Y-46099409D02*
X124634600Y-46099409D01*
X124634600Y-46623219D02*
X124634600Y-45623219D01*
X124634600Y-45623219D02*
X125110790Y-45623219D01*
X125920314Y-45956552D02*
X125920314Y-46623219D01*
X125682219Y-45575600D02*
X125444124Y-46289885D01*
X125444124Y-46289885D02*
X126063171Y-46289885D01*
X127539362Y-46099409D02*
X127682219Y-46147028D01*
X127682219Y-46147028D02*
X127729838Y-46194647D01*
X127729838Y-46194647D02*
X127777457Y-46289885D01*
X127777457Y-46289885D02*
X127777457Y-46432742D01*
X127777457Y-46432742D02*
X127729838Y-46527980D01*
X127729838Y-46527980D02*
X127682219Y-46575600D01*
X127682219Y-46575600D02*
X127586981Y-46623219D01*
X127586981Y-46623219D02*
X127206029Y-46623219D01*
X127206029Y-46623219D02*
X127206029Y-45623219D01*
X127206029Y-45623219D02*
X127539362Y-45623219D01*
X127539362Y-45623219D02*
X127634600Y-45670838D01*
X127634600Y-45670838D02*
X127682219Y-45718457D01*
X127682219Y-45718457D02*
X127729838Y-45813695D01*
X127729838Y-45813695D02*
X127729838Y-45908933D01*
X127729838Y-45908933D02*
X127682219Y-46004171D01*
X127682219Y-46004171D02*
X127634600Y-46051790D01*
X127634600Y-46051790D02*
X127539362Y-46099409D01*
X127539362Y-46099409D02*
X127206029Y-46099409D01*
X128348886Y-46623219D02*
X128253648Y-46575600D01*
X128253648Y-46575600D02*
X128206029Y-46527980D01*
X128206029Y-46527980D02*
X128158410Y-46432742D01*
X128158410Y-46432742D02*
X128158410Y-46147028D01*
X128158410Y-46147028D02*
X128206029Y-46051790D01*
X128206029Y-46051790D02*
X128253648Y-46004171D01*
X128253648Y-46004171D02*
X128348886Y-45956552D01*
X128348886Y-45956552D02*
X128491743Y-45956552D01*
X128491743Y-45956552D02*
X128586981Y-46004171D01*
X128586981Y-46004171D02*
X128634600Y-46051790D01*
X128634600Y-46051790D02*
X128682219Y-46147028D01*
X128682219Y-46147028D02*
X128682219Y-46432742D01*
X128682219Y-46432742D02*
X128634600Y-46527980D01*
X128634600Y-46527980D02*
X128586981Y-46575600D01*
X128586981Y-46575600D02*
X128491743Y-46623219D01*
X128491743Y-46623219D02*
X128348886Y-46623219D01*
X129539362Y-46623219D02*
X129539362Y-46099409D01*
X129539362Y-46099409D02*
X129491743Y-46004171D01*
X129491743Y-46004171D02*
X129396505Y-45956552D01*
X129396505Y-45956552D02*
X129206029Y-45956552D01*
X129206029Y-45956552D02*
X129110791Y-46004171D01*
X129539362Y-46575600D02*
X129444124Y-46623219D01*
X129444124Y-46623219D02*
X129206029Y-46623219D01*
X129206029Y-46623219D02*
X129110791Y-46575600D01*
X129110791Y-46575600D02*
X129063172Y-46480361D01*
X129063172Y-46480361D02*
X129063172Y-46385123D01*
X129063172Y-46385123D02*
X129110791Y-46289885D01*
X129110791Y-46289885D02*
X129206029Y-46242266D01*
X129206029Y-46242266D02*
X129444124Y-46242266D01*
X129444124Y-46242266D02*
X129539362Y-46194647D01*
X130015553Y-46623219D02*
X130015553Y-45956552D01*
X130015553Y-46147028D02*
X130063172Y-46051790D01*
X130063172Y-46051790D02*
X130110791Y-46004171D01*
X130110791Y-46004171D02*
X130206029Y-45956552D01*
X130206029Y-45956552D02*
X130301267Y-45956552D01*
X131063172Y-46623219D02*
X131063172Y-45623219D01*
X131063172Y-46575600D02*
X130967934Y-46623219D01*
X130967934Y-46623219D02*
X130777458Y-46623219D01*
X130777458Y-46623219D02*
X130682220Y-46575600D01*
X130682220Y-46575600D02*
X130634601Y-46527980D01*
X130634601Y-46527980D02*
X130586982Y-46432742D01*
X130586982Y-46432742D02*
X130586982Y-46147028D01*
X130586982Y-46147028D02*
X130634601Y-46051790D01*
X130634601Y-46051790D02*
X130682220Y-46004171D01*
X130682220Y-46004171D02*
X130777458Y-45956552D01*
X130777458Y-45956552D02*
X130967934Y-45956552D01*
X130967934Y-45956552D02*
X131063172Y-46004171D01*
X132301268Y-46623219D02*
X132301268Y-45623219D01*
X132301268Y-45623219D02*
X132539363Y-45623219D01*
X132539363Y-45623219D02*
X132682220Y-45670838D01*
X132682220Y-45670838D02*
X132777458Y-45766076D01*
X132777458Y-45766076D02*
X132825077Y-45861314D01*
X132825077Y-45861314D02*
X132872696Y-46051790D01*
X132872696Y-46051790D02*
X132872696Y-46194647D01*
X132872696Y-46194647D02*
X132825077Y-46385123D01*
X132825077Y-46385123D02*
X132777458Y-46480361D01*
X132777458Y-46480361D02*
X132682220Y-46575600D01*
X132682220Y-46575600D02*
X132539363Y-46623219D01*
X132539363Y-46623219D02*
X132301268Y-46623219D01*
X133301268Y-46623219D02*
X133301268Y-45956552D01*
X133301268Y-45623219D02*
X133253649Y-45670838D01*
X133253649Y-45670838D02*
X133301268Y-45718457D01*
X133301268Y-45718457D02*
X133348887Y-45670838D01*
X133348887Y-45670838D02*
X133301268Y-45623219D01*
X133301268Y-45623219D02*
X133301268Y-45718457D01*
X133777458Y-46623219D02*
X133777458Y-45956552D01*
X133777458Y-46147028D02*
X133825077Y-46051790D01*
X133825077Y-46051790D02*
X133872696Y-46004171D01*
X133872696Y-46004171D02*
X133967934Y-45956552D01*
X133967934Y-45956552D02*
X134063172Y-45956552D01*
X134777458Y-46575600D02*
X134682220Y-46623219D01*
X134682220Y-46623219D02*
X134491744Y-46623219D01*
X134491744Y-46623219D02*
X134396506Y-46575600D01*
X134396506Y-46575600D02*
X134348887Y-46480361D01*
X134348887Y-46480361D02*
X134348887Y-46099409D01*
X134348887Y-46099409D02*
X134396506Y-46004171D01*
X134396506Y-46004171D02*
X134491744Y-45956552D01*
X134491744Y-45956552D02*
X134682220Y-45956552D01*
X134682220Y-45956552D02*
X134777458Y-46004171D01*
X134777458Y-46004171D02*
X134825077Y-46099409D01*
X134825077Y-46099409D02*
X134825077Y-46194647D01*
X134825077Y-46194647D02*
X134348887Y-46289885D01*
X135682220Y-46575600D02*
X135586982Y-46623219D01*
X135586982Y-46623219D02*
X135396506Y-46623219D01*
X135396506Y-46623219D02*
X135301268Y-46575600D01*
X135301268Y-46575600D02*
X135253649Y-46527980D01*
X135253649Y-46527980D02*
X135206030Y-46432742D01*
X135206030Y-46432742D02*
X135206030Y-46147028D01*
X135206030Y-46147028D02*
X135253649Y-46051790D01*
X135253649Y-46051790D02*
X135301268Y-46004171D01*
X135301268Y-46004171D02*
X135396506Y-45956552D01*
X135396506Y-45956552D02*
X135586982Y-45956552D01*
X135586982Y-45956552D02*
X135682220Y-46004171D01*
X135967935Y-45956552D02*
X136348887Y-45956552D01*
X136110792Y-45623219D02*
X136110792Y-46480361D01*
X136110792Y-46480361D02*
X136158411Y-46575600D01*
X136158411Y-46575600D02*
X136253649Y-46623219D01*
X136253649Y-46623219D02*
X136348887Y-46623219D01*
X136682221Y-46623219D02*
X136682221Y-45956552D01*
X136682221Y-45623219D02*
X136634602Y-45670838D01*
X136634602Y-45670838D02*
X136682221Y-45718457D01*
X136682221Y-45718457D02*
X136729840Y-45670838D01*
X136729840Y-45670838D02*
X136682221Y-45623219D01*
X136682221Y-45623219D02*
X136682221Y-45718457D01*
X137301268Y-46623219D02*
X137206030Y-46575600D01*
X137206030Y-46575600D02*
X137158411Y-46527980D01*
X137158411Y-46527980D02*
X137110792Y-46432742D01*
X137110792Y-46432742D02*
X137110792Y-46147028D01*
X137110792Y-46147028D02*
X137158411Y-46051790D01*
X137158411Y-46051790D02*
X137206030Y-46004171D01*
X137206030Y-46004171D02*
X137301268Y-45956552D01*
X137301268Y-45956552D02*
X137444125Y-45956552D01*
X137444125Y-45956552D02*
X137539363Y-46004171D01*
X137539363Y-46004171D02*
X137586982Y-46051790D01*
X137586982Y-46051790D02*
X137634601Y-46147028D01*
X137634601Y-46147028D02*
X137634601Y-46432742D01*
X137634601Y-46432742D02*
X137586982Y-46527980D01*
X137586982Y-46527980D02*
X137539363Y-46575600D01*
X137539363Y-46575600D02*
X137444125Y-46623219D01*
X137444125Y-46623219D02*
X137301268Y-46623219D01*
X138063173Y-45956552D02*
X138063173Y-46623219D01*
X138063173Y-46051790D02*
X138110792Y-46004171D01*
X138110792Y-46004171D02*
X138206030Y-45956552D01*
X138206030Y-45956552D02*
X138348887Y-45956552D01*
X138348887Y-45956552D02*
X138444125Y-46004171D01*
X138444125Y-46004171D02*
X138491744Y-46099409D01*
X138491744Y-46099409D02*
X138491744Y-46623219D01*
X119872695Y-47243219D02*
X119872695Y-48052742D01*
X119872695Y-48052742D02*
X119920314Y-48147980D01*
X119920314Y-48147980D02*
X119967933Y-48195600D01*
X119967933Y-48195600D02*
X120063171Y-48243219D01*
X120063171Y-48243219D02*
X120253647Y-48243219D01*
X120253647Y-48243219D02*
X120348885Y-48195600D01*
X120348885Y-48195600D02*
X120396504Y-48147980D01*
X120396504Y-48147980D02*
X120444123Y-48052742D01*
X120444123Y-48052742D02*
X120444123Y-47243219D01*
X120872695Y-48195600D02*
X121015552Y-48243219D01*
X121015552Y-48243219D02*
X121253647Y-48243219D01*
X121253647Y-48243219D02*
X121348885Y-48195600D01*
X121348885Y-48195600D02*
X121396504Y-48147980D01*
X121396504Y-48147980D02*
X121444123Y-48052742D01*
X121444123Y-48052742D02*
X121444123Y-47957504D01*
X121444123Y-47957504D02*
X121396504Y-47862266D01*
X121396504Y-47862266D02*
X121348885Y-47814647D01*
X121348885Y-47814647D02*
X121253647Y-47767028D01*
X121253647Y-47767028D02*
X121063171Y-47719409D01*
X121063171Y-47719409D02*
X120967933Y-47671790D01*
X120967933Y-47671790D02*
X120920314Y-47624171D01*
X120920314Y-47624171D02*
X120872695Y-47528933D01*
X120872695Y-47528933D02*
X120872695Y-47433695D01*
X120872695Y-47433695D02*
X120920314Y-47338457D01*
X120920314Y-47338457D02*
X120967933Y-47290838D01*
X120967933Y-47290838D02*
X121063171Y-47243219D01*
X121063171Y-47243219D02*
X121301266Y-47243219D01*
X121301266Y-47243219D02*
X121444123Y-47290838D01*
X122206028Y-47719409D02*
X122348885Y-47767028D01*
X122348885Y-47767028D02*
X122396504Y-47814647D01*
X122396504Y-47814647D02*
X122444123Y-47909885D01*
X122444123Y-47909885D02*
X122444123Y-48052742D01*
X122444123Y-48052742D02*
X122396504Y-48147980D01*
X122396504Y-48147980D02*
X122348885Y-48195600D01*
X122348885Y-48195600D02*
X122253647Y-48243219D01*
X122253647Y-48243219D02*
X121872695Y-48243219D01*
X121872695Y-48243219D02*
X121872695Y-47243219D01*
X121872695Y-47243219D02*
X122206028Y-47243219D01*
X122206028Y-47243219D02*
X122301266Y-47290838D01*
X122301266Y-47290838D02*
X122348885Y-47338457D01*
X122348885Y-47338457D02*
X122396504Y-47433695D01*
X122396504Y-47433695D02*
X122396504Y-47528933D01*
X122396504Y-47528933D02*
X122348885Y-47624171D01*
X122348885Y-47624171D02*
X122301266Y-47671790D01*
X122301266Y-47671790D02*
X122206028Y-47719409D01*
X122206028Y-47719409D02*
X121872695Y-47719409D01*
X123634600Y-48243219D02*
X123634600Y-47243219D01*
X123634600Y-47243219D02*
X124015552Y-47243219D01*
X124015552Y-47243219D02*
X124110790Y-47290838D01*
X124110790Y-47290838D02*
X124158409Y-47338457D01*
X124158409Y-47338457D02*
X124206028Y-47433695D01*
X124206028Y-47433695D02*
X124206028Y-47576552D01*
X124206028Y-47576552D02*
X124158409Y-47671790D01*
X124158409Y-47671790D02*
X124110790Y-47719409D01*
X124110790Y-47719409D02*
X124015552Y-47767028D01*
X124015552Y-47767028D02*
X123634600Y-47767028D01*
X124634600Y-48243219D02*
X124634600Y-47576552D01*
X124634600Y-47767028D02*
X124682219Y-47671790D01*
X124682219Y-47671790D02*
X124729838Y-47624171D01*
X124729838Y-47624171D02*
X124825076Y-47576552D01*
X124825076Y-47576552D02*
X124920314Y-47576552D01*
X125396505Y-48243219D02*
X125301267Y-48195600D01*
X125301267Y-48195600D02*
X125253648Y-48147980D01*
X125253648Y-48147980D02*
X125206029Y-48052742D01*
X125206029Y-48052742D02*
X125206029Y-47767028D01*
X125206029Y-47767028D02*
X125253648Y-47671790D01*
X125253648Y-47671790D02*
X125301267Y-47624171D01*
X125301267Y-47624171D02*
X125396505Y-47576552D01*
X125396505Y-47576552D02*
X125539362Y-47576552D01*
X125539362Y-47576552D02*
X125634600Y-47624171D01*
X125634600Y-47624171D02*
X125682219Y-47671790D01*
X125682219Y-47671790D02*
X125729838Y-47767028D01*
X125729838Y-47767028D02*
X125729838Y-48052742D01*
X125729838Y-48052742D02*
X125682219Y-48147980D01*
X125682219Y-48147980D02*
X125634600Y-48195600D01*
X125634600Y-48195600D02*
X125539362Y-48243219D01*
X125539362Y-48243219D02*
X125396505Y-48243219D01*
X126586981Y-47576552D02*
X126586981Y-48386076D01*
X126586981Y-48386076D02*
X126539362Y-48481314D01*
X126539362Y-48481314D02*
X126491743Y-48528933D01*
X126491743Y-48528933D02*
X126396505Y-48576552D01*
X126396505Y-48576552D02*
X126253648Y-48576552D01*
X126253648Y-48576552D02*
X126158410Y-48528933D01*
X126586981Y-48195600D02*
X126491743Y-48243219D01*
X126491743Y-48243219D02*
X126301267Y-48243219D01*
X126301267Y-48243219D02*
X126206029Y-48195600D01*
X126206029Y-48195600D02*
X126158410Y-48147980D01*
X126158410Y-48147980D02*
X126110791Y-48052742D01*
X126110791Y-48052742D02*
X126110791Y-47767028D01*
X126110791Y-47767028D02*
X126158410Y-47671790D01*
X126158410Y-47671790D02*
X126206029Y-47624171D01*
X126206029Y-47624171D02*
X126301267Y-47576552D01*
X126301267Y-47576552D02*
X126491743Y-47576552D01*
X126491743Y-47576552D02*
X126586981Y-47624171D01*
X127063172Y-48243219D02*
X127063172Y-47576552D01*
X127063172Y-47767028D02*
X127110791Y-47671790D01*
X127110791Y-47671790D02*
X127158410Y-47624171D01*
X127158410Y-47624171D02*
X127253648Y-47576552D01*
X127253648Y-47576552D02*
X127348886Y-47576552D01*
X128110791Y-48243219D02*
X128110791Y-47719409D01*
X128110791Y-47719409D02*
X128063172Y-47624171D01*
X128063172Y-47624171D02*
X127967934Y-47576552D01*
X127967934Y-47576552D02*
X127777458Y-47576552D01*
X127777458Y-47576552D02*
X127682220Y-47624171D01*
X128110791Y-48195600D02*
X128015553Y-48243219D01*
X128015553Y-48243219D02*
X127777458Y-48243219D01*
X127777458Y-48243219D02*
X127682220Y-48195600D01*
X127682220Y-48195600D02*
X127634601Y-48100361D01*
X127634601Y-48100361D02*
X127634601Y-48005123D01*
X127634601Y-48005123D02*
X127682220Y-47909885D01*
X127682220Y-47909885D02*
X127777458Y-47862266D01*
X127777458Y-47862266D02*
X128015553Y-47862266D01*
X128015553Y-47862266D02*
X128110791Y-47814647D01*
X128586982Y-48243219D02*
X128586982Y-47576552D01*
X128586982Y-47671790D02*
X128634601Y-47624171D01*
X128634601Y-47624171D02*
X128729839Y-47576552D01*
X128729839Y-47576552D02*
X128872696Y-47576552D01*
X128872696Y-47576552D02*
X128967934Y-47624171D01*
X128967934Y-47624171D02*
X129015553Y-47719409D01*
X129015553Y-47719409D02*
X129015553Y-48243219D01*
X129015553Y-47719409D02*
X129063172Y-47624171D01*
X129063172Y-47624171D02*
X129158410Y-47576552D01*
X129158410Y-47576552D02*
X129301267Y-47576552D01*
X129301267Y-47576552D02*
X129396506Y-47624171D01*
X129396506Y-47624171D02*
X129444125Y-47719409D01*
X129444125Y-47719409D02*
X129444125Y-48243219D01*
X129920315Y-48243219D02*
X129920315Y-47576552D01*
X129920315Y-47671790D02*
X129967934Y-47624171D01*
X129967934Y-47624171D02*
X130063172Y-47576552D01*
X130063172Y-47576552D02*
X130206029Y-47576552D01*
X130206029Y-47576552D02*
X130301267Y-47624171D01*
X130301267Y-47624171D02*
X130348886Y-47719409D01*
X130348886Y-47719409D02*
X130348886Y-48243219D01*
X130348886Y-47719409D02*
X130396505Y-47624171D01*
X130396505Y-47624171D02*
X130491743Y-47576552D01*
X130491743Y-47576552D02*
X130634600Y-47576552D01*
X130634600Y-47576552D02*
X130729839Y-47624171D01*
X130729839Y-47624171D02*
X130777458Y-47719409D01*
X130777458Y-47719409D02*
X130777458Y-48243219D01*
X131634600Y-48195600D02*
X131539362Y-48243219D01*
X131539362Y-48243219D02*
X131348886Y-48243219D01*
X131348886Y-48243219D02*
X131253648Y-48195600D01*
X131253648Y-48195600D02*
X131206029Y-48100361D01*
X131206029Y-48100361D02*
X131206029Y-47719409D01*
X131206029Y-47719409D02*
X131253648Y-47624171D01*
X131253648Y-47624171D02*
X131348886Y-47576552D01*
X131348886Y-47576552D02*
X131539362Y-47576552D01*
X131539362Y-47576552D02*
X131634600Y-47624171D01*
X131634600Y-47624171D02*
X131682219Y-47719409D01*
X131682219Y-47719409D02*
X131682219Y-47814647D01*
X131682219Y-47814647D02*
X131206029Y-47909885D01*
X132110791Y-48243219D02*
X132110791Y-47576552D01*
X132110791Y-47767028D02*
X132158410Y-47671790D01*
X132158410Y-47671790D02*
X132206029Y-47624171D01*
X132206029Y-47624171D02*
X132301267Y-47576552D01*
X132301267Y-47576552D02*
X132396505Y-47576552D01*
X133491744Y-48243219D02*
X133491744Y-47243219D01*
X133491744Y-47243219D02*
X133872696Y-47243219D01*
X133872696Y-47243219D02*
X133967934Y-47290838D01*
X133967934Y-47290838D02*
X134015553Y-47338457D01*
X134015553Y-47338457D02*
X134063172Y-47433695D01*
X134063172Y-47433695D02*
X134063172Y-47576552D01*
X134063172Y-47576552D02*
X134015553Y-47671790D01*
X134015553Y-47671790D02*
X133967934Y-47719409D01*
X133967934Y-47719409D02*
X133872696Y-47767028D01*
X133872696Y-47767028D02*
X133491744Y-47767028D01*
X134634601Y-48243219D02*
X134539363Y-48195600D01*
X134539363Y-48195600D02*
X134491744Y-48147980D01*
X134491744Y-48147980D02*
X134444125Y-48052742D01*
X134444125Y-48052742D02*
X134444125Y-47767028D01*
X134444125Y-47767028D02*
X134491744Y-47671790D01*
X134491744Y-47671790D02*
X134539363Y-47624171D01*
X134539363Y-47624171D02*
X134634601Y-47576552D01*
X134634601Y-47576552D02*
X134777458Y-47576552D01*
X134777458Y-47576552D02*
X134872696Y-47624171D01*
X134872696Y-47624171D02*
X134920315Y-47671790D01*
X134920315Y-47671790D02*
X134967934Y-47767028D01*
X134967934Y-47767028D02*
X134967934Y-48052742D01*
X134967934Y-48052742D02*
X134920315Y-48147980D01*
X134920315Y-48147980D02*
X134872696Y-48195600D01*
X134872696Y-48195600D02*
X134777458Y-48243219D01*
X134777458Y-48243219D02*
X134634601Y-48243219D01*
X135396506Y-48243219D02*
X135396506Y-47576552D01*
X135396506Y-47767028D02*
X135444125Y-47671790D01*
X135444125Y-47671790D02*
X135491744Y-47624171D01*
X135491744Y-47624171D02*
X135586982Y-47576552D01*
X135586982Y-47576552D02*
X135682220Y-47576552D01*
X135872697Y-47576552D02*
X136253649Y-47576552D01*
X136015554Y-47243219D02*
X136015554Y-48100361D01*
X136015554Y-48100361D02*
X136063173Y-48195600D01*
X136063173Y-48195600D02*
X136158411Y-48243219D01*
X136158411Y-48243219D02*
X136253649Y-48243219D01*
D12*
X171712314Y-54619971D02*
X172112314Y-54619971D01*
X172283742Y-55248542D02*
X171712314Y-55248542D01*
X171712314Y-55248542D02*
X171712314Y-54048542D01*
X171712314Y-54048542D02*
X172283742Y-54048542D01*
X172740885Y-55191400D02*
X172912314Y-55248542D01*
X172912314Y-55248542D02*
X173198028Y-55248542D01*
X173198028Y-55248542D02*
X173312314Y-55191400D01*
X173312314Y-55191400D02*
X173369456Y-55134257D01*
X173369456Y-55134257D02*
X173426599Y-55019971D01*
X173426599Y-55019971D02*
X173426599Y-54905685D01*
X173426599Y-54905685D02*
X173369456Y-54791400D01*
X173369456Y-54791400D02*
X173312314Y-54734257D01*
X173312314Y-54734257D02*
X173198028Y-54677114D01*
X173198028Y-54677114D02*
X172969456Y-54619971D01*
X172969456Y-54619971D02*
X172855171Y-54562828D01*
X172855171Y-54562828D02*
X172798028Y-54505685D01*
X172798028Y-54505685D02*
X172740885Y-54391400D01*
X172740885Y-54391400D02*
X172740885Y-54277114D01*
X172740885Y-54277114D02*
X172798028Y-54162828D01*
X172798028Y-54162828D02*
X172855171Y-54105685D01*
X172855171Y-54105685D02*
X172969456Y-54048542D01*
X172969456Y-54048542D02*
X173255171Y-54048542D01*
X173255171Y-54048542D02*
X173426599Y-54105685D01*
X173940885Y-55248542D02*
X173940885Y-54048542D01*
X173940885Y-54048542D02*
X174398028Y-54048542D01*
X174398028Y-54048542D02*
X174512313Y-54105685D01*
X174512313Y-54105685D02*
X174569456Y-54162828D01*
X174569456Y-54162828D02*
X174626599Y-54277114D01*
X174626599Y-54277114D02*
X174626599Y-54448542D01*
X174626599Y-54448542D02*
X174569456Y-54562828D01*
X174569456Y-54562828D02*
X174512313Y-54619971D01*
X174512313Y-54619971D02*
X174398028Y-54677114D01*
X174398028Y-54677114D02*
X173940885Y-54677114D01*
X175312313Y-54562828D02*
X175198028Y-54505685D01*
X175198028Y-54505685D02*
X175140885Y-54448542D01*
X175140885Y-54448542D02*
X175083742Y-54334257D01*
X175083742Y-54334257D02*
X175083742Y-54277114D01*
X175083742Y-54277114D02*
X175140885Y-54162828D01*
X175140885Y-54162828D02*
X175198028Y-54105685D01*
X175198028Y-54105685D02*
X175312313Y-54048542D01*
X175312313Y-54048542D02*
X175540885Y-54048542D01*
X175540885Y-54048542D02*
X175655171Y-54105685D01*
X175655171Y-54105685D02*
X175712313Y-54162828D01*
X175712313Y-54162828D02*
X175769456Y-54277114D01*
X175769456Y-54277114D02*
X175769456Y-54334257D01*
X175769456Y-54334257D02*
X175712313Y-54448542D01*
X175712313Y-54448542D02*
X175655171Y-54505685D01*
X175655171Y-54505685D02*
X175540885Y-54562828D01*
X175540885Y-54562828D02*
X175312313Y-54562828D01*
X175312313Y-54562828D02*
X175198028Y-54619971D01*
X175198028Y-54619971D02*
X175140885Y-54677114D01*
X175140885Y-54677114D02*
X175083742Y-54791400D01*
X175083742Y-54791400D02*
X175083742Y-55019971D01*
X175083742Y-55019971D02*
X175140885Y-55134257D01*
X175140885Y-55134257D02*
X175198028Y-55191400D01*
X175198028Y-55191400D02*
X175312313Y-55248542D01*
X175312313Y-55248542D02*
X175540885Y-55248542D01*
X175540885Y-55248542D02*
X175655171Y-55191400D01*
X175655171Y-55191400D02*
X175712313Y-55134257D01*
X175712313Y-55134257D02*
X175769456Y-55019971D01*
X175769456Y-55019971D02*
X175769456Y-54791400D01*
X175769456Y-54791400D02*
X175712313Y-54677114D01*
X175712313Y-54677114D02*
X175655171Y-54619971D01*
X175655171Y-54619971D02*
X175540885Y-54562828D01*
X176226599Y-54162828D02*
X176283742Y-54105685D01*
X176283742Y-54105685D02*
X176398028Y-54048542D01*
X176398028Y-54048542D02*
X176683742Y-54048542D01*
X176683742Y-54048542D02*
X176798028Y-54105685D01*
X176798028Y-54105685D02*
X176855170Y-54162828D01*
X176855170Y-54162828D02*
X176912313Y-54277114D01*
X176912313Y-54277114D02*
X176912313Y-54391400D01*
X176912313Y-54391400D02*
X176855170Y-54562828D01*
X176855170Y-54562828D02*
X176169456Y-55248542D01*
X176169456Y-55248542D02*
X176912313Y-55248542D01*
X177940885Y-54048542D02*
X177712313Y-54048542D01*
X177712313Y-54048542D02*
X177598027Y-54105685D01*
X177598027Y-54105685D02*
X177540885Y-54162828D01*
X177540885Y-54162828D02*
X177426599Y-54334257D01*
X177426599Y-54334257D02*
X177369456Y-54562828D01*
X177369456Y-54562828D02*
X177369456Y-55019971D01*
X177369456Y-55019971D02*
X177426599Y-55134257D01*
X177426599Y-55134257D02*
X177483742Y-55191400D01*
X177483742Y-55191400D02*
X177598027Y-55248542D01*
X177598027Y-55248542D02*
X177826599Y-55248542D01*
X177826599Y-55248542D02*
X177940885Y-55191400D01*
X177940885Y-55191400D02*
X177998027Y-55134257D01*
X177998027Y-55134257D02*
X178055170Y-55019971D01*
X178055170Y-55019971D02*
X178055170Y-54734257D01*
X178055170Y-54734257D02*
X177998027Y-54619971D01*
X177998027Y-54619971D02*
X177940885Y-54562828D01*
X177940885Y-54562828D02*
X177826599Y-54505685D01*
X177826599Y-54505685D02*
X177598027Y-54505685D01*
X177598027Y-54505685D02*
X177483742Y-54562828D01*
X177483742Y-54562828D02*
X177426599Y-54619971D01*
X177426599Y-54619971D02*
X177369456Y-54734257D01*
X179083742Y-54048542D02*
X178855170Y-54048542D01*
X178855170Y-54048542D02*
X178740884Y-54105685D01*
X178740884Y-54105685D02*
X178683742Y-54162828D01*
X178683742Y-54162828D02*
X178569456Y-54334257D01*
X178569456Y-54334257D02*
X178512313Y-54562828D01*
X178512313Y-54562828D02*
X178512313Y-55019971D01*
X178512313Y-55019971D02*
X178569456Y-55134257D01*
X178569456Y-55134257D02*
X178626599Y-55191400D01*
X178626599Y-55191400D02*
X178740884Y-55248542D01*
X178740884Y-55248542D02*
X178969456Y-55248542D01*
X178969456Y-55248542D02*
X179083742Y-55191400D01*
X179083742Y-55191400D02*
X179140884Y-55134257D01*
X179140884Y-55134257D02*
X179198027Y-55019971D01*
X179198027Y-55019971D02*
X179198027Y-54734257D01*
X179198027Y-54734257D02*
X179140884Y-54619971D01*
X179140884Y-54619971D02*
X179083742Y-54562828D01*
X179083742Y-54562828D02*
X178969456Y-54505685D01*
X178969456Y-54505685D02*
X178740884Y-54505685D01*
X178740884Y-54505685D02*
X178626599Y-54562828D01*
X178626599Y-54562828D02*
X178569456Y-54619971D01*
X178569456Y-54619971D02*
X178512313Y-54734257D01*
X176510914Y-95103142D02*
X176510914Y-93903142D01*
X176510914Y-93903142D02*
X176910914Y-94760285D01*
X176910914Y-94760285D02*
X177310914Y-93903142D01*
X177310914Y-93903142D02*
X177310914Y-95103142D01*
X177882343Y-95103142D02*
X177882343Y-93903142D01*
X177882343Y-93903142D02*
X178339486Y-93903142D01*
X178339486Y-93903142D02*
X178453771Y-93960285D01*
X178453771Y-93960285D02*
X178510914Y-94017428D01*
X178510914Y-94017428D02*
X178568057Y-94131714D01*
X178568057Y-94131714D02*
X178568057Y-94303142D01*
X178568057Y-94303142D02*
X178510914Y-94417428D01*
X178510914Y-94417428D02*
X178453771Y-94474571D01*
X178453771Y-94474571D02*
X178339486Y-94531714D01*
X178339486Y-94531714D02*
X177882343Y-94531714D01*
X179082343Y-93903142D02*
X179082343Y-94874571D01*
X179082343Y-94874571D02*
X179139486Y-94988857D01*
X179139486Y-94988857D02*
X179196629Y-95046000D01*
X179196629Y-95046000D02*
X179310914Y-95103142D01*
X179310914Y-95103142D02*
X179539486Y-95103142D01*
X179539486Y-95103142D02*
X179653771Y-95046000D01*
X179653771Y-95046000D02*
X179710914Y-94988857D01*
X179710914Y-94988857D02*
X179768057Y-94874571D01*
X179768057Y-94874571D02*
X179768057Y-93903142D01*
X180853772Y-93903142D02*
X180625200Y-93903142D01*
X180625200Y-93903142D02*
X180510914Y-93960285D01*
X180510914Y-93960285D02*
X180453772Y-94017428D01*
X180453772Y-94017428D02*
X180339486Y-94188857D01*
X180339486Y-94188857D02*
X180282343Y-94417428D01*
X180282343Y-94417428D02*
X180282343Y-94874571D01*
X180282343Y-94874571D02*
X180339486Y-94988857D01*
X180339486Y-94988857D02*
X180396629Y-95046000D01*
X180396629Y-95046000D02*
X180510914Y-95103142D01*
X180510914Y-95103142D02*
X180739486Y-95103142D01*
X180739486Y-95103142D02*
X180853772Y-95046000D01*
X180853772Y-95046000D02*
X180910914Y-94988857D01*
X180910914Y-94988857D02*
X180968057Y-94874571D01*
X180968057Y-94874571D02*
X180968057Y-94588857D01*
X180968057Y-94588857D02*
X180910914Y-94474571D01*
X180910914Y-94474571D02*
X180853772Y-94417428D01*
X180853772Y-94417428D02*
X180739486Y-94360285D01*
X180739486Y-94360285D02*
X180510914Y-94360285D01*
X180510914Y-94360285D02*
X180396629Y-94417428D01*
X180396629Y-94417428D02*
X180339486Y-94474571D01*
X180339486Y-94474571D02*
X180282343Y-94588857D01*
X181710914Y-93903142D02*
X181825200Y-93903142D01*
X181825200Y-93903142D02*
X181939486Y-93960285D01*
X181939486Y-93960285D02*
X181996629Y-94017428D01*
X181996629Y-94017428D02*
X182053771Y-94131714D01*
X182053771Y-94131714D02*
X182110914Y-94360285D01*
X182110914Y-94360285D02*
X182110914Y-94646000D01*
X182110914Y-94646000D02*
X182053771Y-94874571D01*
X182053771Y-94874571D02*
X181996629Y-94988857D01*
X181996629Y-94988857D02*
X181939486Y-95046000D01*
X181939486Y-95046000D02*
X181825200Y-95103142D01*
X181825200Y-95103142D02*
X181710914Y-95103142D01*
X181710914Y-95103142D02*
X181596629Y-95046000D01*
X181596629Y-95046000D02*
X181539486Y-94988857D01*
X181539486Y-94988857D02*
X181482343Y-94874571D01*
X181482343Y-94874571D02*
X181425200Y-94646000D01*
X181425200Y-94646000D02*
X181425200Y-94360285D01*
X181425200Y-94360285D02*
X181482343Y-94131714D01*
X181482343Y-94131714D02*
X181539486Y-94017428D01*
X181539486Y-94017428D02*
X181596629Y-93960285D01*
X181596629Y-93960285D02*
X181710914Y-93903142D01*
X183196628Y-93903142D02*
X182625200Y-93903142D01*
X182625200Y-93903142D02*
X182568057Y-94474571D01*
X182568057Y-94474571D02*
X182625200Y-94417428D01*
X182625200Y-94417428D02*
X182739486Y-94360285D01*
X182739486Y-94360285D02*
X183025200Y-94360285D01*
X183025200Y-94360285D02*
X183139486Y-94417428D01*
X183139486Y-94417428D02*
X183196628Y-94474571D01*
X183196628Y-94474571D02*
X183253771Y-94588857D01*
X183253771Y-94588857D02*
X183253771Y-94874571D01*
X183253771Y-94874571D02*
X183196628Y-94988857D01*
X183196628Y-94988857D02*
X183139486Y-95046000D01*
X183139486Y-95046000D02*
X183025200Y-95103142D01*
X183025200Y-95103142D02*
X182739486Y-95103142D01*
X182739486Y-95103142D02*
X182625200Y-95046000D01*
X182625200Y-95046000D02*
X182568057Y-94988857D01*
X183996628Y-93903142D02*
X184110914Y-93903142D01*
X184110914Y-93903142D02*
X184225200Y-93960285D01*
X184225200Y-93960285D02*
X184282343Y-94017428D01*
X184282343Y-94017428D02*
X184339485Y-94131714D01*
X184339485Y-94131714D02*
X184396628Y-94360285D01*
X184396628Y-94360285D02*
X184396628Y-94646000D01*
X184396628Y-94646000D02*
X184339485Y-94874571D01*
X184339485Y-94874571D02*
X184282343Y-94988857D01*
X184282343Y-94988857D02*
X184225200Y-95046000D01*
X184225200Y-95046000D02*
X184110914Y-95103142D01*
X184110914Y-95103142D02*
X183996628Y-95103142D01*
X183996628Y-95103142D02*
X183882343Y-95046000D01*
X183882343Y-95046000D02*
X183825200Y-94988857D01*
X183825200Y-94988857D02*
X183768057Y-94874571D01*
X183768057Y-94874571D02*
X183710914Y-94646000D01*
X183710914Y-94646000D02*
X183710914Y-94360285D01*
X183710914Y-94360285D02*
X183768057Y-94131714D01*
X183768057Y-94131714D02*
X183825200Y-94017428D01*
X183825200Y-94017428D02*
X183882343Y-93960285D01*
X183882343Y-93960285D02*
X183996628Y-93903142D01*
D11*
X171815695Y-58799238D02*
X171720457Y-58751619D01*
X171720457Y-58751619D02*
X171577600Y-58751619D01*
X171577600Y-58751619D02*
X171434743Y-58799238D01*
X171434743Y-58799238D02*
X171339505Y-58894476D01*
X171339505Y-58894476D02*
X171291886Y-58989714D01*
X171291886Y-58989714D02*
X171244267Y-59180190D01*
X171244267Y-59180190D02*
X171244267Y-59323047D01*
X171244267Y-59323047D02*
X171291886Y-59513523D01*
X171291886Y-59513523D02*
X171339505Y-59608761D01*
X171339505Y-59608761D02*
X171434743Y-59704000D01*
X171434743Y-59704000D02*
X171577600Y-59751619D01*
X171577600Y-59751619D02*
X171672838Y-59751619D01*
X171672838Y-59751619D02*
X171815695Y-59704000D01*
X171815695Y-59704000D02*
X171863314Y-59656380D01*
X171863314Y-59656380D02*
X171863314Y-59323047D01*
X171863314Y-59323047D02*
X171672838Y-59323047D01*
X172291886Y-59751619D02*
X172291886Y-58751619D01*
X172291886Y-58751619D02*
X172863314Y-59751619D01*
X172863314Y-59751619D02*
X172863314Y-58751619D01*
X173339505Y-59751619D02*
X173339505Y-58751619D01*
X173339505Y-58751619D02*
X173577600Y-58751619D01*
X173577600Y-58751619D02*
X173720457Y-58799238D01*
X173720457Y-58799238D02*
X173815695Y-58894476D01*
X173815695Y-58894476D02*
X173863314Y-58989714D01*
X173863314Y-58989714D02*
X173910933Y-59180190D01*
X173910933Y-59180190D02*
X173910933Y-59323047D01*
X173910933Y-59323047D02*
X173863314Y-59513523D01*
X173863314Y-59513523D02*
X173815695Y-59608761D01*
X173815695Y-59608761D02*
X173720457Y-59704000D01*
X173720457Y-59704000D02*
X173577600Y-59751619D01*
X173577600Y-59751619D02*
X173339505Y-59751619D01*
X168630695Y-83609638D02*
X168535457Y-83562019D01*
X168535457Y-83562019D02*
X168392600Y-83562019D01*
X168392600Y-83562019D02*
X168249743Y-83609638D01*
X168249743Y-83609638D02*
X168154505Y-83704876D01*
X168154505Y-83704876D02*
X168106886Y-83800114D01*
X168106886Y-83800114D02*
X168059267Y-83990590D01*
X168059267Y-83990590D02*
X168059267Y-84133447D01*
X168059267Y-84133447D02*
X168106886Y-84323923D01*
X168106886Y-84323923D02*
X168154505Y-84419161D01*
X168154505Y-84419161D02*
X168249743Y-84514400D01*
X168249743Y-84514400D02*
X168392600Y-84562019D01*
X168392600Y-84562019D02*
X168487838Y-84562019D01*
X168487838Y-84562019D02*
X168630695Y-84514400D01*
X168630695Y-84514400D02*
X168678314Y-84466780D01*
X168678314Y-84466780D02*
X168678314Y-84133447D01*
X168678314Y-84133447D02*
X168487838Y-84133447D01*
X169106886Y-84562019D02*
X169106886Y-83562019D01*
X169106886Y-83562019D02*
X169678314Y-84562019D01*
X169678314Y-84562019D02*
X169678314Y-83562019D01*
X170154505Y-84562019D02*
X170154505Y-83562019D01*
X170154505Y-83562019D02*
X170392600Y-83562019D01*
X170392600Y-83562019D02*
X170535457Y-83609638D01*
X170535457Y-83609638D02*
X170630695Y-83704876D01*
X170630695Y-83704876D02*
X170678314Y-83800114D01*
X170678314Y-83800114D02*
X170725933Y-83990590D01*
X170725933Y-83990590D02*
X170725933Y-84133447D01*
X170725933Y-84133447D02*
X170678314Y-84323923D01*
X170678314Y-84323923D02*
X170630695Y-84419161D01*
X170630695Y-84419161D02*
X170535457Y-84514400D01*
X170535457Y-84514400D02*
X170392600Y-84562019D01*
X170392600Y-84562019D02*
X170154505Y-84562019D01*
X168203714Y-89619800D02*
X168346571Y-89667419D01*
X168346571Y-89667419D02*
X168584666Y-89667419D01*
X168584666Y-89667419D02*
X168679904Y-89619800D01*
X168679904Y-89619800D02*
X168727523Y-89572180D01*
X168727523Y-89572180D02*
X168775142Y-89476942D01*
X168775142Y-89476942D02*
X168775142Y-89381704D01*
X168775142Y-89381704D02*
X168727523Y-89286466D01*
X168727523Y-89286466D02*
X168679904Y-89238847D01*
X168679904Y-89238847D02*
X168584666Y-89191228D01*
X168584666Y-89191228D02*
X168394190Y-89143609D01*
X168394190Y-89143609D02*
X168298952Y-89095990D01*
X168298952Y-89095990D02*
X168251333Y-89048371D01*
X168251333Y-89048371D02*
X168203714Y-88953133D01*
X168203714Y-88953133D02*
X168203714Y-88857895D01*
X168203714Y-88857895D02*
X168251333Y-88762657D01*
X168251333Y-88762657D02*
X168298952Y-88715038D01*
X168298952Y-88715038D02*
X168394190Y-88667419D01*
X168394190Y-88667419D02*
X168632285Y-88667419D01*
X168632285Y-88667419D02*
X168775142Y-88715038D01*
X169203714Y-89667419D02*
X169203714Y-88667419D01*
X169203714Y-88667419D02*
X169441809Y-88667419D01*
X169441809Y-88667419D02*
X169584666Y-88715038D01*
X169584666Y-88715038D02*
X169679904Y-88810276D01*
X169679904Y-88810276D02*
X169727523Y-88905514D01*
X169727523Y-88905514D02*
X169775142Y-89095990D01*
X169775142Y-89095990D02*
X169775142Y-89238847D01*
X169775142Y-89238847D02*
X169727523Y-89429323D01*
X169727523Y-89429323D02*
X169679904Y-89524561D01*
X169679904Y-89524561D02*
X169584666Y-89619800D01*
X169584666Y-89619800D02*
X169441809Y-89667419D01*
X169441809Y-89667419D02*
X169203714Y-89667419D01*
X170156095Y-89381704D02*
X170632285Y-89381704D01*
X170060857Y-89667419D02*
X170394190Y-88667419D01*
X170394190Y-88667419D02*
X170727523Y-89667419D01*
X168767238Y-99827419D02*
X168767238Y-98827419D01*
X169243428Y-99827419D02*
X169243428Y-98827419D01*
X169243428Y-98827419D02*
X169814856Y-99827419D01*
X169814856Y-99827419D02*
X169814856Y-98827419D01*
X170148190Y-98827419D02*
X170719618Y-98827419D01*
X170433904Y-99827419D02*
X170433904Y-98827419D01*
X81601980Y-53476495D02*
X82601980Y-53476495D01*
X81601980Y-54047923D02*
X82173409Y-53619352D01*
X82601980Y-54047923D02*
X82030552Y-53476495D01*
X81601980Y-54476495D02*
X82268647Y-54476495D01*
X82601980Y-54476495D02*
X82554361Y-54428876D01*
X82554361Y-54428876D02*
X82506742Y-54476495D01*
X82506742Y-54476495D02*
X82554361Y-54524114D01*
X82554361Y-54524114D02*
X82601980Y-54476495D01*
X82601980Y-54476495D02*
X82506742Y-54476495D01*
X82268647Y-54809828D02*
X82268647Y-55190780D01*
X82601980Y-54952685D02*
X81744838Y-54952685D01*
X81744838Y-54952685D02*
X81649600Y-55000304D01*
X81649600Y-55000304D02*
X81601980Y-55095542D01*
X81601980Y-55095542D02*
X81601980Y-55190780D01*
X81649600Y-55952685D02*
X81601980Y-55857447D01*
X81601980Y-55857447D02*
X81601980Y-55666971D01*
X81601980Y-55666971D02*
X81649600Y-55571733D01*
X81649600Y-55571733D02*
X81697219Y-55524114D01*
X81697219Y-55524114D02*
X81792457Y-55476495D01*
X81792457Y-55476495D02*
X82078171Y-55476495D01*
X82078171Y-55476495D02*
X82173409Y-55524114D01*
X82173409Y-55524114D02*
X82221028Y-55571733D01*
X82221028Y-55571733D02*
X82268647Y-55666971D01*
X82268647Y-55666971D02*
X82268647Y-55857447D01*
X82268647Y-55857447D02*
X82221028Y-55952685D01*
X81601980Y-56381257D02*
X82601980Y-56381257D01*
X81601980Y-56809828D02*
X82125790Y-56809828D01*
X82125790Y-56809828D02*
X82221028Y-56762209D01*
X82221028Y-56762209D02*
X82268647Y-56666971D01*
X82268647Y-56666971D02*
X82268647Y-56524114D01*
X82268647Y-56524114D02*
X82221028Y-56428876D01*
X82221028Y-56428876D02*
X82173409Y-56381257D01*
X81649600Y-57666971D02*
X81601980Y-57571733D01*
X81601980Y-57571733D02*
X81601980Y-57381257D01*
X81601980Y-57381257D02*
X81649600Y-57286019D01*
X81649600Y-57286019D02*
X81744838Y-57238400D01*
X81744838Y-57238400D02*
X82125790Y-57238400D01*
X82125790Y-57238400D02*
X82221028Y-57286019D01*
X82221028Y-57286019D02*
X82268647Y-57381257D01*
X82268647Y-57381257D02*
X82268647Y-57571733D01*
X82268647Y-57571733D02*
X82221028Y-57666971D01*
X82221028Y-57666971D02*
X82125790Y-57714590D01*
X82125790Y-57714590D02*
X82030552Y-57714590D01*
X82030552Y-57714590D02*
X81935314Y-57238400D01*
X82268647Y-58143162D02*
X81601980Y-58143162D01*
X82173409Y-58143162D02*
X82221028Y-58190781D01*
X82221028Y-58190781D02*
X82268647Y-58286019D01*
X82268647Y-58286019D02*
X82268647Y-58428876D01*
X82268647Y-58428876D02*
X82221028Y-58524114D01*
X82221028Y-58524114D02*
X82125790Y-58571733D01*
X82125790Y-58571733D02*
X81601980Y-58571733D01*
X82601980Y-59666972D02*
X82601980Y-60238400D01*
X81601980Y-59952686D02*
X82601980Y-59952686D01*
X81601980Y-60571734D02*
X82268647Y-60571734D01*
X82601980Y-60571734D02*
X82554361Y-60524115D01*
X82554361Y-60524115D02*
X82506742Y-60571734D01*
X82506742Y-60571734D02*
X82554361Y-60619353D01*
X82554361Y-60619353D02*
X82601980Y-60571734D01*
X82601980Y-60571734D02*
X82506742Y-60571734D01*
X81601980Y-61047924D02*
X82268647Y-61047924D01*
X82173409Y-61047924D02*
X82221028Y-61095543D01*
X82221028Y-61095543D02*
X82268647Y-61190781D01*
X82268647Y-61190781D02*
X82268647Y-61333638D01*
X82268647Y-61333638D02*
X82221028Y-61428876D01*
X82221028Y-61428876D02*
X82125790Y-61476495D01*
X82125790Y-61476495D02*
X81601980Y-61476495D01*
X82125790Y-61476495D02*
X82221028Y-61524114D01*
X82221028Y-61524114D02*
X82268647Y-61619352D01*
X82268647Y-61619352D02*
X82268647Y-61762209D01*
X82268647Y-61762209D02*
X82221028Y-61857448D01*
X82221028Y-61857448D02*
X82125790Y-61905067D01*
X82125790Y-61905067D02*
X81601980Y-61905067D01*
X81649600Y-62762209D02*
X81601980Y-62666971D01*
X81601980Y-62666971D02*
X81601980Y-62476495D01*
X81601980Y-62476495D02*
X81649600Y-62381257D01*
X81649600Y-62381257D02*
X81744838Y-62333638D01*
X81744838Y-62333638D02*
X82125790Y-62333638D01*
X82125790Y-62333638D02*
X82221028Y-62381257D01*
X82221028Y-62381257D02*
X82268647Y-62476495D01*
X82268647Y-62476495D02*
X82268647Y-62666971D01*
X82268647Y-62666971D02*
X82221028Y-62762209D01*
X82221028Y-62762209D02*
X82125790Y-62809828D01*
X82125790Y-62809828D02*
X82030552Y-62809828D01*
X82030552Y-62809828D02*
X81935314Y-62333638D01*
X81601980Y-63238400D02*
X82268647Y-63238400D01*
X82078171Y-63238400D02*
X82173409Y-63286019D01*
X82173409Y-63286019D02*
X82221028Y-63333638D01*
X82221028Y-63333638D02*
X82268647Y-63428876D01*
X82268647Y-63428876D02*
X82268647Y-63524114D01*
X81649600Y-64571734D02*
X81601980Y-64714591D01*
X81601980Y-64714591D02*
X81601980Y-64952686D01*
X81601980Y-64952686D02*
X81649600Y-65047924D01*
X81649600Y-65047924D02*
X81697219Y-65095543D01*
X81697219Y-65095543D02*
X81792457Y-65143162D01*
X81792457Y-65143162D02*
X81887695Y-65143162D01*
X81887695Y-65143162D02*
X81982933Y-65095543D01*
X81982933Y-65095543D02*
X82030552Y-65047924D01*
X82030552Y-65047924D02*
X82078171Y-64952686D01*
X82078171Y-64952686D02*
X82125790Y-64762210D01*
X82125790Y-64762210D02*
X82173409Y-64666972D01*
X82173409Y-64666972D02*
X82221028Y-64619353D01*
X82221028Y-64619353D02*
X82316266Y-64571734D01*
X82316266Y-64571734D02*
X82411504Y-64571734D01*
X82411504Y-64571734D02*
X82506742Y-64619353D01*
X82506742Y-64619353D02*
X82554361Y-64666972D01*
X82554361Y-64666972D02*
X82601980Y-64762210D01*
X82601980Y-64762210D02*
X82601980Y-65000305D01*
X82601980Y-65000305D02*
X82554361Y-65143162D01*
X81601980Y-65571734D02*
X82601980Y-65571734D01*
X81601980Y-66000305D02*
X82125790Y-66000305D01*
X82125790Y-66000305D02*
X82221028Y-65952686D01*
X82221028Y-65952686D02*
X82268647Y-65857448D01*
X82268647Y-65857448D02*
X82268647Y-65714591D01*
X82268647Y-65714591D02*
X82221028Y-65619353D01*
X82221028Y-65619353D02*
X82173409Y-65571734D01*
X81601980Y-66476496D02*
X82268647Y-66476496D01*
X82601980Y-66476496D02*
X82554361Y-66428877D01*
X82554361Y-66428877D02*
X82506742Y-66476496D01*
X82506742Y-66476496D02*
X82554361Y-66524115D01*
X82554361Y-66524115D02*
X82601980Y-66476496D01*
X82601980Y-66476496D02*
X82506742Y-66476496D01*
X81649600Y-67333638D02*
X81601980Y-67238400D01*
X81601980Y-67238400D02*
X81601980Y-67047924D01*
X81601980Y-67047924D02*
X81649600Y-66952686D01*
X81649600Y-66952686D02*
X81744838Y-66905067D01*
X81744838Y-66905067D02*
X82125790Y-66905067D01*
X82125790Y-66905067D02*
X82221028Y-66952686D01*
X82221028Y-66952686D02*
X82268647Y-67047924D01*
X82268647Y-67047924D02*
X82268647Y-67238400D01*
X82268647Y-67238400D02*
X82221028Y-67333638D01*
X82221028Y-67333638D02*
X82125790Y-67381257D01*
X82125790Y-67381257D02*
X82030552Y-67381257D01*
X82030552Y-67381257D02*
X81935314Y-66905067D01*
X81601980Y-67952686D02*
X81649600Y-67857448D01*
X81649600Y-67857448D02*
X81744838Y-67809829D01*
X81744838Y-67809829D02*
X82601980Y-67809829D01*
X81601980Y-68762210D02*
X82601980Y-68762210D01*
X81649600Y-68762210D02*
X81601980Y-68666972D01*
X81601980Y-68666972D02*
X81601980Y-68476496D01*
X81601980Y-68476496D02*
X81649600Y-68381258D01*
X81649600Y-68381258D02*
X81697219Y-68333639D01*
X81697219Y-68333639D02*
X81792457Y-68286020D01*
X81792457Y-68286020D02*
X82078171Y-68286020D01*
X82078171Y-68286020D02*
X82173409Y-68333639D01*
X82173409Y-68333639D02*
X82221028Y-68381258D01*
X82221028Y-68381258D02*
X82268647Y-68476496D01*
X82268647Y-68476496D02*
X82268647Y-68666972D01*
X82268647Y-68666972D02*
X82221028Y-68762210D01*
X80981980Y-53381257D02*
X80981980Y-54047923D01*
X80981980Y-54047923D02*
X79981980Y-53619352D01*
X80362933Y-54428876D02*
X80362933Y-55190781D01*
X80029600Y-55619352D02*
X79981980Y-55762209D01*
X79981980Y-55762209D02*
X79981980Y-56000304D01*
X79981980Y-56000304D02*
X80029600Y-56095542D01*
X80029600Y-56095542D02*
X80077219Y-56143161D01*
X80077219Y-56143161D02*
X80172457Y-56190780D01*
X80172457Y-56190780D02*
X80267695Y-56190780D01*
X80267695Y-56190780D02*
X80362933Y-56143161D01*
X80362933Y-56143161D02*
X80410552Y-56095542D01*
X80410552Y-56095542D02*
X80458171Y-56000304D01*
X80458171Y-56000304D02*
X80505790Y-55809828D01*
X80505790Y-55809828D02*
X80553409Y-55714590D01*
X80553409Y-55714590D02*
X80601028Y-55666971D01*
X80601028Y-55666971D02*
X80696266Y-55619352D01*
X80696266Y-55619352D02*
X80791504Y-55619352D01*
X80791504Y-55619352D02*
X80886742Y-55666971D01*
X80886742Y-55666971D02*
X80934361Y-55714590D01*
X80934361Y-55714590D02*
X80981980Y-55809828D01*
X80981980Y-55809828D02*
X80981980Y-56047923D01*
X80981980Y-56047923D02*
X80934361Y-56190780D01*
X80029600Y-57000304D02*
X79981980Y-56905066D01*
X79981980Y-56905066D02*
X79981980Y-56714590D01*
X79981980Y-56714590D02*
X80029600Y-56619352D01*
X80029600Y-56619352D02*
X80124838Y-56571733D01*
X80124838Y-56571733D02*
X80505790Y-56571733D01*
X80505790Y-56571733D02*
X80601028Y-56619352D01*
X80601028Y-56619352D02*
X80648647Y-56714590D01*
X80648647Y-56714590D02*
X80648647Y-56905066D01*
X80648647Y-56905066D02*
X80601028Y-57000304D01*
X80601028Y-57000304D02*
X80505790Y-57047923D01*
X80505790Y-57047923D02*
X80410552Y-57047923D01*
X80410552Y-57047923D02*
X80315314Y-56571733D01*
X80648647Y-57905066D02*
X79839123Y-57905066D01*
X79839123Y-57905066D02*
X79743885Y-57857447D01*
X79743885Y-57857447D02*
X79696266Y-57809828D01*
X79696266Y-57809828D02*
X79648647Y-57714590D01*
X79648647Y-57714590D02*
X79648647Y-57571733D01*
X79648647Y-57571733D02*
X79696266Y-57476495D01*
X80029600Y-57905066D02*
X79981980Y-57809828D01*
X79981980Y-57809828D02*
X79981980Y-57619352D01*
X79981980Y-57619352D02*
X80029600Y-57524114D01*
X80029600Y-57524114D02*
X80077219Y-57476495D01*
X80077219Y-57476495D02*
X80172457Y-57428876D01*
X80172457Y-57428876D02*
X80458171Y-57428876D01*
X80458171Y-57428876D02*
X80553409Y-57476495D01*
X80553409Y-57476495D02*
X80601028Y-57524114D01*
X80601028Y-57524114D02*
X80648647Y-57619352D01*
X80648647Y-57619352D02*
X80648647Y-57809828D01*
X80648647Y-57809828D02*
X80601028Y-57905066D01*
X79981980Y-59143162D02*
X80981980Y-59143162D01*
X80981980Y-59143162D02*
X80981980Y-59381257D01*
X80981980Y-59381257D02*
X80934361Y-59524114D01*
X80934361Y-59524114D02*
X80839123Y-59619352D01*
X80839123Y-59619352D02*
X80743885Y-59666971D01*
X80743885Y-59666971D02*
X80553409Y-59714590D01*
X80553409Y-59714590D02*
X80410552Y-59714590D01*
X80410552Y-59714590D02*
X80220076Y-59666971D01*
X80220076Y-59666971D02*
X80124838Y-59619352D01*
X80124838Y-59619352D02*
X80029600Y-59524114D01*
X80029600Y-59524114D02*
X79981980Y-59381257D01*
X79981980Y-59381257D02*
X79981980Y-59143162D01*
X79981980Y-60143162D02*
X80648647Y-60143162D01*
X80981980Y-60143162D02*
X80934361Y-60095543D01*
X80934361Y-60095543D02*
X80886742Y-60143162D01*
X80886742Y-60143162D02*
X80934361Y-60190781D01*
X80934361Y-60190781D02*
X80981980Y-60143162D01*
X80981980Y-60143162D02*
X80886742Y-60143162D01*
X80029600Y-60571733D02*
X79981980Y-60666971D01*
X79981980Y-60666971D02*
X79981980Y-60857447D01*
X79981980Y-60857447D02*
X80029600Y-60952685D01*
X80029600Y-60952685D02*
X80124838Y-61000304D01*
X80124838Y-61000304D02*
X80172457Y-61000304D01*
X80172457Y-61000304D02*
X80267695Y-60952685D01*
X80267695Y-60952685D02*
X80315314Y-60857447D01*
X80315314Y-60857447D02*
X80315314Y-60714590D01*
X80315314Y-60714590D02*
X80362933Y-60619352D01*
X80362933Y-60619352D02*
X80458171Y-60571733D01*
X80458171Y-60571733D02*
X80505790Y-60571733D01*
X80505790Y-60571733D02*
X80601028Y-60619352D01*
X80601028Y-60619352D02*
X80648647Y-60714590D01*
X80648647Y-60714590D02*
X80648647Y-60857447D01*
X80648647Y-60857447D02*
X80601028Y-60952685D01*
X80648647Y-61428876D02*
X79648647Y-61428876D01*
X80601028Y-61428876D02*
X80648647Y-61524114D01*
X80648647Y-61524114D02*
X80648647Y-61714590D01*
X80648647Y-61714590D02*
X80601028Y-61809828D01*
X80601028Y-61809828D02*
X80553409Y-61857447D01*
X80553409Y-61857447D02*
X80458171Y-61905066D01*
X80458171Y-61905066D02*
X80172457Y-61905066D01*
X80172457Y-61905066D02*
X80077219Y-61857447D01*
X80077219Y-61857447D02*
X80029600Y-61809828D01*
X80029600Y-61809828D02*
X79981980Y-61714590D01*
X79981980Y-61714590D02*
X79981980Y-61524114D01*
X79981980Y-61524114D02*
X80029600Y-61428876D01*
X79981980Y-62476495D02*
X80029600Y-62381257D01*
X80029600Y-62381257D02*
X80124838Y-62333638D01*
X80124838Y-62333638D02*
X80981980Y-62333638D01*
X79981980Y-63286019D02*
X80505790Y-63286019D01*
X80505790Y-63286019D02*
X80601028Y-63238400D01*
X80601028Y-63238400D02*
X80648647Y-63143162D01*
X80648647Y-63143162D02*
X80648647Y-62952686D01*
X80648647Y-62952686D02*
X80601028Y-62857448D01*
X80029600Y-63286019D02*
X79981980Y-63190781D01*
X79981980Y-63190781D02*
X79981980Y-62952686D01*
X79981980Y-62952686D02*
X80029600Y-62857448D01*
X80029600Y-62857448D02*
X80124838Y-62809829D01*
X80124838Y-62809829D02*
X80220076Y-62809829D01*
X80220076Y-62809829D02*
X80315314Y-62857448D01*
X80315314Y-62857448D02*
X80362933Y-62952686D01*
X80362933Y-62952686D02*
X80362933Y-63190781D01*
X80362933Y-63190781D02*
X80410552Y-63286019D01*
X80648647Y-63666972D02*
X79981980Y-63905067D01*
X80648647Y-64143162D02*
X79981980Y-63905067D01*
X79981980Y-63905067D02*
X79743885Y-63809829D01*
X79743885Y-63809829D02*
X79696266Y-63762210D01*
X79696266Y-63762210D02*
X79648647Y-63666972D01*
X168430724Y-80920419D02*
X168764057Y-81920419D01*
X168764057Y-81920419D02*
X169097390Y-80920419D01*
X169859295Y-81872800D02*
X169764057Y-81920419D01*
X169764057Y-81920419D02*
X169573581Y-81920419D01*
X169573581Y-81920419D02*
X169478343Y-81872800D01*
X169478343Y-81872800D02*
X169430724Y-81825180D01*
X169430724Y-81825180D02*
X169383105Y-81729942D01*
X169383105Y-81729942D02*
X169383105Y-81444228D01*
X169383105Y-81444228D02*
X169430724Y-81348990D01*
X169430724Y-81348990D02*
X169478343Y-81301371D01*
X169478343Y-81301371D02*
X169573581Y-81253752D01*
X169573581Y-81253752D02*
X169764057Y-81253752D01*
X169764057Y-81253752D02*
X169859295Y-81301371D01*
X170716438Y-81872800D02*
X170621200Y-81920419D01*
X170621200Y-81920419D02*
X170430724Y-81920419D01*
X170430724Y-81920419D02*
X170335486Y-81872800D01*
X170335486Y-81872800D02*
X170287867Y-81825180D01*
X170287867Y-81825180D02*
X170240248Y-81729942D01*
X170240248Y-81729942D02*
X170240248Y-81444228D01*
X170240248Y-81444228D02*
X170287867Y-81348990D01*
X170287867Y-81348990D02*
X170335486Y-81301371D01*
X170335486Y-81301371D02*
X170430724Y-81253752D01*
X170430724Y-81253752D02*
X170621200Y-81253752D01*
X170621200Y-81253752D02*
X170716438Y-81301371D01*
X170799695Y-66625619D02*
X171371123Y-66625619D01*
X171085409Y-67625619D02*
X171085409Y-66625619D01*
X171609219Y-66625619D02*
X172275885Y-67625619D01*
X172275885Y-66625619D02*
X171609219Y-67625619D01*
%TO.C,J7*%
X169450266Y-60428019D02*
X169450266Y-61142304D01*
X169450266Y-61142304D02*
X169402647Y-61285161D01*
X169402647Y-61285161D02*
X169307409Y-61380400D01*
X169307409Y-61380400D02*
X169164552Y-61428019D01*
X169164552Y-61428019D02*
X169069314Y-61428019D01*
X169831219Y-60428019D02*
X170497885Y-60428019D01*
X170497885Y-60428019D02*
X170069314Y-61428019D01*
%TO.C,R1*%
X182621733Y-58684819D02*
X182288400Y-58208628D01*
X182050305Y-58684819D02*
X182050305Y-57684819D01*
X182050305Y-57684819D02*
X182431257Y-57684819D01*
X182431257Y-57684819D02*
X182526495Y-57732438D01*
X182526495Y-57732438D02*
X182574114Y-57780057D01*
X182574114Y-57780057D02*
X182621733Y-57875295D01*
X182621733Y-57875295D02*
X182621733Y-58018152D01*
X182621733Y-58018152D02*
X182574114Y-58113390D01*
X182574114Y-58113390D02*
X182526495Y-58161009D01*
X182526495Y-58161009D02*
X182431257Y-58208628D01*
X182431257Y-58208628D02*
X182050305Y-58208628D01*
X183574114Y-58684819D02*
X183002686Y-58684819D01*
X183288400Y-58684819D02*
X183288400Y-57684819D01*
X183288400Y-57684819D02*
X183193162Y-57827676D01*
X183193162Y-57827676D02*
X183097924Y-57922914D01*
X183097924Y-57922914D02*
X183002686Y-57970533D01*
%TO.C,J8*%
X172869266Y-78175819D02*
X172869266Y-78890104D01*
X172869266Y-78890104D02*
X172821647Y-79032961D01*
X172821647Y-79032961D02*
X172726409Y-79128200D01*
X172726409Y-79128200D02*
X172583552Y-79175819D01*
X172583552Y-79175819D02*
X172488314Y-79175819D01*
X173488314Y-78604390D02*
X173393076Y-78556771D01*
X173393076Y-78556771D02*
X173345457Y-78509152D01*
X173345457Y-78509152D02*
X173297838Y-78413914D01*
X173297838Y-78413914D02*
X173297838Y-78366295D01*
X173297838Y-78366295D02*
X173345457Y-78271057D01*
X173345457Y-78271057D02*
X173393076Y-78223438D01*
X173393076Y-78223438D02*
X173488314Y-78175819D01*
X173488314Y-78175819D02*
X173678790Y-78175819D01*
X173678790Y-78175819D02*
X173774028Y-78223438D01*
X173774028Y-78223438D02*
X173821647Y-78271057D01*
X173821647Y-78271057D02*
X173869266Y-78366295D01*
X173869266Y-78366295D02*
X173869266Y-78413914D01*
X173869266Y-78413914D02*
X173821647Y-78509152D01*
X173821647Y-78509152D02*
X173774028Y-78556771D01*
X173774028Y-78556771D02*
X173678790Y-78604390D01*
X173678790Y-78604390D02*
X173488314Y-78604390D01*
X173488314Y-78604390D02*
X173393076Y-78652009D01*
X173393076Y-78652009D02*
X173345457Y-78699628D01*
X173345457Y-78699628D02*
X173297838Y-78794866D01*
X173297838Y-78794866D02*
X173297838Y-78985342D01*
X173297838Y-78985342D02*
X173345457Y-79080580D01*
X173345457Y-79080580D02*
X173393076Y-79128200D01*
X173393076Y-79128200D02*
X173488314Y-79175819D01*
X173488314Y-79175819D02*
X173678790Y-79175819D01*
X173678790Y-79175819D02*
X173774028Y-79128200D01*
X173774028Y-79128200D02*
X173821647Y-79080580D01*
X173821647Y-79080580D02*
X173869266Y-78985342D01*
X173869266Y-78985342D02*
X173869266Y-78794866D01*
X173869266Y-78794866D02*
X173821647Y-78699628D01*
X173821647Y-78699628D02*
X173774028Y-78652009D01*
X173774028Y-78652009D02*
X173678790Y-78604390D01*
D10*
%TO.C,J2*%
X157582400Y-40706200D02*
X157582400Y-104326200D01*
X157582400Y-40706200D02*
X160182400Y-40706200D01*
X157582400Y-104326200D02*
X162782400Y-104326200D01*
X160182400Y-40706200D02*
X160182400Y-43306200D01*
X160182400Y-43306200D02*
X162782400Y-43306200D01*
X161452400Y-40706200D02*
X162782400Y-40706200D01*
X162782400Y-40706200D02*
X162782400Y-42036200D01*
X162782400Y-43306200D02*
X162782400Y-104326200D01*
%TO.C,J6*%
X93640600Y-77724000D02*
X93640600Y-95564000D01*
X93640600Y-77724000D02*
X96300600Y-77724000D01*
X93640600Y-95564000D02*
X96300600Y-95564000D01*
X94970600Y-75124000D02*
X96300600Y-75124000D01*
X96300600Y-75124000D02*
X96300600Y-76454000D01*
X96300600Y-77724000D02*
X96300600Y-95564000D01*
%TO.C,J7*%
X171374600Y-65800600D02*
X181654600Y-65800600D01*
X171374600Y-65800600D02*
X171374600Y-63200600D01*
X181654600Y-65800600D02*
X181654600Y-60600600D01*
X171374600Y-63200600D02*
X173974600Y-63200600D01*
X173974600Y-63200600D02*
X173974600Y-60600600D01*
X171374600Y-61930600D02*
X171374600Y-60600600D01*
X171374600Y-60600600D02*
X172704600Y-60600600D01*
X173974600Y-60600600D02*
X181654600Y-60600600D01*
%TO.C,J1*%
X106792400Y-40686200D02*
X106792400Y-104306200D01*
X106792400Y-40686200D02*
X109392400Y-40686200D01*
X106792400Y-104306200D02*
X111992400Y-104306200D01*
X109392400Y-40686200D02*
X109392400Y-43286200D01*
X109392400Y-43286200D02*
X111992400Y-43286200D01*
X110662400Y-40686200D02*
X111992400Y-40686200D01*
X111992400Y-40686200D02*
X111992400Y-42016200D01*
X111992400Y-43286200D02*
X111992400Y-104306200D01*
%TO.C,J4*%
X45380600Y-82804000D02*
X45380600Y-95564000D01*
X45380600Y-82804000D02*
X48040600Y-82804000D01*
X45380600Y-95564000D02*
X48040600Y-95564000D01*
X46710600Y-80204000D02*
X48040600Y-80204000D01*
X48040600Y-80204000D02*
X48040600Y-81534000D01*
X48040600Y-82804000D02*
X48040600Y-95564000D01*
%TO.C,J3*%
X45380600Y-59944000D02*
X45380600Y-77784000D01*
X45380600Y-59944000D02*
X48040600Y-59944000D01*
X45380600Y-77784000D02*
X48040600Y-77784000D01*
X46710600Y-57344000D02*
X48040600Y-57344000D01*
X48040600Y-57344000D02*
X48040600Y-58674000D01*
X48040600Y-59944000D02*
X48040600Y-77784000D01*
%TO.C,J5*%
X93640600Y-50800000D02*
X93640600Y-73720000D01*
X93640600Y-50800000D02*
X96300600Y-50800000D01*
X93640600Y-73720000D02*
X96300600Y-73720000D01*
X94970600Y-48200000D02*
X96300600Y-48200000D01*
X96300600Y-48200000D02*
X96300600Y-49530000D01*
X96300600Y-50800000D02*
X96300600Y-73720000D01*
%TO.C,R1*%
X186879200Y-58247600D02*
X186109200Y-58247600D01*
X186109200Y-59617600D02*
X186109200Y-56877600D01*
X186109200Y-56877600D02*
X179569200Y-56877600D01*
X179569200Y-59617600D02*
X186109200Y-59617600D01*
X179569200Y-56877600D02*
X179569200Y-59617600D01*
X178799200Y-58247600D02*
X179569200Y-58247600D01*
%TO.C,J8*%
X171872600Y-82753200D02*
X171872600Y-100593200D01*
X171872600Y-82753200D02*
X174532600Y-82753200D01*
X171872600Y-100593200D02*
X174532600Y-100593200D01*
X173202600Y-80153200D02*
X174532600Y-80153200D01*
X174532600Y-80153200D02*
X174532600Y-81483200D01*
X174532600Y-82753200D02*
X174532600Y-100593200D01*
%TD*%
M02*
