%TF.GenerationSoftware,KiCad,Pcbnew,7.0.1*%
%TF.CreationDate,2023-05-07T16:57:40-06:00*%
%TF.ProjectId,Phase_C_STM_Shield,50686173-655f-4435-9f53-544d5f536869,rev?*%
%TF.SameCoordinates,Original*%
%TF.FileFunction,Legend,Bot*%
%TF.FilePolarity,Positive*%
%FSLAX46Y46*%
G04 Gerber Fmt 4.6, Leading zero omitted, Abs format (unit mm)*
G04 Created by KiCad (PCBNEW 7.0.1) date 2023-05-07 16:57:40*
%MOMM*%
%LPD*%
G01*
G04 APERTURE LIST*
%ADD10C,0.400000*%
G04 APERTURE END LIST*
D10*
X101320647Y-104638200D02*
X101034933Y-104733438D01*
X101034933Y-104733438D02*
X100558742Y-104733438D01*
X100558742Y-104733438D02*
X100368266Y-104638200D01*
X100368266Y-104638200D02*
X100273028Y-104542961D01*
X100273028Y-104542961D02*
X100177790Y-104352485D01*
X100177790Y-104352485D02*
X100177790Y-104162009D01*
X100177790Y-104162009D02*
X100273028Y-103971533D01*
X100273028Y-103971533D02*
X100368266Y-103876295D01*
X100368266Y-103876295D02*
X100558742Y-103781057D01*
X100558742Y-103781057D02*
X100939695Y-103685819D01*
X100939695Y-103685819D02*
X101130171Y-103590580D01*
X101130171Y-103590580D02*
X101225409Y-103495342D01*
X101225409Y-103495342D02*
X101320647Y-103304866D01*
X101320647Y-103304866D02*
X101320647Y-103114390D01*
X101320647Y-103114390D02*
X101225409Y-102923914D01*
X101225409Y-102923914D02*
X101130171Y-102828676D01*
X101130171Y-102828676D02*
X100939695Y-102733438D01*
X100939695Y-102733438D02*
X100463504Y-102733438D01*
X100463504Y-102733438D02*
X100177790Y-102828676D01*
X99606361Y-102733438D02*
X98463504Y-102733438D01*
X99034933Y-104733438D02*
X99034933Y-102733438D01*
X97796837Y-104733438D02*
X97796837Y-102733438D01*
X97796837Y-102733438D02*
X97130170Y-104162009D01*
X97130170Y-104162009D02*
X96463504Y-102733438D01*
X96463504Y-102733438D02*
X96463504Y-104733438D01*
X95701599Y-102733438D02*
X94463504Y-102733438D01*
X94463504Y-102733438D02*
X95130171Y-103495342D01*
X95130171Y-103495342D02*
X94844456Y-103495342D01*
X94844456Y-103495342D02*
X94653980Y-103590580D01*
X94653980Y-103590580D02*
X94558742Y-103685819D01*
X94558742Y-103685819D02*
X94463504Y-103876295D01*
X94463504Y-103876295D02*
X94463504Y-104352485D01*
X94463504Y-104352485D02*
X94558742Y-104542961D01*
X94558742Y-104542961D02*
X94653980Y-104638200D01*
X94653980Y-104638200D02*
X94844456Y-104733438D01*
X94844456Y-104733438D02*
X95415885Y-104733438D01*
X95415885Y-104733438D02*
X95606361Y-104638200D01*
X95606361Y-104638200D02*
X95701599Y-104542961D01*
X93701599Y-102923914D02*
X93606361Y-102828676D01*
X93606361Y-102828676D02*
X93415885Y-102733438D01*
X93415885Y-102733438D02*
X92939694Y-102733438D01*
X92939694Y-102733438D02*
X92749218Y-102828676D01*
X92749218Y-102828676D02*
X92653980Y-102923914D01*
X92653980Y-102923914D02*
X92558742Y-103114390D01*
X92558742Y-103114390D02*
X92558742Y-103304866D01*
X92558742Y-103304866D02*
X92653980Y-103590580D01*
X92653980Y-103590580D02*
X93796837Y-104733438D01*
X93796837Y-104733438D02*
X92558742Y-104733438D01*
X91034932Y-103685819D02*
X91701599Y-103685819D01*
X91701599Y-104733438D02*
X91701599Y-102733438D01*
X91701599Y-102733438D02*
X90749218Y-102733438D01*
X89130170Y-103400104D02*
X89130170Y-104733438D01*
X89606361Y-102638200D02*
X90082551Y-104066771D01*
X90082551Y-104066771D02*
X88844456Y-104066771D01*
X86558741Y-104733438D02*
X86558741Y-102733438D01*
X85415884Y-104733438D02*
X86273027Y-103590580D01*
X85415884Y-102733438D02*
X86558741Y-103876295D01*
X84558741Y-104733438D02*
X84558741Y-103400104D01*
X84558741Y-102733438D02*
X84653979Y-102828676D01*
X84653979Y-102828676D02*
X84558741Y-102923914D01*
X84558741Y-102923914D02*
X84463503Y-102828676D01*
X84463503Y-102828676D02*
X84558741Y-102733438D01*
X84558741Y-102733438D02*
X84558741Y-102923914D01*
X83892074Y-103400104D02*
X83130170Y-103400104D01*
X83606360Y-102733438D02*
X83606360Y-104447723D01*
X83606360Y-104447723D02*
X83511122Y-104638200D01*
X83511122Y-104638200D02*
X83320646Y-104733438D01*
X83320646Y-104733438D02*
X83130170Y-104733438D01*
X81606360Y-104638200D02*
X81796836Y-104733438D01*
X81796836Y-104733438D02*
X82177789Y-104733438D01*
X82177789Y-104733438D02*
X82368265Y-104638200D01*
X82368265Y-104638200D02*
X82463503Y-104542961D01*
X82463503Y-104542961D02*
X82558741Y-104352485D01*
X82558741Y-104352485D02*
X82558741Y-103781057D01*
X82558741Y-103781057D02*
X82463503Y-103590580D01*
X82463503Y-103590580D02*
X82368265Y-103495342D01*
X82368265Y-103495342D02*
X82177789Y-103400104D01*
X82177789Y-103400104D02*
X81796836Y-103400104D01*
X81796836Y-103400104D02*
X81606360Y-103495342D01*
X80749217Y-104733438D02*
X80749217Y-102733438D01*
X79892074Y-104733438D02*
X79892074Y-103685819D01*
X79892074Y-103685819D02*
X79987312Y-103495342D01*
X79987312Y-103495342D02*
X80177788Y-103400104D01*
X80177788Y-103400104D02*
X80463503Y-103400104D01*
X80463503Y-103400104D02*
X80653979Y-103495342D01*
X80653979Y-103495342D02*
X80749217Y-103590580D01*
X78177788Y-104638200D02*
X78368264Y-104733438D01*
X78368264Y-104733438D02*
X78749217Y-104733438D01*
X78749217Y-104733438D02*
X78939693Y-104638200D01*
X78939693Y-104638200D02*
X79034931Y-104447723D01*
X79034931Y-104447723D02*
X79034931Y-103685819D01*
X79034931Y-103685819D02*
X78939693Y-103495342D01*
X78939693Y-103495342D02*
X78749217Y-103400104D01*
X78749217Y-103400104D02*
X78368264Y-103400104D01*
X78368264Y-103400104D02*
X78177788Y-103495342D01*
X78177788Y-103495342D02*
X78082550Y-103685819D01*
X78082550Y-103685819D02*
X78082550Y-103876295D01*
X78082550Y-103876295D02*
X79034931Y-104066771D01*
X77225407Y-103400104D02*
X77225407Y-104733438D01*
X77225407Y-103590580D02*
X77130169Y-103495342D01*
X77130169Y-103495342D02*
X76939693Y-103400104D01*
X76939693Y-103400104D02*
X76653978Y-103400104D01*
X76653978Y-103400104D02*
X76463502Y-103495342D01*
X76463502Y-103495342D02*
X76368264Y-103685819D01*
X76368264Y-103685819D02*
X76368264Y-104733438D01*
X74177787Y-102733438D02*
X73034930Y-102733438D01*
X73606359Y-104733438D02*
X73606359Y-102733438D01*
X72368263Y-104733438D02*
X72368263Y-103400104D01*
X72368263Y-102733438D02*
X72463501Y-102828676D01*
X72463501Y-102828676D02*
X72368263Y-102923914D01*
X72368263Y-102923914D02*
X72273025Y-102828676D01*
X72273025Y-102828676D02*
X72368263Y-102733438D01*
X72368263Y-102733438D02*
X72368263Y-102923914D01*
X71415882Y-104733438D02*
X71415882Y-103400104D01*
X71415882Y-103590580D02*
X71320644Y-103495342D01*
X71320644Y-103495342D02*
X71130168Y-103400104D01*
X71130168Y-103400104D02*
X70844453Y-103400104D01*
X70844453Y-103400104D02*
X70653977Y-103495342D01*
X70653977Y-103495342D02*
X70558739Y-103685819D01*
X70558739Y-103685819D02*
X70558739Y-104733438D01*
X70558739Y-103685819D02*
X70463501Y-103495342D01*
X70463501Y-103495342D02*
X70273025Y-103400104D01*
X70273025Y-103400104D02*
X69987311Y-103400104D01*
X69987311Y-103400104D02*
X69796834Y-103495342D01*
X69796834Y-103495342D02*
X69701596Y-103685819D01*
X69701596Y-103685819D02*
X69701596Y-104733438D01*
X67987310Y-104638200D02*
X68177786Y-104733438D01*
X68177786Y-104733438D02*
X68558739Y-104733438D01*
X68558739Y-104733438D02*
X68749215Y-104638200D01*
X68749215Y-104638200D02*
X68844453Y-104447723D01*
X68844453Y-104447723D02*
X68844453Y-103685819D01*
X68844453Y-103685819D02*
X68749215Y-103495342D01*
X68749215Y-103495342D02*
X68558739Y-103400104D01*
X68558739Y-103400104D02*
X68177786Y-103400104D01*
X68177786Y-103400104D02*
X67987310Y-103495342D01*
X67987310Y-103495342D02*
X67892072Y-103685819D01*
X67892072Y-103685819D02*
X67892072Y-103876295D01*
X67892072Y-103876295D02*
X68844453Y-104066771D01*
X67034929Y-104733438D02*
X67034929Y-103400104D01*
X67034929Y-103781057D02*
X66939691Y-103590580D01*
X66939691Y-103590580D02*
X66844453Y-103495342D01*
X66844453Y-103495342D02*
X66653977Y-103400104D01*
X66653977Y-103400104D02*
X66463500Y-103400104D01*
X64368262Y-104638200D02*
X64082548Y-104733438D01*
X64082548Y-104733438D02*
X63606357Y-104733438D01*
X63606357Y-104733438D02*
X63415881Y-104638200D01*
X63415881Y-104638200D02*
X63320643Y-104542961D01*
X63320643Y-104542961D02*
X63225405Y-104352485D01*
X63225405Y-104352485D02*
X63225405Y-104162009D01*
X63225405Y-104162009D02*
X63320643Y-103971533D01*
X63320643Y-103971533D02*
X63415881Y-103876295D01*
X63415881Y-103876295D02*
X63606357Y-103781057D01*
X63606357Y-103781057D02*
X63987310Y-103685819D01*
X63987310Y-103685819D02*
X64177786Y-103590580D01*
X64177786Y-103590580D02*
X64273024Y-103495342D01*
X64273024Y-103495342D02*
X64368262Y-103304866D01*
X64368262Y-103304866D02*
X64368262Y-103114390D01*
X64368262Y-103114390D02*
X64273024Y-102923914D01*
X64273024Y-102923914D02*
X64177786Y-102828676D01*
X64177786Y-102828676D02*
X63987310Y-102733438D01*
X63987310Y-102733438D02*
X63511119Y-102733438D01*
X63511119Y-102733438D02*
X63225405Y-102828676D01*
X62368262Y-104733438D02*
X62368262Y-102733438D01*
X61511119Y-104733438D02*
X61511119Y-103685819D01*
X61511119Y-103685819D02*
X61606357Y-103495342D01*
X61606357Y-103495342D02*
X61796833Y-103400104D01*
X61796833Y-103400104D02*
X62082548Y-103400104D01*
X62082548Y-103400104D02*
X62273024Y-103495342D01*
X62273024Y-103495342D02*
X62368262Y-103590580D01*
X60558738Y-104733438D02*
X60558738Y-103400104D01*
X60558738Y-102733438D02*
X60653976Y-102828676D01*
X60653976Y-102828676D02*
X60558738Y-102923914D01*
X60558738Y-102923914D02*
X60463500Y-102828676D01*
X60463500Y-102828676D02*
X60558738Y-102733438D01*
X60558738Y-102733438D02*
X60558738Y-102923914D01*
X58844452Y-104638200D02*
X59034928Y-104733438D01*
X59034928Y-104733438D02*
X59415881Y-104733438D01*
X59415881Y-104733438D02*
X59606357Y-104638200D01*
X59606357Y-104638200D02*
X59701595Y-104447723D01*
X59701595Y-104447723D02*
X59701595Y-103685819D01*
X59701595Y-103685819D02*
X59606357Y-103495342D01*
X59606357Y-103495342D02*
X59415881Y-103400104D01*
X59415881Y-103400104D02*
X59034928Y-103400104D01*
X59034928Y-103400104D02*
X58844452Y-103495342D01*
X58844452Y-103495342D02*
X58749214Y-103685819D01*
X58749214Y-103685819D02*
X58749214Y-103876295D01*
X58749214Y-103876295D02*
X59701595Y-104066771D01*
X57606357Y-104733438D02*
X57796833Y-104638200D01*
X57796833Y-104638200D02*
X57892071Y-104447723D01*
X57892071Y-104447723D02*
X57892071Y-102733438D01*
X55987309Y-104733438D02*
X55987309Y-102733438D01*
X55987309Y-104638200D02*
X56177785Y-104733438D01*
X56177785Y-104733438D02*
X56558738Y-104733438D01*
X56558738Y-104733438D02*
X56749214Y-104638200D01*
X56749214Y-104638200D02*
X56844452Y-104542961D01*
X56844452Y-104542961D02*
X56939690Y-104352485D01*
X56939690Y-104352485D02*
X56939690Y-103781057D01*
X56939690Y-103781057D02*
X56844452Y-103590580D01*
X56844452Y-103590580D02*
X56749214Y-103495342D01*
X56749214Y-103495342D02*
X56558738Y-103400104D01*
X56558738Y-103400104D02*
X56177785Y-103400104D01*
X56177785Y-103400104D02*
X55987309Y-103495342D01*
X153682723Y-41657638D02*
X153016057Y-43657638D01*
X153016057Y-43657638D02*
X152349390Y-41657638D01*
X150920818Y-43562400D02*
X151111294Y-43657638D01*
X151111294Y-43657638D02*
X151492247Y-43657638D01*
X151492247Y-43657638D02*
X151682723Y-43562400D01*
X151682723Y-43562400D02*
X151777961Y-43371923D01*
X151777961Y-43371923D02*
X151777961Y-42610019D01*
X151777961Y-42610019D02*
X151682723Y-42419542D01*
X151682723Y-42419542D02*
X151492247Y-42324304D01*
X151492247Y-42324304D02*
X151111294Y-42324304D01*
X151111294Y-42324304D02*
X150920818Y-42419542D01*
X150920818Y-42419542D02*
X150825580Y-42610019D01*
X150825580Y-42610019D02*
X150825580Y-42800495D01*
X150825580Y-42800495D02*
X151777961Y-42990971D01*
X149968437Y-43657638D02*
X149968437Y-42324304D01*
X149968437Y-42705257D02*
X149873199Y-42514780D01*
X149873199Y-42514780D02*
X149777961Y-42419542D01*
X149777961Y-42419542D02*
X149587485Y-42324304D01*
X149587485Y-42324304D02*
X149397008Y-42324304D01*
X148825580Y-43562400D02*
X148635104Y-43657638D01*
X148635104Y-43657638D02*
X148254152Y-43657638D01*
X148254152Y-43657638D02*
X148063675Y-43562400D01*
X148063675Y-43562400D02*
X147968437Y-43371923D01*
X147968437Y-43371923D02*
X147968437Y-43276685D01*
X147968437Y-43276685D02*
X148063675Y-43086209D01*
X148063675Y-43086209D02*
X148254152Y-42990971D01*
X148254152Y-42990971D02*
X148539866Y-42990971D01*
X148539866Y-42990971D02*
X148730342Y-42895733D01*
X148730342Y-42895733D02*
X148825580Y-42705257D01*
X148825580Y-42705257D02*
X148825580Y-42610019D01*
X148825580Y-42610019D02*
X148730342Y-42419542D01*
X148730342Y-42419542D02*
X148539866Y-42324304D01*
X148539866Y-42324304D02*
X148254152Y-42324304D01*
X148254152Y-42324304D02*
X148063675Y-42419542D01*
X147111294Y-43657638D02*
X147111294Y-42324304D01*
X147111294Y-41657638D02*
X147206532Y-41752876D01*
X147206532Y-41752876D02*
X147111294Y-41848114D01*
X147111294Y-41848114D02*
X147016056Y-41752876D01*
X147016056Y-41752876D02*
X147111294Y-41657638D01*
X147111294Y-41657638D02*
X147111294Y-41848114D01*
X145873199Y-43657638D02*
X146063675Y-43562400D01*
X146063675Y-43562400D02*
X146158913Y-43467161D01*
X146158913Y-43467161D02*
X146254151Y-43276685D01*
X146254151Y-43276685D02*
X146254151Y-42705257D01*
X146254151Y-42705257D02*
X146158913Y-42514780D01*
X146158913Y-42514780D02*
X146063675Y-42419542D01*
X146063675Y-42419542D02*
X145873199Y-42324304D01*
X145873199Y-42324304D02*
X145587484Y-42324304D01*
X145587484Y-42324304D02*
X145397008Y-42419542D01*
X145397008Y-42419542D02*
X145301770Y-42514780D01*
X145301770Y-42514780D02*
X145206532Y-42705257D01*
X145206532Y-42705257D02*
X145206532Y-43276685D01*
X145206532Y-43276685D02*
X145301770Y-43467161D01*
X145301770Y-43467161D02*
X145397008Y-43562400D01*
X145397008Y-43562400D02*
X145587484Y-43657638D01*
X145587484Y-43657638D02*
X145873199Y-43657638D01*
X144349389Y-42324304D02*
X144349389Y-43657638D01*
X144349389Y-42514780D02*
X144254151Y-42419542D01*
X144254151Y-42419542D02*
X144063675Y-42324304D01*
X144063675Y-42324304D02*
X143777960Y-42324304D01*
X143777960Y-42324304D02*
X143587484Y-42419542D01*
X143587484Y-42419542D02*
X143492246Y-42610019D01*
X143492246Y-42610019D02*
X143492246Y-43657638D01*
X139968436Y-43657638D02*
X141111293Y-43657638D01*
X140539865Y-43657638D02*
X140539865Y-41657638D01*
X140539865Y-41657638D02*
X140730341Y-41943352D01*
X140730341Y-41943352D02*
X140920817Y-42133828D01*
X140920817Y-42133828D02*
X141111293Y-42229066D01*
X139111293Y-43467161D02*
X139016055Y-43562400D01*
X139016055Y-43562400D02*
X139111293Y-43657638D01*
X139111293Y-43657638D02*
X139206531Y-43562400D01*
X139206531Y-43562400D02*
X139111293Y-43467161D01*
X139111293Y-43467161D02*
X139111293Y-43657638D01*
X137777960Y-41657638D02*
X137587483Y-41657638D01*
X137587483Y-41657638D02*
X137397007Y-41752876D01*
X137397007Y-41752876D02*
X137301769Y-41848114D01*
X137301769Y-41848114D02*
X137206531Y-42038590D01*
X137206531Y-42038590D02*
X137111293Y-42419542D01*
X137111293Y-42419542D02*
X137111293Y-42895733D01*
X137111293Y-42895733D02*
X137206531Y-43276685D01*
X137206531Y-43276685D02*
X137301769Y-43467161D01*
X137301769Y-43467161D02*
X137397007Y-43562400D01*
X137397007Y-43562400D02*
X137587483Y-43657638D01*
X137587483Y-43657638D02*
X137777960Y-43657638D01*
X137777960Y-43657638D02*
X137968436Y-43562400D01*
X137968436Y-43562400D02*
X138063674Y-43467161D01*
X138063674Y-43467161D02*
X138158912Y-43276685D01*
X138158912Y-43276685D02*
X138254150Y-42895733D01*
X138254150Y-42895733D02*
X138254150Y-42419542D01*
X138254150Y-42419542D02*
X138158912Y-42038590D01*
X138158912Y-42038590D02*
X138063674Y-41848114D01*
X138063674Y-41848114D02*
X137968436Y-41752876D01*
X137968436Y-41752876D02*
X137777960Y-41657638D01*
X153397009Y-46897638D02*
X153397009Y-44897638D01*
X153397009Y-44897638D02*
X152730342Y-46326209D01*
X152730342Y-46326209D02*
X152063676Y-44897638D01*
X152063676Y-44897638D02*
X152063676Y-46897638D01*
X150254152Y-46897638D02*
X150254152Y-45850019D01*
X150254152Y-45850019D02*
X150349390Y-45659542D01*
X150349390Y-45659542D02*
X150539866Y-45564304D01*
X150539866Y-45564304D02*
X150920819Y-45564304D01*
X150920819Y-45564304D02*
X151111295Y-45659542D01*
X150254152Y-46802400D02*
X150444628Y-46897638D01*
X150444628Y-46897638D02*
X150920819Y-46897638D01*
X150920819Y-46897638D02*
X151111295Y-46802400D01*
X151111295Y-46802400D02*
X151206533Y-46611923D01*
X151206533Y-46611923D02*
X151206533Y-46421447D01*
X151206533Y-46421447D02*
X151111295Y-46230971D01*
X151111295Y-46230971D02*
X150920819Y-46135733D01*
X150920819Y-46135733D02*
X150444628Y-46135733D01*
X150444628Y-46135733D02*
X150254152Y-46040495D01*
X149492247Y-45564304D02*
X149016057Y-46897638D01*
X148539866Y-45564304D02*
X149016057Y-46897638D01*
X149016057Y-46897638D02*
X149206533Y-47373828D01*
X149206533Y-47373828D02*
X149301771Y-47469066D01*
X149301771Y-47469066D02*
X149492247Y-47564304D01*
X146349389Y-45088114D02*
X146254151Y-44992876D01*
X146254151Y-44992876D02*
X146063675Y-44897638D01*
X146063675Y-44897638D02*
X145587484Y-44897638D01*
X145587484Y-44897638D02*
X145397008Y-44992876D01*
X145397008Y-44992876D02*
X145301770Y-45088114D01*
X145301770Y-45088114D02*
X145206532Y-45278590D01*
X145206532Y-45278590D02*
X145206532Y-45469066D01*
X145206532Y-45469066D02*
X145301770Y-45754780D01*
X145301770Y-45754780D02*
X146444627Y-46897638D01*
X146444627Y-46897638D02*
X145206532Y-46897638D01*
X143968437Y-44897638D02*
X143777960Y-44897638D01*
X143777960Y-44897638D02*
X143587484Y-44992876D01*
X143587484Y-44992876D02*
X143492246Y-45088114D01*
X143492246Y-45088114D02*
X143397008Y-45278590D01*
X143397008Y-45278590D02*
X143301770Y-45659542D01*
X143301770Y-45659542D02*
X143301770Y-46135733D01*
X143301770Y-46135733D02*
X143397008Y-46516685D01*
X143397008Y-46516685D02*
X143492246Y-46707161D01*
X143492246Y-46707161D02*
X143587484Y-46802400D01*
X143587484Y-46802400D02*
X143777960Y-46897638D01*
X143777960Y-46897638D02*
X143968437Y-46897638D01*
X143968437Y-46897638D02*
X144158913Y-46802400D01*
X144158913Y-46802400D02*
X144254151Y-46707161D01*
X144254151Y-46707161D02*
X144349389Y-46516685D01*
X144349389Y-46516685D02*
X144444627Y-46135733D01*
X144444627Y-46135733D02*
X144444627Y-45659542D01*
X144444627Y-45659542D02*
X144349389Y-45278590D01*
X144349389Y-45278590D02*
X144254151Y-45088114D01*
X144254151Y-45088114D02*
X144158913Y-44992876D01*
X144158913Y-44992876D02*
X143968437Y-44897638D01*
X142539865Y-45088114D02*
X142444627Y-44992876D01*
X142444627Y-44992876D02*
X142254151Y-44897638D01*
X142254151Y-44897638D02*
X141777960Y-44897638D01*
X141777960Y-44897638D02*
X141587484Y-44992876D01*
X141587484Y-44992876D02*
X141492246Y-45088114D01*
X141492246Y-45088114D02*
X141397008Y-45278590D01*
X141397008Y-45278590D02*
X141397008Y-45469066D01*
X141397008Y-45469066D02*
X141492246Y-45754780D01*
X141492246Y-45754780D02*
X142635103Y-46897638D01*
X142635103Y-46897638D02*
X141397008Y-46897638D01*
X140730341Y-44897638D02*
X139492246Y-44897638D01*
X139492246Y-44897638D02*
X140158913Y-45659542D01*
X140158913Y-45659542D02*
X139873198Y-45659542D01*
X139873198Y-45659542D02*
X139682722Y-45754780D01*
X139682722Y-45754780D02*
X139587484Y-45850019D01*
X139587484Y-45850019D02*
X139492246Y-46040495D01*
X139492246Y-46040495D02*
X139492246Y-46516685D01*
X139492246Y-46516685D02*
X139587484Y-46707161D01*
X139587484Y-46707161D02*
X139682722Y-46802400D01*
X139682722Y-46802400D02*
X139873198Y-46897638D01*
X139873198Y-46897638D02*
X140444627Y-46897638D01*
X140444627Y-46897638D02*
X140635103Y-46802400D01*
X140635103Y-46802400D02*
X140730341Y-46707161D01*
M02*
