M48
; DRILL file {KiCad 7.0.1} date Sun May  7 16:57:37 2023
; FORMAT={-:-/ absolute / inch / decimal}
; #@! TF.CreationDate,2023-05-07T16:57:37-06:00
; #@! TF.GenerationSoftware,Kicad,Pcbnew,7.0.1
; #@! TF.FileFunction,Plated,1,2,PTH
FMAT,2
INCH
; #@! TA.AperFunction,Plated,PTH,ViaDrill
T1C0.0157
; #@! TA.AperFunction,Plated,PTH,ComponentDrill
T2C0.0315
; #@! TA.AperFunction,Plated,PTH,ComponentDrill
T3C0.0394
; #@! TA.AperFunction,Plated,PTH,ComponentDrill
T4C0.1260
%
G90
G05
T1
X4.194Y-1.853
X4.197Y-2.754
T2
X6.9984Y-2.2932
X7.3984Y-2.2932
T3
X1.839Y-2.31
X1.839Y-2.41
X1.839Y-2.51
X1.839Y-2.61
X1.839Y-2.71
X1.839Y-2.81
X1.839Y-2.91
X1.839Y-3.01
X1.839Y-3.21
X1.839Y-3.31
X1.839Y-3.41
X1.839Y-3.51
X1.839Y-3.61
X1.839Y-3.71
X3.739Y-1.95
X3.739Y-2.05
X3.739Y-2.15
X3.739Y-2.25
X3.739Y-2.35
X3.739Y-2.45
X3.739Y-2.55
X3.739Y-2.65
X3.739Y-2.75
X3.739Y-2.85
X3.739Y-3.01
X3.739Y-3.11
X3.739Y-3.21
X3.739Y-3.31
X3.739Y-3.41
X3.739Y-3.51
X3.739Y-3.61
X3.739Y-3.71
X4.2568Y-1.6542
X4.2568Y-1.7542
X4.2568Y-1.8542
X4.2568Y-1.9542
X4.2568Y-2.0542
X4.2568Y-2.1542
X4.2568Y-2.2542
X4.2568Y-2.3542
X4.2568Y-2.4542
X4.2568Y-2.5542
X4.2568Y-2.6542
X4.2568Y-2.7542
X4.2568Y-2.8542
X4.2568Y-2.9542
X4.2568Y-3.0542
X4.2568Y-3.1542
X4.2568Y-3.2542
X4.2568Y-3.3542
X4.2568Y-3.4542
X4.2568Y-3.5542
X4.2568Y-3.6542
X4.2568Y-3.7542
X4.2568Y-3.8542
X4.2568Y-3.9542
X4.2568Y-4.0542
X4.3568Y-1.6542
X4.3568Y-1.7542
X4.3568Y-1.8542
X4.3568Y-1.9542
X4.3568Y-2.0542
X4.3568Y-2.1542
X4.3568Y-2.2542
X4.3568Y-2.3542
X4.3568Y-2.4542
X4.3568Y-2.5542
X4.3568Y-2.6542
X4.3568Y-2.7542
X4.3568Y-2.8542
X4.3568Y-2.9542
X4.3568Y-3.0542
X4.3568Y-3.1542
X4.3568Y-3.2542
X4.3568Y-3.3542
X4.3568Y-3.4542
X4.3568Y-3.5542
X4.3568Y-3.6542
X4.3568Y-3.7542
X4.3568Y-3.8542
X4.3568Y-3.9542
X4.3568Y-4.0542
X6.2564Y-1.655
X6.2564Y-1.755
X6.2564Y-1.855
X6.2564Y-1.955
X6.2564Y-2.055
X6.2564Y-2.155
X6.2564Y-2.255
X6.2564Y-2.355
X6.2564Y-2.455
X6.2564Y-2.555
X6.2564Y-2.655
X6.2564Y-2.755
X6.2564Y-2.855
X6.2564Y-2.955
X6.2564Y-3.055
X6.2564Y-3.155
X6.2564Y-3.255
X6.2564Y-3.355
X6.2564Y-3.455
X6.2564Y-3.555
X6.2564Y-3.655
X6.2564Y-3.755
X6.2564Y-3.855
X6.2564Y-3.955
X6.2564Y-4.055
X6.3564Y-1.655
X6.3564Y-1.755
X6.3564Y-1.855
X6.3564Y-1.955
X6.3564Y-2.055
X6.3564Y-2.155
X6.3564Y-2.255
X6.3564Y-2.355
X6.3564Y-2.455
X6.3564Y-2.555
X6.3564Y-2.655
X6.3564Y-2.755
X6.3564Y-2.855
X6.3564Y-2.955
X6.3564Y-3.055
X6.3564Y-3.155
X6.3564Y-3.255
X6.3564Y-3.355
X6.3564Y-3.455
X6.3564Y-3.555
X6.3564Y-3.655
X6.3564Y-3.755
X6.3564Y-3.855
X6.3564Y-3.955
X6.3564Y-4.055
X6.7994Y-2.4382
X6.7994Y-2.5382
X6.819Y-3.208
X6.819Y-3.308
X6.819Y-3.408
X6.819Y-3.508
X6.819Y-3.608
X6.819Y-3.708
X6.819Y-3.808
X6.819Y-3.908
X6.8994Y-2.4382
X6.8994Y-2.5382
X6.9994Y-2.4382
X6.9994Y-2.5382
X7.0994Y-2.4382
X7.0994Y-2.5382
T4
X1.916Y-1.687
X1.916Y-4.011
X7.311Y-1.686
X7.311Y-4.011
T0
M30
