%TF.GenerationSoftware,KiCad,Pcbnew,7.0.1*%
%TF.CreationDate,2023-05-07T16:57:40-06:00*%
%TF.ProjectId,Phase_C_STM_Shield,50686173-655f-4435-9f53-544d5f536869,rev?*%
%TF.SameCoordinates,Original*%
%TF.FileFunction,Copper,L1,Top*%
%TF.FilePolarity,Positive*%
%FSLAX46Y46*%
G04 Gerber Fmt 4.6, Leading zero omitted, Abs format (unit mm)*
G04 Created by KiCad (PCBNEW 7.0.1) date 2023-05-07 16:57:40*
%MOMM*%
%LPD*%
G01*
G04 APERTURE LIST*
%TA.AperFunction,ComponentPad*%
%ADD10R,1.700000X1.700000*%
%TD*%
%TA.AperFunction,ComponentPad*%
%ADD11O,1.700000X1.700000*%
%TD*%
%TA.AperFunction,ComponentPad*%
%ADD12C,6.400000*%
%TD*%
%TA.AperFunction,ComponentPad*%
%ADD13C,1.600000*%
%TD*%
%TA.AperFunction,ComponentPad*%
%ADD14O,1.600000X1.600000*%
%TD*%
%TA.AperFunction,ViaPad*%
%ADD15C,0.800000*%
%TD*%
%TA.AperFunction,Conductor*%
%ADD16C,0.203200*%
%TD*%
%TA.AperFunction,Conductor*%
%ADD17C,0.381000*%
%TD*%
G04 APERTURE END LIST*
D10*
%TO.P,J2,1,Pin_1*%
%TO.N,GND*%
X161452400Y-42036200D03*
D11*
%TO.P,J2,2,Pin_2*%
X158912400Y-42036200D03*
%TO.P,J2,3,Pin_3*%
%TO.N,+5V*%
X161452400Y-44576200D03*
%TO.P,J2,4,Pin_4*%
X158912400Y-44576200D03*
%TO.P,J2,5,Pin_5*%
%TO.N,+3V0*%
X161452400Y-47116200D03*
%TO.P,J2,6,Pin_6*%
X158912400Y-47116200D03*
%TO.P,J2,7,Pin_7*%
%TO.N,unconnected-(J2-Pin_7-Pad7)*%
X161452400Y-49656200D03*
%TO.P,J2,8,Pin_8*%
%TO.N,unconnected-(J2-Pin_8-Pad8)*%
X158912400Y-49656200D03*
%TO.P,J2,9,Pin_9*%
%TO.N,unconnected-(J2-Pin_9-Pad9)*%
X161452400Y-52196200D03*
%TO.P,J2,10,Pin_10*%
%TO.N,unconnected-(J2-Pin_10-Pad10)*%
X158912400Y-52196200D03*
%TO.P,J2,11,Pin_11*%
%TO.N,unconnected-(J2-Pin_11-Pad11)*%
X161452400Y-54736200D03*
%TO.P,J2,12,Pin_12*%
%TO.N,unconnected-(J2-Pin_12-Pad12)*%
X158912400Y-54736200D03*
%TO.P,J2,13,Pin_13*%
%TO.N,unconnected-(J2-Pin_13-Pad13)*%
X161452400Y-57276200D03*
%TO.P,J2,14,Pin_14*%
%TO.N,unconnected-(J2-Pin_14-Pad14)*%
X158912400Y-57276200D03*
%TO.P,J2,15,Pin_15*%
%TO.N,unconnected-(J2-Pin_15-Pad15)*%
X161452400Y-59816200D03*
%TO.P,J2,16,Pin_16*%
%TO.N,unconnected-(J2-Pin_16-Pad16)*%
X158912400Y-59816200D03*
%TO.P,J2,17,Pin_17*%
%TO.N,unconnected-(J2-Pin_17-Pad17)*%
X161452400Y-62356200D03*
%TO.P,J2,18,Pin_18*%
%TO.N,unconnected-(J2-Pin_18-Pad18)*%
X158912400Y-62356200D03*
%TO.P,J2,19,Pin_19*%
%TO.N,unconnected-(J2-Pin_19-Pad19)*%
X161452400Y-64896200D03*
%TO.P,J2,20,Pin_20*%
%TO.N,unconnected-(J2-Pin_20-Pad20)*%
X158912400Y-64896200D03*
%TO.P,J2,21,Pin_21*%
%TO.N,unconnected-(J2-Pin_21-Pad21)*%
X161452400Y-67436200D03*
%TO.P,J2,22,Pin_22*%
%TO.N,unconnected-(J2-Pin_22-Pad22)*%
X158912400Y-67436200D03*
%TO.P,J2,23,Pin_23*%
%TO.N,SDA*%
X161452400Y-69976200D03*
%TO.P,J2,24,Pin_24*%
%TO.N,SCL*%
X158912400Y-69976200D03*
%TO.P,J2,25,Pin_25*%
%TO.N,unconnected-(J2-Pin_25-Pad25)*%
X161452400Y-72516200D03*
%TO.P,J2,26,Pin_26*%
%TO.N,unconnected-(J2-Pin_26-Pad26)*%
X158912400Y-72516200D03*
%TO.P,J2,27,Pin_27*%
%TO.N,unconnected-(J2-Pin_27-Pad27)*%
X161452400Y-75056200D03*
%TO.P,J2,28,Pin_28*%
%TO.N,unconnected-(J2-Pin_28-Pad28)*%
X158912400Y-75056200D03*
%TO.P,J2,29,Pin_29*%
%TO.N,unconnected-(J2-Pin_29-Pad29)*%
X161452400Y-77596200D03*
%TO.P,J2,30,Pin_30*%
%TO.N,unconnected-(J2-Pin_30-Pad30)*%
X158912400Y-77596200D03*
%TO.P,J2,31,Pin_31*%
%TO.N,unconnected-(J2-Pin_31-Pad31)*%
X161452400Y-80136200D03*
%TO.P,J2,32,Pin_32*%
%TO.N,unconnected-(J2-Pin_32-Pad32)*%
X158912400Y-80136200D03*
%TO.P,J2,33,Pin_33*%
%TO.N,unconnected-(J2-Pin_33-Pad33)*%
X161452400Y-82676200D03*
%TO.P,J2,34,Pin_34*%
%TO.N,unconnected-(J2-Pin_34-Pad34)*%
X158912400Y-82676200D03*
%TO.P,J2,35,Pin_35*%
%TO.N,INT*%
X161452400Y-85216200D03*
%TO.P,J2,36,Pin_36*%
%TO.N,unconnected-(J2-Pin_36-Pad36)*%
X158912400Y-85216200D03*
%TO.P,J2,37,Pin_37*%
%TO.N,unconnected-(J2-Pin_37-Pad37)*%
X161452400Y-87756200D03*
%TO.P,J2,38,Pin_38*%
%TO.N,unconnected-(J2-Pin_38-Pad38)*%
X158912400Y-87756200D03*
%TO.P,J2,39,Pin_39*%
%TO.N,unconnected-(J2-Pin_39-Pad39)*%
X161452400Y-90296200D03*
%TO.P,J2,40,Pin_40*%
%TO.N,unconnected-(J2-Pin_40-Pad40)*%
X158912400Y-90296200D03*
%TO.P,J2,41,Pin_41*%
%TO.N,unconnected-(J2-Pin_41-Pad41)*%
X161452400Y-92836200D03*
%TO.P,J2,42,Pin_42*%
%TO.N,unconnected-(J2-Pin_42-Pad42)*%
X158912400Y-92836200D03*
%TO.P,J2,43,Pin_43*%
%TO.N,unconnected-(J2-Pin_43-Pad43)*%
X161452400Y-95376200D03*
%TO.P,J2,44,Pin_44*%
%TO.N,unconnected-(J2-Pin_44-Pad44)*%
X158912400Y-95376200D03*
%TO.P,J2,45,Pin_45*%
%TO.N,unconnected-(J2-Pin_45-Pad45)*%
X161452400Y-97916200D03*
%TO.P,J2,46,Pin_46*%
%TO.N,unconnected-(J2-Pin_46-Pad46)*%
X158912400Y-97916200D03*
%TO.P,J2,47,Pin_47*%
%TO.N,unconnected-(J2-Pin_47-Pad47)*%
X161452400Y-100456200D03*
%TO.P,J2,48,Pin_48*%
%TO.N,unconnected-(J2-Pin_48-Pad48)*%
X158912400Y-100456200D03*
%TO.P,J2,49,Pin_49*%
%TO.N,GND*%
X161452400Y-102996200D03*
%TO.P,J2,50,Pin_50*%
X158912400Y-102996200D03*
%TD*%
D12*
%TO.P,H3,1*%
%TO.N,N/C*%
X185699400Y-101879400D03*
%TD*%
D10*
%TO.P,J6,1,Pin_1*%
%TO.N,SH_CP*%
X94970600Y-76454000D03*
D11*
%TO.P,J6,2,Pin_2*%
%TO.N,Buzzer*%
X94970600Y-78994000D03*
%TO.P,J6,3,Pin_3*%
%TO.N,RED_LED*%
X94970600Y-81534000D03*
%TO.P,J6,4,Pin_4*%
%TO.N,GREEN_LED*%
X94970600Y-84074000D03*
%TO.P,J6,5,Pin_5*%
%TO.N,Button_2*%
X94970600Y-86614000D03*
%TO.P,J6,6,Pin_6*%
%TO.N,Button_1*%
X94970600Y-89154000D03*
%TO.P,J6,7,Pin_7*%
%TO.N,unconnected-(J6-Pin_7-Pad7)*%
X94970600Y-91694000D03*
%TO.P,J6,8,Pin_8*%
%TO.N,unconnected-(J6-Pin_8-Pad8)*%
X94970600Y-94234000D03*
%TD*%
D10*
%TO.P,J7,1,Pin_1*%
%TO.N,GND*%
X172704600Y-61930600D03*
D11*
%TO.P,J7,2,Pin_2*%
%TO.N,TX*%
X172704600Y-64470600D03*
%TO.P,J7,3,Pin_3*%
%TO.N,unconnected-(J7-Pin_3-Pad3)*%
X175244600Y-61930600D03*
%TO.P,J7,4,Pin_4*%
%TO.N,+3V0*%
X175244600Y-64470600D03*
%TO.P,J7,5,Pin_5*%
%TO.N,Net-(J7-Pin_5)*%
X177784600Y-61930600D03*
%TO.P,J7,6,Pin_6*%
%TO.N,+3V0*%
X177784600Y-64470600D03*
%TO.P,J7,7,Pin_7*%
%TO.N,RX*%
X180324600Y-61930600D03*
%TO.P,J7,8,Pin_8*%
%TO.N,+3V0*%
X180324600Y-64470600D03*
%TD*%
D10*
%TO.P,J1,1,Pin_1*%
%TO.N,GND*%
X110662400Y-42016200D03*
D11*
%TO.P,J1,2,Pin_2*%
X108122400Y-42016200D03*
%TO.P,J1,3,Pin_3*%
%TO.N,unconnected-(J1-Pin_3-Pad3)*%
X110662400Y-44556200D03*
%TO.P,J1,4,Pin_4*%
%TO.N,unconnected-(J1-Pin_4-Pad4)*%
X108122400Y-44556200D03*
%TO.P,J1,5,Pin_5*%
%TO.N,unconnected-(J1-Pin_5-Pad5)*%
X110662400Y-47096200D03*
%TO.P,J1,6,Pin_6*%
%TO.N,GND*%
X108122400Y-47096200D03*
%TO.P,J1,7,Pin_7*%
%TO.N,unconnected-(J1-Pin_7-Pad7)*%
X110662400Y-49636200D03*
%TO.P,J1,8,Pin_8*%
%TO.N,unconnected-(J1-Pin_8-Pad8)*%
X108122400Y-49636200D03*
%TO.P,J1,9,Pin_9*%
%TO.N,unconnected-(J1-Pin_9-Pad9)*%
X110662400Y-52176200D03*
%TO.P,J1,10,Pin_10*%
%TO.N,unconnected-(J1-Pin_10-Pad10)*%
X108122400Y-52176200D03*
%TO.P,J1,11,Pin_11*%
%TO.N,unconnected-(J1-Pin_11-Pad11)*%
X110662400Y-54716200D03*
%TO.P,J1,12,Pin_12*%
%TO.N,unconnected-(J1-Pin_12-Pad12)*%
X108122400Y-54716200D03*
%TO.P,J1,13,Pin_13*%
%TO.N,RX*%
X110662400Y-57256200D03*
%TO.P,J1,14,Pin_14*%
%TO.N,TX*%
X108122400Y-57256200D03*
%TO.P,J1,15,Pin_15*%
%TO.N,unconnected-(J1-Pin_15-Pad15)*%
X110662400Y-59796200D03*
%TO.P,J1,16,Pin_16*%
%TO.N,unconnected-(J1-Pin_16-Pad16)*%
X108122400Y-59796200D03*
%TO.P,J1,17,Pin_17*%
%TO.N,unconnected-(J1-Pin_17-Pad17)*%
X110662400Y-62336200D03*
%TO.P,J1,18,Pin_18*%
%TO.N,unconnected-(J1-Pin_18-Pad18)*%
X108122400Y-62336200D03*
%TO.P,J1,19,Pin_19*%
%TO.N,unconnected-(J1-Pin_19-Pad19)*%
X110662400Y-64876200D03*
%TO.P,J1,20,Pin_20*%
%TO.N,Dig1*%
X108122400Y-64876200D03*
%TO.P,J1,21,Pin_21*%
%TO.N,unconnected-(J1-Pin_21-Pad21)*%
X110662400Y-67416200D03*
%TO.P,J1,22,Pin_22*%
%TO.N,Dig2*%
X108122400Y-67416200D03*
%TO.P,J1,23,Pin_23*%
%TO.N,unconnected-(J1-Pin_23-Pad23)*%
X110662400Y-69956200D03*
%TO.P,J1,24,Pin_24*%
%TO.N,GND*%
X108122400Y-69956200D03*
%TO.P,J1,25,Pin_25*%
%TO.N,unconnected-(J1-Pin_25-Pad25)*%
X110662400Y-72496200D03*
%TO.P,J1,26,Pin_26*%
%TO.N,Dig3*%
X108122400Y-72496200D03*
%TO.P,J1,27,Pin_27*%
%TO.N,unconnected-(J1-Pin_27-Pad27)*%
X110662400Y-75036200D03*
%TO.P,J1,28,Pin_28*%
%TO.N,Dig4*%
X108122400Y-75036200D03*
%TO.P,J1,29,Pin_29*%
%TO.N,unconnected-(J1-Pin_29-Pad29)*%
X110662400Y-77576200D03*
%TO.P,J1,30,Pin_30*%
%TO.N,DS*%
X108122400Y-77576200D03*
%TO.P,J1,31,Pin_31*%
%TO.N,unconnected-(J1-Pin_31-Pad31)*%
X110662400Y-80116200D03*
%TO.P,J1,32,Pin_32*%
%TO.N,ST_CP*%
X108122400Y-80116200D03*
%TO.P,J1,33,Pin_33*%
%TO.N,unconnected-(J1-Pin_33-Pad33)*%
X110662400Y-82656200D03*
%TO.P,J1,34,Pin_34*%
%TO.N,SH_CP*%
X108122400Y-82656200D03*
%TO.P,J1,35,Pin_35*%
%TO.N,unconnected-(J1-Pin_35-Pad35)*%
X110662400Y-85196200D03*
%TO.P,J1,36,Pin_36*%
%TO.N,Buzzer*%
X108122400Y-85196200D03*
%TO.P,J1,37,Pin_37*%
%TO.N,unconnected-(J1-Pin_37-Pad37)*%
X110662400Y-87736200D03*
%TO.P,J1,38,Pin_38*%
%TO.N,RED_LED*%
X108122400Y-87736200D03*
%TO.P,J1,39,Pin_39*%
%TO.N,unconnected-(J1-Pin_39-Pad39)*%
X110662400Y-90276200D03*
%TO.P,J1,40,Pin_40*%
%TO.N,GREEN_LED*%
X108122400Y-90276200D03*
%TO.P,J1,41,Pin_41*%
%TO.N,unconnected-(J1-Pin_41-Pad41)*%
X110662400Y-92816200D03*
%TO.P,J1,42,Pin_42*%
%TO.N,Button_2*%
X108122400Y-92816200D03*
%TO.P,J1,43,Pin_43*%
%TO.N,unconnected-(J1-Pin_43-Pad43)*%
X110662400Y-95356200D03*
%TO.P,J1,44,Pin_44*%
%TO.N,Button_1*%
X108122400Y-95356200D03*
%TO.P,J1,45,Pin_45*%
%TO.N,unconnected-(J1-Pin_45-Pad45)*%
X110662400Y-97896200D03*
%TO.P,J1,46,Pin_46*%
%TO.N,unconnected-(J1-Pin_46-Pad46)*%
X108122400Y-97896200D03*
%TO.P,J1,47,Pin_47*%
%TO.N,unconnected-(J1-Pin_47-Pad47)*%
X110662400Y-100436200D03*
%TO.P,J1,48,Pin_48*%
%TO.N,unconnected-(J1-Pin_48-Pad48)*%
X108122400Y-100436200D03*
%TO.P,J1,49,Pin_49*%
%TO.N,GND*%
X110662400Y-102976200D03*
%TO.P,J1,50,Pin_50*%
X108122400Y-102976200D03*
%TD*%
D10*
%TO.P,J4,1,Pin_1*%
%TO.N,unconnected-(J4-Pin_1-Pad1)*%
X46710600Y-81534000D03*
D11*
%TO.P,J4,2,Pin_2*%
%TO.N,unconnected-(J4-Pin_2-Pad2)*%
X46710600Y-84074000D03*
%TO.P,J4,3,Pin_3*%
%TO.N,unconnected-(J4-Pin_3-Pad3)*%
X46710600Y-86614000D03*
%TO.P,J4,4,Pin_4*%
%TO.N,unconnected-(J4-Pin_4-Pad4)*%
X46710600Y-89154000D03*
%TO.P,J4,5,Pin_5*%
%TO.N,unconnected-(J4-Pin_5-Pad5)*%
X46710600Y-91694000D03*
%TO.P,J4,6,Pin_6*%
%TO.N,unconnected-(J4-Pin_6-Pad6)*%
X46710600Y-94234000D03*
%TD*%
D10*
%TO.P,J3,1,Pin_1*%
%TO.N,unconnected-(J3-Pin_1-Pad1)*%
X46710600Y-58674000D03*
D11*
%TO.P,J3,2,Pin_2*%
%TO.N,unconnected-(J3-Pin_2-Pad2)*%
X46710600Y-61214000D03*
%TO.P,J3,3,Pin_3*%
%TO.N,unconnected-(J3-Pin_3-Pad3)*%
X46710600Y-63754000D03*
%TO.P,J3,4,Pin_4*%
%TO.N,unconnected-(J3-Pin_4-Pad4)*%
X46710600Y-66294000D03*
%TO.P,J3,5,Pin_5*%
%TO.N,+5V*%
X46710600Y-68834000D03*
%TO.P,J3,6,Pin_6*%
%TO.N,GND*%
X46710600Y-71374000D03*
%TO.P,J3,7,Pin_7*%
X46710600Y-73914000D03*
%TO.P,J3,8,Pin_8*%
%TO.N,unconnected-(J3-Pin_8-Pad8)*%
X46710600Y-76454000D03*
%TD*%
D10*
%TO.P,J5,1,Pin_1*%
%TO.N,unconnected-(J5-Pin_1-Pad1)*%
X94970600Y-49530000D03*
D11*
%TO.P,J5,2,Pin_2*%
%TO.N,unconnected-(J5-Pin_2-Pad2)*%
X94970600Y-52070000D03*
%TO.P,J5,3,Pin_3*%
%TO.N,unconnected-(J5-Pin_3-Pad3)*%
X94970600Y-54610000D03*
%TO.P,J5,4,Pin_4*%
%TO.N,GND*%
X94970600Y-57150000D03*
%TO.P,J5,5,Pin_5*%
%TO.N,Dig1*%
X94970600Y-59690000D03*
%TO.P,J5,6,Pin_6*%
%TO.N,Dig2*%
X94970600Y-62230000D03*
%TO.P,J5,7,Pin_7*%
%TO.N,Dig3*%
X94970600Y-64770000D03*
%TO.P,J5,8,Pin_8*%
%TO.N,Dig4*%
X94970600Y-67310000D03*
%TO.P,J5,9,Pin_9*%
%TO.N,DS*%
X94970600Y-69850000D03*
%TO.P,J5,10,Pin_10*%
%TO.N,ST_CP*%
X94970600Y-72390000D03*
%TD*%
D13*
%TO.P,R1,1*%
%TO.N,+3V0*%
X187919200Y-58247600D03*
D14*
%TO.P,R1,2*%
%TO.N,Net-(J7-Pin_5)*%
X177759200Y-58247600D03*
%TD*%
D12*
%TO.P,H4,1*%
%TO.N,N/C*%
X48666400Y-101879400D03*
%TD*%
%TO.P,H1,1*%
%TO.N,N/C*%
X48666400Y-42849800D03*
%TD*%
D10*
%TO.P,J8,1,Pin_1*%
%TO.N,+5V*%
X173202600Y-81483200D03*
D11*
%TO.P,J8,2,Pin_2*%
%TO.N,GND*%
X173202600Y-84023200D03*
%TO.P,J8,3,Pin_3*%
%TO.N,SCL*%
X173202600Y-86563200D03*
%TO.P,J8,4,Pin_4*%
%TO.N,SDA*%
X173202600Y-89103200D03*
%TO.P,J8,5,Pin_5*%
%TO.N,unconnected-(J8-Pin_5-Pad5)*%
X173202600Y-91643200D03*
%TO.P,J8,6,Pin_6*%
%TO.N,unconnected-(J8-Pin_6-Pad6)*%
X173202600Y-94183200D03*
%TO.P,J8,7,Pin_7*%
%TO.N,unconnected-(J8-Pin_7-Pad7)*%
X173202600Y-96723200D03*
%TO.P,J8,8,Pin_8*%
%TO.N,INT*%
X173202600Y-99263200D03*
%TD*%
D12*
%TO.P,H2,1*%
%TO.N,N/C*%
X185699400Y-42824400D03*
%TD*%
D15*
%TO.N,GND*%
X106603800Y-69951600D03*
X106527600Y-47066200D03*
%TD*%
D16*
%TO.N,Dig1*%
X100156800Y-64876200D02*
X108122400Y-64876200D01*
X94970600Y-59690000D02*
X100156800Y-64876200D01*
%TO.N,Dig2*%
X94970600Y-62230000D02*
X100156800Y-67416200D01*
X100156800Y-67416200D02*
X108122400Y-67416200D01*
%TO.N,Dig3*%
X102696800Y-72496200D02*
X108122400Y-72496200D01*
X94970600Y-64770000D02*
X102696800Y-72496200D01*
%TO.N,Buzzer*%
X101172800Y-85196200D02*
X108122400Y-85196200D01*
X94970600Y-78994000D02*
X101172800Y-85196200D01*
D17*
%TO.N,GND*%
X106608400Y-69956200D02*
X106603800Y-69951600D01*
X108122400Y-69956200D02*
X106608400Y-69956200D01*
D16*
X106557600Y-47096200D02*
X106527600Y-47066200D01*
X108122400Y-47096200D02*
X106557600Y-47096200D01*
%TO.N,Dig4*%
X102696800Y-75036200D02*
X94970600Y-67310000D01*
X108122400Y-75036200D02*
X102696800Y-75036200D01*
%TO.N,DS*%
X108122400Y-77576200D02*
X102696800Y-77576200D01*
X102696800Y-77576200D02*
X94970600Y-69850000D01*
%TO.N,ST_CP*%
X108122400Y-80116200D02*
X102696800Y-80116200D01*
X102696800Y-80116200D02*
X94970600Y-72390000D01*
%TO.N,SH_CP*%
X101172800Y-82656200D02*
X94970600Y-76454000D01*
X108122400Y-82656200D02*
X101172800Y-82656200D01*
%TO.N,RED_LED*%
X101172800Y-87736200D02*
X94970600Y-81534000D01*
X108122400Y-87736200D02*
X101172800Y-87736200D01*
%TO.N,GREEN_LED*%
X101172800Y-90276200D02*
X94970600Y-84074000D01*
X108122400Y-90276200D02*
X101172800Y-90276200D01*
%TO.N,Button_2*%
X101172800Y-92816200D02*
X94970600Y-86614000D01*
X108122400Y-92816200D02*
X101172800Y-92816200D01*
%TO.N,Button_1*%
X101172800Y-95356200D02*
X94970600Y-89154000D01*
X108122400Y-95356200D02*
X101172800Y-95356200D01*
D17*
%TO.N,+5V*%
X46710600Y-68834000D02*
X50673000Y-68834000D01*
X173202600Y-81483200D02*
X187909200Y-81483200D01*
X60858400Y-38049200D02*
X163322000Y-38049200D01*
X189509400Y-48615600D02*
X170535600Y-48615600D01*
X170535600Y-48615600D02*
X164871400Y-42951400D01*
X50673000Y-68834000D02*
X55422800Y-64084200D01*
X163246600Y-44576200D02*
X161452400Y-44576200D01*
X164871400Y-39598600D02*
X164871400Y-42951400D01*
X163322000Y-38049200D02*
X164871400Y-39598600D01*
X190576200Y-78816200D02*
X190576200Y-49682400D01*
X190576200Y-49682400D02*
X189509400Y-48615600D01*
X55422800Y-64084200D02*
X55422800Y-43484800D01*
X55422800Y-43484800D02*
X60858400Y-38049200D01*
X164871400Y-42951400D02*
X163246600Y-44576200D01*
X158912400Y-44576200D02*
X161452400Y-44576200D01*
X187909200Y-81483200D02*
X190576200Y-78816200D01*
%TO.N,+3V0*%
X180324600Y-64470600D02*
X186456000Y-64470600D01*
X165023800Y-47091600D02*
X168173400Y-50241200D01*
X161452400Y-47116200D02*
X164999200Y-47116200D01*
X175244600Y-64470600D02*
X177784600Y-64470600D01*
X186456000Y-64470600D02*
X187960000Y-62966600D01*
X187919200Y-52943600D02*
X187919200Y-58247600D01*
X177784600Y-64470600D02*
X180324600Y-64470600D01*
X164999200Y-47116200D02*
X165023800Y-47091600D01*
X187960000Y-62966600D02*
X187919200Y-62925800D01*
X187919200Y-62925800D02*
X187919200Y-58247600D01*
X185216800Y-50241200D02*
X187919200Y-52943600D01*
X161452400Y-47116200D02*
X158912400Y-47116200D01*
X168173400Y-50241200D02*
X185216800Y-50241200D01*
D16*
%TO.N,SDA*%
X166928800Y-89103200D02*
X165201600Y-87376000D01*
X165201600Y-87376000D02*
X165201600Y-70434200D01*
X164743600Y-69976200D02*
X161452400Y-69976200D01*
X173202600Y-89103200D02*
X166928800Y-89103200D01*
X165201600Y-70434200D02*
X164743600Y-69976200D01*
%TO.N,SCL*%
X158912400Y-69976200D02*
X156947400Y-69976200D01*
X155905200Y-104673400D02*
X156794200Y-105562400D01*
X176885600Y-103327200D02*
X176885600Y-87833200D01*
X156947400Y-69976200D02*
X155905200Y-71018400D01*
X175615600Y-86563200D02*
X173202600Y-86563200D01*
X155905200Y-71018400D02*
X155905200Y-104673400D01*
X174650400Y-105562400D02*
X176885600Y-103327200D01*
X156794200Y-105562400D02*
X174650400Y-105562400D01*
X176885600Y-87833200D02*
X175615600Y-86563200D01*
%TO.N,RX*%
X113203200Y-57256200D02*
X114477800Y-55981600D01*
X180324600Y-57388600D02*
X180324600Y-61930600D01*
X110662400Y-57256200D02*
X113203200Y-57256200D01*
X114477800Y-55981600D02*
X178917600Y-55981600D01*
X178917600Y-55981600D02*
X180324600Y-57388600D01*
%TO.N,TX*%
X118745000Y-63576200D02*
X168071800Y-63576200D01*
X109016800Y-58547000D02*
X113715800Y-58547000D01*
X108122400Y-57652600D02*
X109016800Y-58547000D01*
X168966200Y-64470600D02*
X172704600Y-64470600D01*
X113715800Y-58547000D02*
X113906300Y-58737500D01*
X108122400Y-57256200D02*
X108122400Y-57779600D01*
X168071800Y-63576200D02*
X168966200Y-64470600D01*
X108122400Y-57256200D02*
X108122400Y-57652600D01*
X113906300Y-58737500D02*
X118745000Y-63576200D01*
%TO.N,Net-(J7-Pin_5)*%
X177784600Y-58273000D02*
X177759200Y-58247600D01*
X177784600Y-61930600D02*
X177784600Y-58273000D01*
%TO.N,INT*%
X161452400Y-85216200D02*
X163575200Y-85216200D01*
X163982400Y-85623400D02*
X163982400Y-96850200D01*
X163982400Y-96850200D02*
X166395400Y-99263200D01*
X163575200Y-85216200D02*
X163982400Y-85623400D01*
X166395400Y-99263200D02*
X173202600Y-99263200D01*
%TD*%
M02*
