M48
; DRILL file {KiCad 7.0.1} date Mon May 22 01:14:15 2023
; FORMAT={-:-/ absolute / inch / decimal}
; #@! TF.CreationDate,2023-05-22T01:14:15-06:00
; #@! TF.GenerationSoftware,Kicad,Pcbnew,7.0.1
; #@! TF.FileFunction,Plated,1,2,PTH
FMAT,2
INCH
; #@! TA.AperFunction,Plated,PTH,ViaDrill
T1C0.0157
; #@! TA.AperFunction,Plated,PTH,ComponentDrill
T2C0.0394
; #@! TA.AperFunction,Plated,PTH,ComponentDrill
T3C0.0472
; #@! TA.AperFunction,Plated,PTH,ComponentDrill
T4C0.0512
%
G90
G05
T1
X4.395Y-2.1652
X4.477Y-2.537
X4.477Y-2.627
X4.517Y-2.537
X4.517Y-2.627
X4.537Y-2.037
X4.537Y-2.097
X4.537Y-2.137
X4.5468Y-3.0357
X4.557Y-2.537
X4.557Y-2.627
X4.557Y-2.707
X4.557Y-2.877
X4.6072Y-2.4651
X4.617Y-2.037
X4.697Y-2.097
X4.737Y-2.117
X4.897Y-2.567
X4.897Y-2.627
X4.897Y-2.707
X4.897Y-2.767
X5.0557Y-2.417
X5.0749Y-2.5569
X5.0847Y-2.9155
X5.1068Y-3.1184
X5.227Y-2.737
X5.227Y-2.937
X5.2636Y-2.4077
X5.287Y-2.127
X5.287Y-2.157
X5.287Y-2.547
X5.287Y-2.587
X5.287Y-3.077
X5.287Y-3.117
X5.327Y-2.127
X5.327Y-2.157
X5.327Y-2.547
X5.327Y-2.587
X5.327Y-3.077
X5.327Y-3.117
X5.367Y-2.127
X5.367Y-2.157
X5.367Y-2.547
X5.367Y-2.587
X5.367Y-3.077
X5.367Y-3.117
X5.4069Y-3.1164
X5.407Y-2.127
X5.407Y-2.157
X5.407Y-2.547
X5.407Y-2.587
X5.407Y-3.077
X5.447Y-2.127
X5.447Y-2.157
X5.447Y-2.547
X5.447Y-2.587
X5.447Y-3.077
X5.447Y-3.117
X5.897Y-3.177
X5.897Y-3.217
X5.937Y-3.217
X5.9378Y-3.1767
X5.977Y-3.177
X5.977Y-3.217
X5.9823Y-3.2645
X6.017Y-3.177
X6.017Y-3.217
X6.387Y-3.177
X6.387Y-3.217
X6.387Y-3.257
X6.387Y-3.297
X6.387Y-3.337
X6.437Y-3.177
X6.437Y-3.217
X6.437Y-3.257
X6.437Y-3.297
X6.437Y-3.337
X6.487Y-3.177
X6.487Y-3.217
X6.487Y-3.257
X6.487Y-3.297
X6.487Y-3.337
X6.537Y-3.177
X6.537Y-3.217
X6.537Y-3.257
X6.537Y-3.297
X6.537Y-3.337
T2
X4.207Y-2.177
X4.207Y-2.277
X4.207Y-2.377
X4.207Y-2.477
X4.207Y-2.797
X4.207Y-2.897
X4.207Y-2.997
X4.207Y-3.097
X4.207Y-3.197
X4.207Y-3.297
X4.307Y-2.177
X4.307Y-2.277
X4.307Y-2.377
X4.307Y-2.477
X4.307Y-2.797
X4.307Y-2.897
X4.307Y-2.997
X4.307Y-3.097
X4.307Y-3.197
X4.307Y-3.297
X4.6668Y-2.1876
X4.6668Y-2.2876
X4.6668Y-2.3876
X4.6668Y-2.7476
X4.6668Y-2.8476
X4.6668Y-2.9476
X4.677Y-1.937
X4.7668Y-2.1876
X4.7668Y-2.2876
X4.7668Y-2.3876
X4.7668Y-2.7476
X4.7668Y-2.8476
X4.7668Y-2.9476
X4.777Y-1.937
X4.877Y-1.937
X4.977Y-1.937
X5.037Y-3.837
X5.077Y-1.937
X5.137Y-3.837
X5.177Y-1.937
X5.237Y-3.837
X5.277Y-1.937
X5.337Y-3.837
X5.377Y-1.937
X5.437Y-3.837
X5.477Y-1.937
X5.537Y-3.837
X5.577Y-1.937
X5.637Y-3.837
X5.737Y-1.937
X5.737Y-3.837
X5.837Y-1.937
X5.937Y-1.937
X5.937Y-3.837
X6.037Y-1.937
X6.037Y-3.837
X6.137Y-1.937
X6.137Y-3.837
X6.237Y-1.937
X6.237Y-3.837
X6.337Y-1.937
X6.337Y-3.837
X6.437Y-1.937
X6.437Y-3.837
T3
X4.6552Y-3.387
X5.6788Y-3.387
T4
X6.187Y-2.5386
X6.187Y-2.7354
X6.197Y-3.2786
X6.197Y-3.4754
T0
M30
