%TF.GenerationSoftware,KiCad,Pcbnew,7.0.1*%
%TF.CreationDate,2023-05-22T01:14:16-06:00*%
%TF.ProjectId,MegaMoto_Driver_Shield,4d656761-4d6f-4746-9f5f-447269766572,rev?*%
%TF.SameCoordinates,Original*%
%TF.FileFunction,Soldermask,Bot*%
%TF.FilePolarity,Negative*%
%FSLAX46Y46*%
G04 Gerber Fmt 4.6, Leading zero omitted, Abs format (unit mm)*
G04 Created by KiCad (PCBNEW 7.0.1) date 2023-05-22 01:14:16*
%MOMM*%
%LPD*%
G01*
G04 APERTURE LIST*
%ADD10R,1.700000X1.700000*%
%ADD11O,1.700000X1.700000*%
%ADD12R,2.500000X2.500000*%
%ADD13C,2.500000*%
%ADD14R,2.400000X2.400000*%
%ADD15O,2.400000X2.400000*%
G04 APERTURE END LIST*
D10*
%TO.C,J1*%
X127940000Y-97460000D03*
D11*
X130480000Y-97460000D03*
X133020000Y-97460000D03*
X135560000Y-97460000D03*
X138100000Y-97460000D03*
X140640000Y-97460000D03*
X143180000Y-97460000D03*
X145720000Y-97460000D03*
%TD*%
D10*
%TO.C,J3*%
X150800000Y-97460000D03*
D11*
X153340000Y-97460000D03*
X155880000Y-97460000D03*
X158420000Y-97460000D03*
X160960000Y-97460000D03*
X163500000Y-97460000D03*
%TD*%
D10*
%TO.C,J2*%
X118796000Y-49200000D03*
D11*
X121336000Y-49200000D03*
X123876000Y-49200000D03*
X126416000Y-49200000D03*
X128956000Y-49200000D03*
X131496000Y-49200000D03*
X134036000Y-49200000D03*
X136576000Y-49200000D03*
X139116000Y-49200000D03*
X141656000Y-49200000D03*
%TD*%
D10*
%TO.C,J4*%
X145720000Y-49200000D03*
D11*
X148260000Y-49200000D03*
X150800000Y-49200000D03*
X153340000Y-49200000D03*
X155880000Y-49200000D03*
X158420000Y-49200000D03*
X160960000Y-49200000D03*
X163500000Y-49200000D03*
%TD*%
D12*
%TO.C,J7*%
X157150000Y-69480000D03*
D13*
X157150000Y-64480000D03*
%TD*%
D10*
%TO.C,J8*%
X118537000Y-69789000D03*
D11*
X121077000Y-69789000D03*
X118537000Y-72329000D03*
X121077000Y-72329000D03*
X118537000Y-74869000D03*
X121077000Y-74869000D03*
%TD*%
D10*
%TO.C,J5*%
X106858000Y-55296000D03*
D11*
X109398000Y-55296000D03*
X106858000Y-57836000D03*
X109398000Y-57836000D03*
X106858000Y-60376000D03*
X109398000Y-60376000D03*
X106858000Y-62916000D03*
X109398000Y-62916000D03*
%TD*%
D10*
%TO.C,J10*%
X106858000Y-71044000D03*
D11*
X109398000Y-71044000D03*
X106858000Y-73584000D03*
X109398000Y-73584000D03*
X106858000Y-76124000D03*
X109398000Y-76124000D03*
X106858000Y-78664000D03*
X109398000Y-78664000D03*
X106858000Y-81204000D03*
X109398000Y-81204000D03*
X106858000Y-83744000D03*
X109398000Y-83744000D03*
%TD*%
D14*
%TO.C,C3*%
X144242000Y-86030000D03*
D15*
X118242000Y-86030000D03*
%TD*%
D11*
%TO.C,J9*%
X121077000Y-60645000D03*
X118537000Y-60645000D03*
X121077000Y-58105000D03*
X118537000Y-58105000D03*
X121077000Y-55565000D03*
D10*
X118537000Y-55565000D03*
%TD*%
D12*
%TO.C,J6*%
X157404000Y-88276000D03*
D13*
X157404000Y-83276000D03*
%TD*%
M02*
