%TF.GenerationSoftware,KiCad,Pcbnew,7.0.1*%
%TF.CreationDate,2023-05-22T01:14:16-06:00*%
%TF.ProjectId,MegaMoto_Driver_Shield,4d656761-4d6f-4746-9f5f-447269766572,rev?*%
%TF.SameCoordinates,Original*%
%TF.FileFunction,Copper,L2,Bot*%
%TF.FilePolarity,Positive*%
%FSLAX46Y46*%
G04 Gerber Fmt 4.6, Leading zero omitted, Abs format (unit mm)*
G04 Created by KiCad (PCBNEW 7.0.1) date 2023-05-22 01:14:16*
%MOMM*%
%LPD*%
G01*
G04 APERTURE LIST*
%TA.AperFunction,ComponentPad*%
%ADD10R,1.700000X1.700000*%
%TD*%
%TA.AperFunction,ComponentPad*%
%ADD11O,1.700000X1.700000*%
%TD*%
%TA.AperFunction,ComponentPad*%
%ADD12R,2.500000X2.500000*%
%TD*%
%TA.AperFunction,ComponentPad*%
%ADD13C,2.500000*%
%TD*%
%TA.AperFunction,ComponentPad*%
%ADD14R,2.400000X2.400000*%
%TD*%
%TA.AperFunction,ComponentPad*%
%ADD15O,2.400000X2.400000*%
%TD*%
%TA.AperFunction,ViaPad*%
%ADD16C,0.600000*%
%TD*%
%TA.AperFunction,Conductor*%
%ADD17C,0.254000*%
%TD*%
G04 APERTURE END LIST*
D10*
%TO.P,J1,1,Pin_1*%
%TO.N,unconnected-(J1-Pin_1-Pad1)*%
X127940000Y-97460000D03*
D11*
%TO.P,J1,2,Pin_2*%
%TO.N,unconnected-(J1-Pin_2-Pad2)*%
X130480000Y-97460000D03*
%TO.P,J1,3,Pin_3*%
%TO.N,unconnected-(J1-Pin_3-Pad3)*%
X133020000Y-97460000D03*
%TO.P,J1,4,Pin_4*%
%TO.N,unconnected-(J1-Pin_4-Pad4)*%
X135560000Y-97460000D03*
%TO.P,J1,5,Pin_5*%
%TO.N,+5V*%
X138100000Y-97460000D03*
%TO.P,J1,6,Pin_6*%
%TO.N,GND*%
X140640000Y-97460000D03*
%TO.P,J1,7,Pin_7*%
X143180000Y-97460000D03*
%TO.P,J1,8,Pin_8*%
%TO.N,unconnected-(J1-Pin_8-Pad8)*%
X145720000Y-97460000D03*
%TD*%
D10*
%TO.P,J3,1,Pin_1*%
%TO.N,A0*%
X150800000Y-97460000D03*
D11*
%TO.P,J3,2,Pin_2*%
%TO.N,A1*%
X153340000Y-97460000D03*
%TO.P,J3,3,Pin_3*%
%TO.N,A2*%
X155880000Y-97460000D03*
%TO.P,J3,4,Pin_4*%
%TO.N,A3*%
X158420000Y-97460000D03*
%TO.P,J3,5,Pin_5*%
%TO.N,A4*%
X160960000Y-97460000D03*
%TO.P,J3,6,Pin_6*%
%TO.N,A5*%
X163500000Y-97460000D03*
%TD*%
D10*
%TO.P,J2,1,Pin_1*%
%TO.N,unconnected-(J2-Pin_1-Pad1)*%
X118796000Y-49200000D03*
D11*
%TO.P,J2,2,Pin_2*%
%TO.N,unconnected-(J2-Pin_2-Pad2)*%
X121336000Y-49200000D03*
%TO.P,J2,3,Pin_3*%
%TO.N,unconnected-(J2-Pin_3-Pad3)*%
X123876000Y-49200000D03*
%TO.P,J2,4,Pin_4*%
%TO.N,GND*%
X126416000Y-49200000D03*
%TO.P,J2,5,Pin_5*%
%TO.N,D13*%
X128956000Y-49200000D03*
%TO.P,J2,6,Pin_6*%
%TO.N,D12*%
X131496000Y-49200000D03*
%TO.P,J2,7,Pin_7*%
%TO.N,PWM11*%
X134036000Y-49200000D03*
%TO.P,J2,8,Pin_8*%
%TO.N,PWM10*%
X136576000Y-49200000D03*
%TO.P,J2,9,Pin_9*%
%TO.N,PWM9*%
X139116000Y-49200000D03*
%TO.P,J2,10,Pin_10*%
%TO.N,D8*%
X141656000Y-49200000D03*
%TD*%
D10*
%TO.P,J4,1,Pin_1*%
%TO.N,unconnected-(J4-Pin_1-Pad1)*%
X145720000Y-49200000D03*
D11*
%TO.P,J4,2,Pin_2*%
%TO.N,PWM6*%
X148260000Y-49200000D03*
%TO.P,J4,3,Pin_3*%
%TO.N,PWM5*%
X150800000Y-49200000D03*
%TO.P,J4,4,Pin_4*%
%TO.N,unconnected-(J4-Pin_4-Pad4)*%
X153340000Y-49200000D03*
%TO.P,J4,5,Pin_5*%
%TO.N,PWM3*%
X155880000Y-49200000D03*
%TO.P,J4,6,Pin_6*%
%TO.N,unconnected-(J4-Pin_6-Pad6)*%
X158420000Y-49200000D03*
%TO.P,J4,7,Pin_7*%
%TO.N,unconnected-(J4-Pin_7-Pad7)*%
X160960000Y-49200000D03*
%TO.P,J4,8,Pin_8*%
%TO.N,unconnected-(J4-Pin_8-Pad8)*%
X163500000Y-49200000D03*
%TD*%
D12*
%TO.P,J7,1,Pin_1*%
%TO.N,OUT_B*%
X157150000Y-69480000D03*
D13*
%TO.P,J7,2,Pin_2*%
%TO.N,OUT_A*%
X157150000Y-64480000D03*
%TD*%
D10*
%TO.P,J8,1,Pin_1*%
%TO.N,PWM5*%
X118537000Y-69789000D03*
D11*
%TO.P,J8,2,Pin_2*%
%TO.N,/PWM-B*%
X121077000Y-69789000D03*
%TO.P,J8,3,Pin_3*%
%TO.N,PWM10*%
X118537000Y-72329000D03*
%TO.P,J8,4,Pin_4*%
%TO.N,/PWM-B*%
X121077000Y-72329000D03*
%TO.P,J8,5,Pin_5*%
%TO.N,PWM3*%
X118537000Y-74869000D03*
%TO.P,J8,6,Pin_6*%
%TO.N,/PWM-B*%
X121077000Y-74869000D03*
%TD*%
D10*
%TO.P,J5,1,Pin_1*%
%TO.N,D13*%
X106858000Y-55296000D03*
D11*
%TO.P,J5,2,Pin_2*%
%TO.N,ENABLE*%
X109398000Y-55296000D03*
%TO.P,J5,3,Pin_3*%
%TO.N,D12*%
X106858000Y-57836000D03*
%TO.P,J5,4,Pin_4*%
%TO.N,ENABLE*%
X109398000Y-57836000D03*
%TO.P,J5,5,Pin_5*%
%TO.N,D8*%
X106858000Y-60376000D03*
%TO.P,J5,6,Pin_6*%
%TO.N,ENABLE*%
X109398000Y-60376000D03*
%TO.P,J5,7,Pin_7*%
%TO.N,+5V*%
X106858000Y-62916000D03*
%TO.P,J5,8,Pin_8*%
%TO.N,ENABLE*%
X109398000Y-62916000D03*
%TD*%
D10*
%TO.P,J10,1,Pin_1*%
%TO.N,A0*%
X106858000Y-71044000D03*
D11*
%TO.P,J10,2,Pin_2*%
%TO.N,CURR-B*%
X109398000Y-71044000D03*
%TO.P,J10,3,Pin_3*%
%TO.N,A1*%
X106858000Y-73584000D03*
%TO.P,J10,4,Pin_4*%
%TO.N,CURR-B*%
X109398000Y-73584000D03*
%TO.P,J10,5,Pin_5*%
%TO.N,A2*%
X106858000Y-76124000D03*
%TO.P,J10,6,Pin_6*%
%TO.N,CURR-B*%
X109398000Y-76124000D03*
%TO.P,J10,7,Pin_7*%
%TO.N,A3*%
X106858000Y-78664000D03*
%TO.P,J10,8,Pin_8*%
%TO.N,CURR-A*%
X109398000Y-78664000D03*
%TO.P,J10,9,Pin_9*%
%TO.N,A4*%
X106858000Y-81204000D03*
%TO.P,J10,10,Pin_10*%
%TO.N,CURR-A*%
X109398000Y-81204000D03*
%TO.P,J10,11,Pin_11*%
%TO.N,A5*%
X106858000Y-83744000D03*
%TO.P,J10,12,Pin_12*%
%TO.N,CURR-A*%
X109398000Y-83744000D03*
%TD*%
D14*
%TO.P,C3,1*%
%TO.N,VCC*%
X144242000Y-86030000D03*
D15*
%TO.P,C3,2*%
%TO.N,GND*%
X118242000Y-86030000D03*
%TD*%
D11*
%TO.P,J9,6,Pin_6*%
%TO.N,/PWM-A*%
X121077000Y-60645000D03*
%TO.P,J9,5,Pin_5*%
%TO.N,PWM11*%
X118537000Y-60645000D03*
%TO.P,J9,4,Pin_4*%
%TO.N,/PWM-A*%
X121077000Y-58105000D03*
%TO.P,J9,3,Pin_3*%
%TO.N,PWM9*%
X118537000Y-58105000D03*
%TO.P,J9,2,Pin_2*%
%TO.N,/PWM-A*%
X121077000Y-55565000D03*
D10*
%TO.P,J9,1,Pin_1*%
%TO.N,PWM6*%
X118537000Y-55565000D03*
%TD*%
D12*
%TO.P,J6,1,Pin_1*%
%TO.N,VCC*%
X157404000Y-88276000D03*
D13*
%TO.P,J6,2,Pin_2*%
%TO.N,GND*%
X157404000Y-83276000D03*
%TD*%
D16*
%TO.N,GND*%
X132766000Y-69520000D03*
X132766000Y-74600000D03*
%TO.N,VCC*%
X138354000Y-79172000D03*
X137334395Y-79156861D03*
X136322000Y-79172000D03*
X135306000Y-79172000D03*
X134290000Y-79172000D03*
X138354000Y-78156000D03*
X137338000Y-78156000D03*
X136322000Y-78156000D03*
X135306000Y-78156000D03*
X134290000Y-78156000D03*
%TO.N,GND*%
X117021951Y-62613912D03*
%TO.N,PWM3*%
X115748000Y-73076000D03*
X115748000Y-68758000D03*
X115748000Y-66726000D03*
X115748000Y-64440000D03*
X115240000Y-54280000D03*
%TO.N,PWM5*%
X114732000Y-66726000D03*
%TO.N,PWM3*%
X120320000Y-53772000D03*
%TO.N,PWM5*%
X114732000Y-64440000D03*
X115240000Y-53264000D03*
X119304000Y-53264000D03*
%TO.N,PWM10*%
X113716000Y-64440000D03*
X115240000Y-51740000D03*
X113716000Y-66726000D03*
X117272000Y-51740000D03*
%TO.N,ENABLE*%
X124384000Y-65202000D03*
X124384000Y-66726000D03*
X124384000Y-70282000D03*
X124384000Y-68758000D03*
%TO.N,GND*%
X129150725Y-74052483D03*
X151950810Y-82917486D03*
X133694636Y-61154901D03*
X166040000Y-84760000D03*
X163500000Y-84760000D03*
X162230000Y-84760000D03*
X164770000Y-84760000D03*
X166040000Y-83744000D03*
X163500000Y-83744000D03*
X162230000Y-83744000D03*
X164770000Y-83744000D03*
X166040000Y-82728000D03*
X163500000Y-82728000D03*
X162230000Y-82728000D03*
X164770000Y-82728000D03*
X166040000Y-81712000D03*
X164770000Y-81712000D03*
X163500000Y-81712000D03*
X162230000Y-81712000D03*
X166040000Y-80696000D03*
X164770000Y-80696000D03*
X163500000Y-80696000D03*
X162230000Y-80696000D03*
X152832000Y-80696000D03*
X151816000Y-80696000D03*
X150819465Y-80687468D03*
X149784000Y-80696000D03*
X152832000Y-81712000D03*
X151816000Y-81712000D03*
X150800000Y-81712000D03*
X149784000Y-81712000D03*
X129711511Y-79207564D03*
X115488713Y-77106865D03*
X111634256Y-54996342D03*
X128903311Y-64946243D03*
X128413968Y-61391338D03*
%TO.N,VCC*%
X138354000Y-65710000D03*
X137338000Y-65710000D03*
X136322000Y-65710000D03*
X135306000Y-65710000D03*
X134290000Y-65710000D03*
X138354000Y-64694000D03*
X137338000Y-64694000D03*
X136322000Y-64694000D03*
X135306000Y-64694000D03*
X134290000Y-64694000D03*
%TO.N,GND*%
X138354000Y-54026000D03*
X137338000Y-54026000D03*
X136322000Y-54026000D03*
X135306000Y-54026000D03*
X134290000Y-54788000D03*
X135306000Y-54788000D03*
X136322000Y-54788000D03*
X137338000Y-54788000D03*
X138354000Y-54788000D03*
X134290000Y-54026000D03*
%TD*%
D17*
%TO.N,PWM3*%
X115748000Y-68758000D02*
X115748000Y-73076000D01*
%TO.N,PWM5*%
X114732000Y-64440000D02*
X114732000Y-66726000D01*
%TO.N,PWM3*%
X115748000Y-64440000D02*
X115748000Y-66726000D01*
X117780000Y-54026000D02*
X115494000Y-54026000D01*
X115494000Y-54026000D02*
X115240000Y-54280000D01*
X117780000Y-54026000D02*
X117526000Y-54026000D01*
X120066000Y-54026000D02*
X117780000Y-54026000D01*
%TO.N,PWM10*%
X113716000Y-64440000D02*
X113716000Y-66726000D01*
%TO.N,PWM3*%
X120320000Y-53772000D02*
X120066000Y-54026000D01*
%TO.N,PWM5*%
X119304000Y-53264000D02*
X115240000Y-53264000D01*
%TO.N,PWM10*%
X117272000Y-51740000D02*
X115240000Y-51740000D01*
%TO.N,ENABLE*%
X124384000Y-66726000D02*
X124384000Y-65202000D01*
X124384000Y-70282000D02*
X124384000Y-68758000D01*
%TD*%
%TA.AperFunction,Conductor*%
%TO.N,GND*%
G36*
X163464818Y-46744939D02*
G01*
X163505046Y-46771819D01*
X165928181Y-49194954D01*
X165955061Y-49235182D01*
X165964500Y-49282635D01*
X165964500Y-59315015D01*
X165961962Y-59334287D01*
X165964028Y-59357896D01*
X165964500Y-59368703D01*
X165964500Y-59381116D01*
X165967075Y-59392733D01*
X165967182Y-59393956D01*
X165971651Y-59403541D01*
X165978451Y-59411644D01*
X165978452Y-59411645D01*
X165979500Y-59412250D01*
X166005185Y-59431958D01*
X168468181Y-61894954D01*
X168495061Y-61935182D01*
X168504500Y-61982635D01*
X168504500Y-96107364D01*
X168495061Y-96154817D01*
X168468181Y-96195045D01*
X166018418Y-98644806D01*
X166003001Y-98656636D01*
X165987760Y-98674799D01*
X165980463Y-98682762D01*
X165971683Y-98691542D01*
X165965290Y-98701577D01*
X165964501Y-98702516D01*
X165960880Y-98712464D01*
X165959959Y-98722996D01*
X165960275Y-98724174D01*
X165964500Y-98756268D01*
X165964500Y-98821488D01*
X165946829Y-98885284D01*
X165377747Y-99833756D01*
X165359422Y-99864297D01*
X165314188Y-99908405D01*
X165253093Y-99924500D01*
X100768093Y-99924500D01*
X100755939Y-99923903D01*
X100747995Y-99923120D01*
X100640221Y-99912505D01*
X100616381Y-99907763D01*
X100599445Y-99902625D01*
X100510968Y-99875786D01*
X100488517Y-99866486D01*
X100391372Y-99814561D01*
X100371160Y-99801056D01*
X100286011Y-99731176D01*
X100268823Y-99713988D01*
X100198943Y-99628839D01*
X100185438Y-99608627D01*
X100133510Y-99511476D01*
X100124215Y-99489037D01*
X100092234Y-99383612D01*
X100087494Y-99359777D01*
X100076097Y-99244061D01*
X100075500Y-99231907D01*
X100075500Y-98358634D01*
X126581500Y-98358634D01*
X126588011Y-98419205D01*
X126639110Y-98556203D01*
X126726738Y-98673261D01*
X126843796Y-98760889D01*
X126980794Y-98811988D01*
X126980797Y-98811988D01*
X126980799Y-98811989D01*
X127041362Y-98818500D01*
X128838634Y-98818500D01*
X128838638Y-98818500D01*
X128899201Y-98811989D01*
X128899203Y-98811988D01*
X128899205Y-98811988D01*
X128981097Y-98781443D01*
X129036204Y-98760889D01*
X129153261Y-98673261D01*
X129240889Y-98556204D01*
X129286137Y-98434889D01*
X129322089Y-98383677D01*
X129378471Y-98356539D01*
X129440925Y-98360387D01*
X129493548Y-98394241D01*
X129530969Y-98434890D01*
X129556760Y-98462906D01*
X129734424Y-98601189D01*
X129932426Y-98708342D01*
X130145365Y-98781444D01*
X130367431Y-98818500D01*
X130592569Y-98818500D01*
X130814635Y-98781444D01*
X131027574Y-98708342D01*
X131225576Y-98601189D01*
X131403240Y-98462906D01*
X131555722Y-98297268D01*
X131646190Y-98158795D01*
X131690982Y-98117561D01*
X131750000Y-98102616D01*
X131809018Y-98117561D01*
X131853809Y-98158795D01*
X131944278Y-98297268D01*
X132096760Y-98462906D01*
X132274424Y-98601189D01*
X132472426Y-98708342D01*
X132685365Y-98781444D01*
X132907431Y-98818500D01*
X133132569Y-98818500D01*
X133354635Y-98781444D01*
X133567574Y-98708342D01*
X133765576Y-98601189D01*
X133943240Y-98462906D01*
X134095722Y-98297268D01*
X134186190Y-98158795D01*
X134230982Y-98117561D01*
X134290000Y-98102616D01*
X134349018Y-98117561D01*
X134393809Y-98158795D01*
X134484278Y-98297268D01*
X134636760Y-98462906D01*
X134814424Y-98601189D01*
X135012426Y-98708342D01*
X135225365Y-98781444D01*
X135447431Y-98818500D01*
X135672569Y-98818500D01*
X135894635Y-98781444D01*
X136107574Y-98708342D01*
X136305576Y-98601189D01*
X136483240Y-98462906D01*
X136635722Y-98297268D01*
X136726190Y-98158795D01*
X136770982Y-98117561D01*
X136830000Y-98102616D01*
X136889018Y-98117561D01*
X136933809Y-98158795D01*
X137024278Y-98297268D01*
X137176760Y-98462906D01*
X137354424Y-98601189D01*
X137552426Y-98708342D01*
X137765365Y-98781444D01*
X137987431Y-98818500D01*
X138212569Y-98818500D01*
X138434635Y-98781444D01*
X138647574Y-98708342D01*
X138845576Y-98601189D01*
X139023240Y-98462906D01*
X139175722Y-98297268D01*
X139269748Y-98153349D01*
X139313663Y-98112595D01*
X139371562Y-98097188D01*
X139429926Y-98110726D01*
X139475131Y-98150048D01*
X139601892Y-98331080D01*
X139768918Y-98498106D01*
X139962423Y-98633600D01*
X140176507Y-98733430D01*
X140389999Y-98790635D01*
X140390000Y-98790636D01*
X140390000Y-97710000D01*
X140890000Y-97710000D01*
X140890000Y-98790635D01*
X141103492Y-98733430D01*
X141317576Y-98633600D01*
X141511081Y-98498106D01*
X141678106Y-98331081D01*
X141808425Y-98144968D01*
X141852743Y-98106103D01*
X141910000Y-98092092D01*
X141967257Y-98106103D01*
X142011575Y-98144968D01*
X142141893Y-98331081D01*
X142308918Y-98498106D01*
X142502423Y-98633600D01*
X142716507Y-98733430D01*
X142929999Y-98790635D01*
X142930000Y-98790636D01*
X142930000Y-98790635D01*
X143430000Y-98790635D01*
X143643492Y-98733430D01*
X143857576Y-98633600D01*
X144051081Y-98498106D01*
X144218106Y-98331081D01*
X144344868Y-98150048D01*
X144390072Y-98110726D01*
X144448436Y-98097188D01*
X144506335Y-98112595D01*
X144550252Y-98153351D01*
X144644276Y-98297267D01*
X144723824Y-98383677D01*
X144796760Y-98462906D01*
X144974424Y-98601189D01*
X145172426Y-98708342D01*
X145385365Y-98781444D01*
X145607431Y-98818500D01*
X145832569Y-98818500D01*
X146054635Y-98781444D01*
X146267574Y-98708342D01*
X146465576Y-98601189D01*
X146643240Y-98462906D01*
X146739230Y-98358634D01*
X149441500Y-98358634D01*
X149448011Y-98419205D01*
X149499110Y-98556203D01*
X149586738Y-98673261D01*
X149703796Y-98760889D01*
X149840794Y-98811988D01*
X149840797Y-98811988D01*
X149840799Y-98811989D01*
X149901362Y-98818500D01*
X151698634Y-98818500D01*
X151698638Y-98818500D01*
X151759201Y-98811989D01*
X151759203Y-98811988D01*
X151759205Y-98811988D01*
X151841097Y-98781443D01*
X151896204Y-98760889D01*
X152013261Y-98673261D01*
X152100889Y-98556204D01*
X152146137Y-98434889D01*
X152182089Y-98383677D01*
X152238471Y-98356539D01*
X152300925Y-98360387D01*
X152353548Y-98394241D01*
X152390969Y-98434890D01*
X152416760Y-98462906D01*
X152594424Y-98601189D01*
X152792426Y-98708342D01*
X153005365Y-98781444D01*
X153227431Y-98818500D01*
X153452569Y-98818500D01*
X153674635Y-98781444D01*
X153887574Y-98708342D01*
X154085576Y-98601189D01*
X154263240Y-98462906D01*
X154415722Y-98297268D01*
X154506190Y-98158795D01*
X154550982Y-98117561D01*
X154610000Y-98102616D01*
X154669018Y-98117561D01*
X154713809Y-98158795D01*
X154804278Y-98297268D01*
X154956760Y-98462906D01*
X155134424Y-98601189D01*
X155332426Y-98708342D01*
X155545365Y-98781444D01*
X155767431Y-98818500D01*
X155992569Y-98818500D01*
X156214635Y-98781444D01*
X156427574Y-98708342D01*
X156625576Y-98601189D01*
X156803240Y-98462906D01*
X156955722Y-98297268D01*
X157046190Y-98158795D01*
X157090982Y-98117561D01*
X157150000Y-98102616D01*
X157209018Y-98117561D01*
X157253809Y-98158795D01*
X157344278Y-98297268D01*
X157496760Y-98462906D01*
X157674424Y-98601189D01*
X157872426Y-98708342D01*
X158085365Y-98781444D01*
X158307431Y-98818500D01*
X158532569Y-98818500D01*
X158754635Y-98781444D01*
X158967574Y-98708342D01*
X159165576Y-98601189D01*
X159343240Y-98462906D01*
X159495722Y-98297268D01*
X159586190Y-98158795D01*
X159630982Y-98117561D01*
X159690000Y-98102616D01*
X159749018Y-98117561D01*
X159793809Y-98158795D01*
X159884278Y-98297268D01*
X160036760Y-98462906D01*
X160214424Y-98601189D01*
X160412426Y-98708342D01*
X160625365Y-98781444D01*
X160847431Y-98818500D01*
X161072569Y-98818500D01*
X161294635Y-98781444D01*
X161507574Y-98708342D01*
X161705576Y-98601189D01*
X161883240Y-98462906D01*
X162035722Y-98297268D01*
X162126190Y-98158795D01*
X162170982Y-98117561D01*
X162230000Y-98102616D01*
X162289018Y-98117561D01*
X162333809Y-98158795D01*
X162424278Y-98297268D01*
X162576760Y-98462906D01*
X162754424Y-98601189D01*
X162952426Y-98708342D01*
X163165365Y-98781444D01*
X163387431Y-98818500D01*
X163612569Y-98818500D01*
X163834635Y-98781444D01*
X164047574Y-98708342D01*
X164245576Y-98601189D01*
X164423240Y-98462906D01*
X164575722Y-98297268D01*
X164698860Y-98108791D01*
X164789296Y-97902616D01*
X164844564Y-97684368D01*
X164863156Y-97460000D01*
X164844564Y-97235632D01*
X164789296Y-97017384D01*
X164698860Y-96811209D01*
X164575722Y-96622732D01*
X164423240Y-96457094D01*
X164245576Y-96318811D01*
X164047574Y-96211658D01*
X164047573Y-96211657D01*
X164047572Y-96211657D01*
X163834636Y-96138556D01*
X163612569Y-96101500D01*
X163387431Y-96101500D01*
X163165363Y-96138556D01*
X162952427Y-96211657D01*
X162754424Y-96318811D01*
X162576760Y-96457094D01*
X162424279Y-96622730D01*
X162333809Y-96761205D01*
X162289017Y-96802438D01*
X162230000Y-96817383D01*
X162170983Y-96802438D01*
X162126191Y-96761205D01*
X162035723Y-96622734D01*
X162035722Y-96622732D01*
X161883240Y-96457094D01*
X161705576Y-96318811D01*
X161507574Y-96211658D01*
X161507573Y-96211657D01*
X161507572Y-96211657D01*
X161294636Y-96138556D01*
X161072569Y-96101500D01*
X160847431Y-96101500D01*
X160625363Y-96138556D01*
X160412427Y-96211657D01*
X160214424Y-96318811D01*
X160036760Y-96457094D01*
X159884279Y-96622730D01*
X159793809Y-96761205D01*
X159749017Y-96802438D01*
X159690000Y-96817383D01*
X159630983Y-96802438D01*
X159586191Y-96761205D01*
X159495723Y-96622734D01*
X159495722Y-96622732D01*
X159343240Y-96457094D01*
X159165576Y-96318811D01*
X158967574Y-96211658D01*
X158967573Y-96211657D01*
X158967572Y-96211657D01*
X158754636Y-96138556D01*
X158532569Y-96101500D01*
X158307431Y-96101500D01*
X158085363Y-96138556D01*
X157872427Y-96211657D01*
X157674424Y-96318811D01*
X157496760Y-96457094D01*
X157344279Y-96622730D01*
X157253809Y-96761205D01*
X157209017Y-96802438D01*
X157150000Y-96817383D01*
X157090983Y-96802438D01*
X157046191Y-96761205D01*
X156955723Y-96622734D01*
X156955722Y-96622732D01*
X156803240Y-96457094D01*
X156625576Y-96318811D01*
X156427574Y-96211658D01*
X156427573Y-96211657D01*
X156427572Y-96211657D01*
X156214636Y-96138556D01*
X155992569Y-96101500D01*
X155767431Y-96101500D01*
X155545363Y-96138556D01*
X155332427Y-96211657D01*
X155134424Y-96318811D01*
X154956760Y-96457094D01*
X154804279Y-96622730D01*
X154713809Y-96761205D01*
X154669017Y-96802438D01*
X154610000Y-96817383D01*
X154550983Y-96802438D01*
X154506191Y-96761205D01*
X154415723Y-96622734D01*
X154415722Y-96622732D01*
X154263240Y-96457094D01*
X154085576Y-96318811D01*
X153887574Y-96211658D01*
X153887573Y-96211657D01*
X153887572Y-96211657D01*
X153674636Y-96138556D01*
X153452569Y-96101500D01*
X153227431Y-96101500D01*
X153005363Y-96138556D01*
X152792427Y-96211657D01*
X152594424Y-96318811D01*
X152416759Y-96457094D01*
X152353548Y-96525759D01*
X152300924Y-96559612D01*
X152238470Y-96563460D01*
X152182089Y-96536322D01*
X152146138Y-96485110D01*
X152121427Y-96418861D01*
X152100889Y-96363796D01*
X152042951Y-96286400D01*
X152013261Y-96246738D01*
X151896203Y-96159110D01*
X151759205Y-96108011D01*
X151728919Y-96104755D01*
X151698638Y-96101500D01*
X149901362Y-96101500D01*
X149874445Y-96104393D01*
X149840794Y-96108011D01*
X149703796Y-96159110D01*
X149586738Y-96246738D01*
X149499110Y-96363796D01*
X149448011Y-96500794D01*
X149444393Y-96534445D01*
X149441689Y-96559612D01*
X149441500Y-96561366D01*
X149441500Y-98358634D01*
X146739230Y-98358634D01*
X146795722Y-98297268D01*
X146918860Y-98108791D01*
X147009296Y-97902616D01*
X147064564Y-97684368D01*
X147083156Y-97460000D01*
X147064564Y-97235632D01*
X147009296Y-97017384D01*
X146918860Y-96811209D01*
X146795722Y-96622732D01*
X146643240Y-96457094D01*
X146465576Y-96318811D01*
X146267574Y-96211658D01*
X146267573Y-96211657D01*
X146267572Y-96211657D01*
X146054636Y-96138556D01*
X145832569Y-96101500D01*
X145607431Y-96101500D01*
X145385363Y-96138556D01*
X145172427Y-96211657D01*
X144974424Y-96318811D01*
X144796760Y-96457094D01*
X144644275Y-96622734D01*
X144550250Y-96766650D01*
X144506334Y-96807405D01*
X144448435Y-96822812D01*
X144390071Y-96809274D01*
X144344867Y-96769951D01*
X144218109Y-96588921D01*
X144051081Y-96421893D01*
X143857576Y-96286399D01*
X143643492Y-96186569D01*
X143430000Y-96129364D01*
X143430000Y-98790635D01*
X142930000Y-98790635D01*
X142930000Y-97710000D01*
X140890000Y-97710000D01*
X140390000Y-97710000D01*
X140390000Y-97210000D01*
X140890000Y-97210000D01*
X142930000Y-97210000D01*
X142930000Y-96129364D01*
X142929999Y-96129364D01*
X142716507Y-96186569D01*
X142502421Y-96286400D01*
X142308921Y-96421890D01*
X142141893Y-96588918D01*
X142011575Y-96775032D01*
X141967257Y-96813897D01*
X141910000Y-96827908D01*
X141852743Y-96813897D01*
X141808425Y-96775032D01*
X141678106Y-96588918D01*
X141511081Y-96421893D01*
X141317576Y-96286399D01*
X141103492Y-96186569D01*
X140890000Y-96129364D01*
X140890000Y-97210000D01*
X140390000Y-97210000D01*
X140390000Y-96129364D01*
X140389999Y-96129364D01*
X140176507Y-96186569D01*
X139962421Y-96286400D01*
X139768921Y-96421890D01*
X139601893Y-96588918D01*
X139475132Y-96769952D01*
X139429928Y-96809274D01*
X139371564Y-96822812D01*
X139313665Y-96807405D01*
X139269748Y-96766649D01*
X139175723Y-96622732D01*
X139086451Y-96525759D01*
X139023240Y-96457094D01*
X138845576Y-96318811D01*
X138647574Y-96211658D01*
X138647573Y-96211657D01*
X138647572Y-96211657D01*
X138434636Y-96138556D01*
X138212569Y-96101500D01*
X137987431Y-96101500D01*
X137765363Y-96138556D01*
X137552427Y-96211657D01*
X137354424Y-96318811D01*
X137176760Y-96457094D01*
X137024279Y-96622730D01*
X136933809Y-96761205D01*
X136889017Y-96802438D01*
X136830000Y-96817383D01*
X136770983Y-96802438D01*
X136726191Y-96761205D01*
X136635723Y-96622734D01*
X136635722Y-96622732D01*
X136483240Y-96457094D01*
X136305576Y-96318811D01*
X136107574Y-96211658D01*
X136107573Y-96211657D01*
X136107572Y-96211657D01*
X135894636Y-96138556D01*
X135672569Y-96101500D01*
X135447431Y-96101500D01*
X135225363Y-96138556D01*
X135012427Y-96211657D01*
X134814424Y-96318811D01*
X134636760Y-96457094D01*
X134484279Y-96622730D01*
X134393809Y-96761205D01*
X134349017Y-96802438D01*
X134290000Y-96817383D01*
X134230983Y-96802438D01*
X134186191Y-96761205D01*
X134095723Y-96622734D01*
X134095722Y-96622732D01*
X133943240Y-96457094D01*
X133765576Y-96318811D01*
X133567574Y-96211658D01*
X133567573Y-96211657D01*
X133567572Y-96211657D01*
X133354636Y-96138556D01*
X133132569Y-96101500D01*
X132907431Y-96101500D01*
X132685363Y-96138556D01*
X132472427Y-96211657D01*
X132274424Y-96318811D01*
X132096760Y-96457094D01*
X131944279Y-96622730D01*
X131853809Y-96761205D01*
X131809017Y-96802438D01*
X131750000Y-96817383D01*
X131690983Y-96802438D01*
X131646191Y-96761205D01*
X131555723Y-96622734D01*
X131555722Y-96622732D01*
X131403240Y-96457094D01*
X131225576Y-96318811D01*
X131027574Y-96211658D01*
X131027573Y-96211657D01*
X131027572Y-96211657D01*
X130814636Y-96138556D01*
X130592569Y-96101500D01*
X130367431Y-96101500D01*
X130145363Y-96138556D01*
X129932427Y-96211657D01*
X129734424Y-96318811D01*
X129556759Y-96457094D01*
X129493548Y-96525759D01*
X129440924Y-96559612D01*
X129378470Y-96563460D01*
X129322089Y-96536322D01*
X129286138Y-96485110D01*
X129261427Y-96418861D01*
X129240889Y-96363796D01*
X129182951Y-96286400D01*
X129153261Y-96246738D01*
X129036203Y-96159110D01*
X128899205Y-96108011D01*
X128868919Y-96104755D01*
X128838638Y-96101500D01*
X127041362Y-96101500D01*
X127014445Y-96104393D01*
X126980794Y-96108011D01*
X126843796Y-96159110D01*
X126726738Y-96246738D01*
X126639110Y-96363796D01*
X126588011Y-96500794D01*
X126584393Y-96534445D01*
X126581689Y-96559612D01*
X126581500Y-96561366D01*
X126581500Y-98358634D01*
X100075500Y-98358634D01*
X100075500Y-89574634D01*
X155645500Y-89574634D01*
X155652011Y-89635205D01*
X155703110Y-89772203D01*
X155790738Y-89889261D01*
X155907796Y-89976889D01*
X156044794Y-90027988D01*
X156044797Y-90027988D01*
X156044799Y-90027989D01*
X156105362Y-90034500D01*
X158702634Y-90034500D01*
X158702638Y-90034500D01*
X158763201Y-90027989D01*
X158763203Y-90027988D01*
X158763205Y-90027988D01*
X158841124Y-89998924D01*
X158900204Y-89976889D01*
X159017261Y-89889261D01*
X159104889Y-89772204D01*
X159155989Y-89635201D01*
X159162500Y-89574638D01*
X159162500Y-86977362D01*
X159155989Y-86916799D01*
X159155988Y-86916797D01*
X159155988Y-86916794D01*
X159104889Y-86779796D01*
X159017261Y-86662738D01*
X158900203Y-86575110D01*
X158763205Y-86524011D01*
X158732919Y-86520755D01*
X158702638Y-86517500D01*
X156105362Y-86517500D01*
X156078445Y-86520393D01*
X156044794Y-86524011D01*
X155907796Y-86575110D01*
X155790738Y-86662738D01*
X155703110Y-86779796D01*
X155652011Y-86916794D01*
X155645500Y-86977366D01*
X155645500Y-89574634D01*
X100075500Y-89574634D01*
X100075500Y-86280000D01*
X116555968Y-86280000D01*
X116556273Y-86284080D01*
X116612971Y-86532491D01*
X116706057Y-86769669D01*
X116833454Y-86990328D01*
X116992317Y-87189536D01*
X117179095Y-87362841D01*
X117389615Y-87506371D01*
X117619179Y-87616922D01*
X117862654Y-87692025D01*
X117992000Y-87711520D01*
X117992000Y-86280000D01*
X118492000Y-86280000D01*
X118492000Y-87711520D01*
X118621345Y-87692025D01*
X118864823Y-87616921D01*
X119094379Y-87506374D01*
X119304907Y-87362839D01*
X119395658Y-87278634D01*
X142533500Y-87278634D01*
X142540011Y-87339205D01*
X142591110Y-87476203D01*
X142678738Y-87593261D01*
X142795796Y-87680889D01*
X142932794Y-87731988D01*
X142932797Y-87731988D01*
X142932799Y-87731989D01*
X142993362Y-87738500D01*
X145490634Y-87738500D01*
X145490638Y-87738500D01*
X145551201Y-87731989D01*
X145551203Y-87731988D01*
X145551205Y-87731988D01*
X145629124Y-87702924D01*
X145688204Y-87680889D01*
X145805261Y-87593261D01*
X145892889Y-87476204D01*
X145935172Y-87362841D01*
X145943988Y-87339205D01*
X145943988Y-87339203D01*
X145943989Y-87339201D01*
X145950500Y-87278638D01*
X145950500Y-84781362D01*
X145943989Y-84720799D01*
X145943988Y-84720797D01*
X145943988Y-84720794D01*
X145928295Y-84678720D01*
X156354831Y-84678720D01*
X156526546Y-84795793D01*
X156762860Y-84909596D01*
X157013496Y-84986908D01*
X157272856Y-85026000D01*
X157535144Y-85026000D01*
X157794503Y-84986908D01*
X158045139Y-84909596D01*
X158281456Y-84795792D01*
X158453167Y-84678720D01*
X157404001Y-83629553D01*
X157404000Y-83629553D01*
X156354831Y-84678720D01*
X145928295Y-84678720D01*
X145892889Y-84583796D01*
X145805261Y-84466738D01*
X145688203Y-84379110D01*
X145551205Y-84328011D01*
X145519203Y-84324571D01*
X145490638Y-84321500D01*
X142993362Y-84321500D01*
X142966445Y-84324393D01*
X142932794Y-84328011D01*
X142795796Y-84379110D01*
X142678738Y-84466738D01*
X142591110Y-84583796D01*
X142540011Y-84720794D01*
X142533500Y-84781366D01*
X142533500Y-87278634D01*
X119395658Y-87278634D01*
X119491682Y-87189536D01*
X119650545Y-86990328D01*
X119777942Y-86769669D01*
X119871028Y-86532491D01*
X119927726Y-86284080D01*
X119928032Y-86280000D01*
X118492000Y-86280000D01*
X117992000Y-86280000D01*
X116555968Y-86280000D01*
X100075500Y-86280000D01*
X100075500Y-85779999D01*
X116555967Y-85779999D01*
X116555968Y-85780000D01*
X117992000Y-85780000D01*
X117992000Y-84348479D01*
X118492000Y-84348479D01*
X118492000Y-85780000D01*
X119928032Y-85780000D01*
X119928032Y-85779999D01*
X119927726Y-85775919D01*
X119871028Y-85527508D01*
X119777942Y-85290330D01*
X119650545Y-85069671D01*
X119491682Y-84870463D01*
X119304907Y-84697160D01*
X119094379Y-84553625D01*
X118864823Y-84443078D01*
X118621345Y-84367974D01*
X118492000Y-84348479D01*
X117992000Y-84348479D01*
X117862654Y-84367974D01*
X117619179Y-84443077D01*
X117389615Y-84553628D01*
X117179095Y-84697158D01*
X116992317Y-84870463D01*
X116833454Y-85069671D01*
X116706057Y-85290330D01*
X116612971Y-85527508D01*
X116556273Y-85775919D01*
X116555967Y-85779999D01*
X100075500Y-85779999D01*
X100075500Y-83744000D01*
X105494843Y-83744000D01*
X105513435Y-83968363D01*
X105513435Y-83968366D01*
X105513436Y-83968368D01*
X105530923Y-84037424D01*
X105568705Y-84186618D01*
X105659138Y-84392788D01*
X105659140Y-84392791D01*
X105782278Y-84581268D01*
X105934760Y-84746906D01*
X106112424Y-84885189D01*
X106310426Y-84992342D01*
X106523365Y-85065444D01*
X106745431Y-85102500D01*
X106970569Y-85102500D01*
X107192635Y-85065444D01*
X107405574Y-84992342D01*
X107603576Y-84885189D01*
X107781240Y-84746906D01*
X107933722Y-84581268D01*
X108024190Y-84442795D01*
X108068982Y-84401561D01*
X108128000Y-84386616D01*
X108187018Y-84401561D01*
X108231809Y-84442795D01*
X108247452Y-84466739D01*
X108322278Y-84581268D01*
X108474760Y-84746906D01*
X108652424Y-84885189D01*
X108850426Y-84992342D01*
X109063365Y-85065444D01*
X109285431Y-85102500D01*
X109510569Y-85102500D01*
X109732635Y-85065444D01*
X109945574Y-84992342D01*
X110143576Y-84885189D01*
X110321240Y-84746906D01*
X110473722Y-84581268D01*
X110596860Y-84392791D01*
X110687296Y-84186616D01*
X110742564Y-83968368D01*
X110761156Y-83744000D01*
X110742564Y-83519632D01*
X110687296Y-83301384D01*
X110676161Y-83275999D01*
X155649092Y-83275999D01*
X155668693Y-83537552D01*
X155727059Y-83793270D01*
X155822882Y-84037424D01*
X155954027Y-84264573D01*
X156001873Y-84324571D01*
X156001874Y-84324571D01*
X157050446Y-83276001D01*
X157757553Y-83276001D01*
X158806124Y-84324571D01*
X158853972Y-84264572D01*
X158985117Y-84037423D01*
X159080940Y-83793270D01*
X159139306Y-83537552D01*
X159158907Y-83275999D01*
X159139306Y-83014447D01*
X159080940Y-82758729D01*
X158985117Y-82514575D01*
X158853972Y-82287426D01*
X158806125Y-82227427D01*
X157757553Y-83276000D01*
X157757553Y-83276001D01*
X157050446Y-83276001D01*
X157050446Y-83276000D01*
X156001873Y-82227427D01*
X155954028Y-82287424D01*
X155822882Y-82514576D01*
X155727059Y-82758729D01*
X155668693Y-83014447D01*
X155649092Y-83275999D01*
X110676161Y-83275999D01*
X110596860Y-83095209D01*
X110473722Y-82906732D01*
X110321240Y-82741094D01*
X110143576Y-82602811D01*
X110107067Y-82583053D01*
X110059563Y-82537474D01*
X110042086Y-82474000D01*
X110059563Y-82410526D01*
X110107067Y-82364946D01*
X110143576Y-82345189D01*
X110321240Y-82206906D01*
X110473722Y-82041268D01*
X110583475Y-81873278D01*
X156354832Y-81873278D01*
X157404000Y-82922446D01*
X157404001Y-82922446D01*
X158453167Y-81873278D01*
X158281451Y-81756205D01*
X158045139Y-81642403D01*
X157794503Y-81565091D01*
X157535144Y-81526000D01*
X157272856Y-81526000D01*
X157013496Y-81565091D01*
X156762860Y-81642403D01*
X156526545Y-81756206D01*
X156354832Y-81873278D01*
X110583475Y-81873278D01*
X110596860Y-81852791D01*
X110687296Y-81646616D01*
X110742564Y-81428368D01*
X110761156Y-81204000D01*
X110742564Y-80979632D01*
X110687296Y-80761384D01*
X110596860Y-80555209D01*
X110473722Y-80366732D01*
X110321240Y-80201094D01*
X110143576Y-80062811D01*
X110107067Y-80043053D01*
X110059563Y-79997474D01*
X110042086Y-79934000D01*
X110059563Y-79870526D01*
X110107067Y-79824946D01*
X110143576Y-79805189D01*
X110321240Y-79666906D01*
X110423336Y-79556001D01*
X132760500Y-79556001D01*
X132777996Y-79688901D01*
X132794611Y-79750909D01*
X132845908Y-79874751D01*
X132927513Y-79981099D01*
X132972900Y-80026486D01*
X133079248Y-80108091D01*
X133203090Y-80159388D01*
X133203095Y-80159390D01*
X133265095Y-80176003D01*
X133364773Y-80189125D01*
X133397999Y-80193500D01*
X133398000Y-80193500D01*
X139246000Y-80193500D01*
X139246001Y-80193500D01*
X139272580Y-80190000D01*
X139378905Y-80176003D01*
X139440905Y-80159390D01*
X139564751Y-80108091D01*
X139671099Y-80026486D01*
X139716486Y-79981099D01*
X139798091Y-79874751D01*
X139849390Y-79750905D01*
X139866003Y-79688905D01*
X139883500Y-79556000D01*
X139883500Y-70778638D01*
X155391500Y-70778638D01*
X155394755Y-70808919D01*
X155398011Y-70839205D01*
X155449110Y-70976203D01*
X155536738Y-71093261D01*
X155653796Y-71180889D01*
X155790794Y-71231988D01*
X155790797Y-71231988D01*
X155790799Y-71231989D01*
X155851362Y-71238500D01*
X158448634Y-71238500D01*
X158448638Y-71238500D01*
X158509201Y-71231989D01*
X158509203Y-71231988D01*
X158509205Y-71231988D01*
X158587124Y-71202924D01*
X158646204Y-71180889D01*
X158763261Y-71093261D01*
X158850889Y-70976204D01*
X158901989Y-70839201D01*
X158908500Y-70778638D01*
X158908500Y-68181362D01*
X158901989Y-68120799D01*
X158901988Y-68120797D01*
X158901988Y-68120794D01*
X158850889Y-67983796D01*
X158763261Y-67866738D01*
X158646203Y-67779110D01*
X158509205Y-67728011D01*
X158478919Y-67724755D01*
X158448638Y-67721500D01*
X155851362Y-67721500D01*
X155824445Y-67724393D01*
X155790794Y-67728011D01*
X155653796Y-67779110D01*
X155536738Y-67866738D01*
X155449110Y-67983796D01*
X155398011Y-68120794D01*
X155394393Y-68154445D01*
X155391500Y-68181362D01*
X155391500Y-70778638D01*
X139883500Y-70778638D01*
X139883500Y-64480000D01*
X155386568Y-64480000D01*
X155406264Y-64742824D01*
X155464913Y-64999780D01*
X155561204Y-65245124D01*
X155640833Y-65383047D01*
X155692985Y-65473376D01*
X155857314Y-65679438D01*
X155857316Y-65679440D01*
X155857317Y-65679441D01*
X156050513Y-65858701D01*
X156050515Y-65858702D01*
X156050519Y-65858706D01*
X156268285Y-66007176D01*
X156505746Y-66121532D01*
X156757600Y-66199218D01*
X156971964Y-66231528D01*
X157018218Y-66238500D01*
X157018219Y-66238500D01*
X157281781Y-66238500D01*
X157281782Y-66238500D01*
X157321063Y-66232579D01*
X157542400Y-66199218D01*
X157794254Y-66121532D01*
X158031716Y-66007176D01*
X158249481Y-65858706D01*
X158442686Y-65679438D01*
X158607015Y-65473376D01*
X158738796Y-65245124D01*
X158835087Y-64999780D01*
X158893735Y-64742826D01*
X158913431Y-64480000D01*
X158893735Y-64217174D01*
X158835087Y-63960220D01*
X158738796Y-63714876D01*
X158607015Y-63486624D01*
X158442686Y-63280562D01*
X158442682Y-63280558D01*
X158249483Y-63101295D01*
X158031713Y-62952822D01*
X157794252Y-62838467D01*
X157542401Y-62760782D01*
X157281782Y-62721500D01*
X157281781Y-62721500D01*
X157018219Y-62721500D01*
X157018218Y-62721500D01*
X156757598Y-62760782D01*
X156505748Y-62838467D01*
X156268287Y-62952822D01*
X156050513Y-63101298D01*
X155857317Y-63280558D01*
X155692984Y-63486624D01*
X155561204Y-63714875D01*
X155464913Y-63960219D01*
X155406264Y-64217175D01*
X155386568Y-64480000D01*
X139883500Y-64480000D01*
X139883500Y-63294000D01*
X139866003Y-63161095D01*
X139849390Y-63099095D01*
X139798091Y-62975249D01*
X139798091Y-62975248D01*
X139716486Y-62868900D01*
X139671099Y-62823513D01*
X139564751Y-62741908D01*
X139440909Y-62690611D01*
X139378901Y-62673996D01*
X139246001Y-62656500D01*
X139246000Y-62656500D01*
X133398000Y-62656500D01*
X133397999Y-62656500D01*
X133265098Y-62673996D01*
X133203090Y-62690611D01*
X133079248Y-62741908D01*
X132972900Y-62823513D01*
X132927513Y-62868900D01*
X132845908Y-62975248D01*
X132794611Y-63099090D01*
X132777996Y-63161098D01*
X132760500Y-63293999D01*
X132760500Y-68833245D01*
X132770367Y-68933428D01*
X132779804Y-68980872D01*
X132779806Y-68980878D01*
X132809027Y-69077208D01*
X132856480Y-69165986D01*
X132883359Y-69206213D01*
X132947219Y-69284025D01*
X132947224Y-69284030D01*
X132947225Y-69284031D01*
X132988218Y-69325024D01*
X133005530Y-69346732D01*
X133026034Y-69379363D01*
X133038083Y-69404383D01*
X133050810Y-69440756D01*
X133056988Y-69467826D01*
X133061302Y-69506116D01*
X133061302Y-69533882D01*
X133056988Y-69572172D01*
X133050810Y-69599243D01*
X133038083Y-69635615D01*
X133026034Y-69660634D01*
X133005530Y-69693265D01*
X132988220Y-69714971D01*
X132947227Y-69755965D01*
X132883354Y-69833793D01*
X132856474Y-69874023D01*
X132809026Y-69962793D01*
X132779805Y-70059123D01*
X132770367Y-70106571D01*
X132760500Y-70206755D01*
X132760500Y-73913245D01*
X132770367Y-74013428D01*
X132779805Y-74060879D01*
X132809026Y-74157206D01*
X132830853Y-74198041D01*
X132849426Y-74232788D01*
X132856483Y-74245989D01*
X132883363Y-74286218D01*
X132947220Y-74364026D01*
X132988218Y-74405024D01*
X133005530Y-74426732D01*
X133026034Y-74459363D01*
X133038083Y-74484383D01*
X133050810Y-74520756D01*
X133056988Y-74547826D01*
X133061302Y-74586116D01*
X133061302Y-74613882D01*
X133056988Y-74652172D01*
X133050810Y-74679243D01*
X133038083Y-74715615D01*
X133026034Y-74740634D01*
X133005530Y-74773265D01*
X132988220Y-74794971D01*
X132947223Y-74835968D01*
X132883360Y-74913785D01*
X132856478Y-74954018D01*
X132809026Y-75042796D01*
X132779805Y-75139120D01*
X132770367Y-75186571D01*
X132760500Y-75286755D01*
X132760500Y-79556001D01*
X110423336Y-79556001D01*
X110473722Y-79501268D01*
X110596860Y-79312791D01*
X110687296Y-79106616D01*
X110742564Y-78888368D01*
X110761156Y-78664000D01*
X110742564Y-78439632D01*
X110687296Y-78221384D01*
X110596860Y-78015209D01*
X110473722Y-77826732D01*
X110321240Y-77661094D01*
X110143576Y-77522811D01*
X110107067Y-77503053D01*
X110059563Y-77457474D01*
X110042086Y-77394000D01*
X110059563Y-77330526D01*
X110107067Y-77284946D01*
X110143576Y-77265189D01*
X110321240Y-77126906D01*
X110473722Y-76961268D01*
X110596860Y-76772791D01*
X110687296Y-76566616D01*
X110742564Y-76348368D01*
X110761156Y-76124000D01*
X110742564Y-75899632D01*
X110687296Y-75681384D01*
X110596860Y-75475209D01*
X110473722Y-75286732D01*
X110321240Y-75121094D01*
X110143576Y-74982811D01*
X110107067Y-74963053D01*
X110059563Y-74917474D01*
X110046216Y-74868999D01*
X117173843Y-74868999D01*
X117192435Y-75093363D01*
X117192435Y-75093366D01*
X117192436Y-75093368D01*
X117241408Y-75286755D01*
X117247705Y-75311618D01*
X117338138Y-75517788D01*
X117338140Y-75517791D01*
X117461278Y-75706268D01*
X117613760Y-75871906D01*
X117791424Y-76010189D01*
X117989426Y-76117342D01*
X118202365Y-76190444D01*
X118424431Y-76227500D01*
X118649569Y-76227500D01*
X118871635Y-76190444D01*
X119084574Y-76117342D01*
X119282576Y-76010189D01*
X119460240Y-75871906D01*
X119612722Y-75706268D01*
X119703190Y-75567795D01*
X119747982Y-75526561D01*
X119807000Y-75511616D01*
X119866018Y-75526561D01*
X119910809Y-75567795D01*
X119985018Y-75681381D01*
X120001278Y-75706268D01*
X120153760Y-75871906D01*
X120331424Y-76010189D01*
X120529426Y-76117342D01*
X120742365Y-76190444D01*
X120964431Y-76227500D01*
X121189569Y-76227500D01*
X121411635Y-76190444D01*
X121624574Y-76117342D01*
X121822576Y-76010189D01*
X122000240Y-75871906D01*
X122152722Y-75706268D01*
X122275860Y-75517791D01*
X122366296Y-75311616D01*
X122421564Y-75093368D01*
X122440156Y-74869000D01*
X122421564Y-74644632D01*
X122366296Y-74426384D01*
X122275860Y-74220209D01*
X122152722Y-74031732D01*
X122000240Y-73866094D01*
X121822576Y-73727811D01*
X121786067Y-73708053D01*
X121738563Y-73662474D01*
X121721086Y-73599000D01*
X121738563Y-73535526D01*
X121786067Y-73489946D01*
X121822576Y-73470189D01*
X122000240Y-73331906D01*
X122152722Y-73166268D01*
X122275860Y-72977791D01*
X122366296Y-72771616D01*
X122421564Y-72553368D01*
X122440156Y-72329000D01*
X122421564Y-72104632D01*
X122366296Y-71886384D01*
X122275860Y-71680209D01*
X122152722Y-71491732D01*
X122000240Y-71326094D01*
X121822576Y-71187811D01*
X121786067Y-71168053D01*
X121738563Y-71122474D01*
X121721086Y-71059000D01*
X121738563Y-70995526D01*
X121786067Y-70949946D01*
X121822576Y-70930189D01*
X122000240Y-70791906D01*
X122152722Y-70626268D01*
X122275860Y-70437791D01*
X122344196Y-70281999D01*
X123570383Y-70281999D01*
X123590782Y-70463044D01*
X123590782Y-70463046D01*
X123590783Y-70463047D01*
X123650957Y-70635015D01*
X123747889Y-70789281D01*
X123876719Y-70918111D01*
X124030985Y-71015043D01*
X124202953Y-71075217D01*
X124384000Y-71095616D01*
X124565047Y-71075217D01*
X124737015Y-71015043D01*
X124891281Y-70918111D01*
X125020111Y-70789281D01*
X125117043Y-70635015D01*
X125177217Y-70463047D01*
X125197616Y-70282000D01*
X125177217Y-70100953D01*
X125117043Y-69928985D01*
X125038505Y-69803993D01*
X125019500Y-69738023D01*
X125019500Y-69301977D01*
X125038506Y-69236005D01*
X125117043Y-69111015D01*
X125177217Y-68939047D01*
X125197616Y-68758000D01*
X125177217Y-68576953D01*
X125117043Y-68404985D01*
X125020111Y-68250719D01*
X124891281Y-68121889D01*
X124737015Y-68024957D01*
X124565047Y-67964783D01*
X124565046Y-67964782D01*
X124565044Y-67964782D01*
X124384000Y-67944383D01*
X124202955Y-67964782D01*
X124030984Y-68024957D01*
X123876717Y-68121890D01*
X123747890Y-68250717D01*
X123650957Y-68404984D01*
X123590782Y-68576955D01*
X123570383Y-68757999D01*
X123590782Y-68939044D01*
X123590782Y-68939046D01*
X123590783Y-68939047D01*
X123650957Y-69111015D01*
X123710770Y-69206207D01*
X123729494Y-69236005D01*
X123748500Y-69301977D01*
X123748500Y-69738023D01*
X123729494Y-69803995D01*
X123650957Y-69928984D01*
X123590782Y-70100955D01*
X123570383Y-70281999D01*
X122344196Y-70281999D01*
X122366296Y-70231616D01*
X122421564Y-70013368D01*
X122440156Y-69789000D01*
X122421564Y-69564632D01*
X122366296Y-69346384D01*
X122275860Y-69140209D01*
X122152722Y-68951732D01*
X122000240Y-68786094D01*
X121822576Y-68647811D01*
X121624574Y-68540658D01*
X121624573Y-68540657D01*
X121624572Y-68540657D01*
X121411636Y-68467556D01*
X121189569Y-68430500D01*
X120964431Y-68430500D01*
X120742363Y-68467556D01*
X120529427Y-68540657D01*
X120331424Y-68647811D01*
X120153759Y-68786094D01*
X120090548Y-68854759D01*
X120037924Y-68888612D01*
X119975470Y-68892460D01*
X119919089Y-68865322D01*
X119883138Y-68814110D01*
X119858427Y-68747861D01*
X119837889Y-68692796D01*
X119804214Y-68647811D01*
X119750261Y-68575738D01*
X119633203Y-68488110D01*
X119496205Y-68437011D01*
X119465919Y-68433755D01*
X119435638Y-68430500D01*
X117638362Y-68430500D01*
X117611445Y-68433393D01*
X117577794Y-68437011D01*
X117440796Y-68488110D01*
X117323738Y-68575738D01*
X117236110Y-68692796D01*
X117185011Y-68829794D01*
X117181393Y-68863445D01*
X117178689Y-68888612D01*
X117178500Y-68890366D01*
X117178500Y-70687634D01*
X117185011Y-70748205D01*
X117236110Y-70885203D01*
X117323738Y-71002261D01*
X117440793Y-71089887D01*
X117440796Y-71089889D01*
X117558596Y-71133826D01*
X117608129Y-71167840D01*
X117635856Y-71221151D01*
X117635263Y-71281237D01*
X117606490Y-71333990D01*
X117461279Y-71491730D01*
X117338138Y-71680211D01*
X117247705Y-71886381D01*
X117247704Y-71886384D01*
X117207054Y-72046906D01*
X117192435Y-72104636D01*
X117173843Y-72329000D01*
X117192435Y-72553363D01*
X117192435Y-72553366D01*
X117192436Y-72553368D01*
X117196323Y-72568719D01*
X117247705Y-72771618D01*
X117338138Y-72977788D01*
X117338140Y-72977791D01*
X117461278Y-73166268D01*
X117613760Y-73331906D01*
X117791424Y-73470189D01*
X117791426Y-73470190D01*
X117827931Y-73489946D01*
X117875436Y-73535527D01*
X117892913Y-73599000D01*
X117875436Y-73662473D01*
X117827931Y-73708054D01*
X117791426Y-73727809D01*
X117613760Y-73866094D01*
X117461279Y-74031730D01*
X117338138Y-74220211D01*
X117247705Y-74426381D01*
X117247704Y-74426384D01*
X117207054Y-74586906D01*
X117192435Y-74644636D01*
X117173843Y-74868999D01*
X110046216Y-74868999D01*
X110042086Y-74854000D01*
X110059563Y-74790526D01*
X110107067Y-74744946D01*
X110143576Y-74725189D01*
X110321240Y-74586906D01*
X110473722Y-74421268D01*
X110596860Y-74232791D01*
X110687296Y-74026616D01*
X110742564Y-73808368D01*
X110761156Y-73584000D01*
X110742564Y-73359632D01*
X110687296Y-73141384D01*
X110658616Y-73076000D01*
X114934383Y-73076000D01*
X114954782Y-73257044D01*
X114954782Y-73257046D01*
X114954783Y-73257047D01*
X115014957Y-73429015D01*
X115111889Y-73583281D01*
X115240719Y-73712111D01*
X115394985Y-73809043D01*
X115566953Y-73869217D01*
X115748000Y-73889616D01*
X115929047Y-73869217D01*
X116101015Y-73809043D01*
X116255281Y-73712111D01*
X116384111Y-73583281D01*
X116481043Y-73429015D01*
X116541217Y-73257047D01*
X116561616Y-73076000D01*
X116541217Y-72894953D01*
X116481043Y-72722985D01*
X116402505Y-72597993D01*
X116383500Y-72532023D01*
X116383500Y-69301977D01*
X116402506Y-69236005D01*
X116481043Y-69111015D01*
X116541217Y-68939047D01*
X116561616Y-68758000D01*
X116541217Y-68576953D01*
X116481043Y-68404985D01*
X116384111Y-68250719D01*
X116255281Y-68121889D01*
X116101015Y-68024957D01*
X115929047Y-67964783D01*
X115929046Y-67964782D01*
X115929044Y-67964782D01*
X115748000Y-67944383D01*
X115566955Y-67964782D01*
X115394984Y-68024957D01*
X115240717Y-68121890D01*
X115111890Y-68250717D01*
X115014957Y-68404984D01*
X114954782Y-68576955D01*
X114934383Y-68757999D01*
X114954782Y-68939044D01*
X114954782Y-68939046D01*
X114954783Y-68939047D01*
X115014957Y-69111015D01*
X115074770Y-69206207D01*
X115093494Y-69236005D01*
X115112500Y-69301977D01*
X115112500Y-72532023D01*
X115093494Y-72597995D01*
X115014957Y-72722984D01*
X114954782Y-72894955D01*
X114934383Y-73076000D01*
X110658616Y-73076000D01*
X110596860Y-72935209D01*
X110473722Y-72746732D01*
X110321240Y-72581094D01*
X110143576Y-72442811D01*
X110107067Y-72423053D01*
X110059563Y-72377474D01*
X110042086Y-72314000D01*
X110059563Y-72250526D01*
X110107067Y-72204946D01*
X110143576Y-72185189D01*
X110321240Y-72046906D01*
X110473722Y-71881268D01*
X110596860Y-71692791D01*
X110687296Y-71486616D01*
X110742564Y-71268368D01*
X110761156Y-71044000D01*
X110742564Y-70819632D01*
X110687296Y-70601384D01*
X110596860Y-70395209D01*
X110473722Y-70206732D01*
X110321240Y-70041094D01*
X110143576Y-69902811D01*
X109945574Y-69795658D01*
X109945573Y-69795657D01*
X109945572Y-69795657D01*
X109732636Y-69722556D01*
X109510569Y-69685500D01*
X109285431Y-69685500D01*
X109063363Y-69722556D01*
X108850427Y-69795657D01*
X108652424Y-69902811D01*
X108474759Y-70041094D01*
X108411548Y-70109759D01*
X108358924Y-70143612D01*
X108296470Y-70147460D01*
X108240089Y-70120322D01*
X108204138Y-70069110D01*
X108164483Y-69962795D01*
X108158889Y-69947796D01*
X108103660Y-69874019D01*
X108071261Y-69830738D01*
X107954203Y-69743110D01*
X107817205Y-69692011D01*
X107786919Y-69688755D01*
X107756638Y-69685500D01*
X105959362Y-69685500D01*
X105932445Y-69688393D01*
X105898794Y-69692011D01*
X105761796Y-69743110D01*
X105644738Y-69830738D01*
X105557110Y-69947796D01*
X105506011Y-70084794D01*
X105502393Y-70118445D01*
X105499689Y-70143612D01*
X105499500Y-70145366D01*
X105499500Y-71942634D01*
X105506011Y-72003205D01*
X105557110Y-72140203D01*
X105644738Y-72257261D01*
X105761793Y-72344887D01*
X105761796Y-72344889D01*
X105879596Y-72388826D01*
X105929129Y-72422840D01*
X105956856Y-72476151D01*
X105956263Y-72536237D01*
X105927490Y-72588990D01*
X105782279Y-72746730D01*
X105659138Y-72935211D01*
X105568705Y-73141381D01*
X105513435Y-73359636D01*
X105494843Y-73584000D01*
X105513435Y-73808363D01*
X105513435Y-73808366D01*
X105513436Y-73808368D01*
X105565364Y-74013428D01*
X105568705Y-74026618D01*
X105659138Y-74232788D01*
X105659140Y-74232791D01*
X105782278Y-74421268D01*
X105934760Y-74586906D01*
X106112424Y-74725189D01*
X106112426Y-74725190D01*
X106148931Y-74744946D01*
X106196436Y-74790527D01*
X106213913Y-74854000D01*
X106196436Y-74917473D01*
X106148931Y-74963054D01*
X106112426Y-74982809D01*
X105934760Y-75121094D01*
X105782279Y-75286730D01*
X105659138Y-75475211D01*
X105568705Y-75681381D01*
X105513435Y-75899636D01*
X105494843Y-76123999D01*
X105513435Y-76348363D01*
X105568705Y-76566618D01*
X105659138Y-76772788D01*
X105659140Y-76772791D01*
X105782278Y-76961268D01*
X105934760Y-77126906D01*
X106112424Y-77265189D01*
X106112426Y-77265190D01*
X106148931Y-77284946D01*
X106196436Y-77330527D01*
X106213913Y-77394000D01*
X106196436Y-77457473D01*
X106148931Y-77503054D01*
X106112426Y-77522809D01*
X105934760Y-77661094D01*
X105782279Y-77826730D01*
X105659138Y-78015211D01*
X105568705Y-78221381D01*
X105513435Y-78439636D01*
X105494843Y-78664000D01*
X105513435Y-78888363D01*
X105568705Y-79106618D01*
X105659138Y-79312788D01*
X105659140Y-79312791D01*
X105782278Y-79501268D01*
X105934760Y-79666906D01*
X106112424Y-79805189D01*
X106112426Y-79805190D01*
X106148931Y-79824946D01*
X106196436Y-79870527D01*
X106213913Y-79934000D01*
X106196436Y-79997473D01*
X106148931Y-80043054D01*
X106112426Y-80062809D01*
X105934760Y-80201094D01*
X105782279Y-80366730D01*
X105659138Y-80555211D01*
X105568705Y-80761381D01*
X105513435Y-80979636D01*
X105494843Y-81203999D01*
X105513435Y-81428363D01*
X105513435Y-81428366D01*
X105513436Y-81428368D01*
X105567637Y-81642403D01*
X105568705Y-81646618D01*
X105659138Y-81852788D01*
X105659140Y-81852791D01*
X105782278Y-82041268D01*
X105934760Y-82206906D01*
X106112424Y-82345189D01*
X106112426Y-82345190D01*
X106148931Y-82364946D01*
X106196436Y-82410527D01*
X106213913Y-82474000D01*
X106196436Y-82537473D01*
X106148931Y-82583054D01*
X106112426Y-82602809D01*
X105934760Y-82741094D01*
X105782279Y-82906730D01*
X105659138Y-83095211D01*
X105568705Y-83301381D01*
X105513435Y-83519636D01*
X105494843Y-83744000D01*
X100075500Y-83744000D01*
X100075500Y-66725999D01*
X112902383Y-66725999D01*
X112922782Y-66907044D01*
X112922782Y-66907046D01*
X112922783Y-66907047D01*
X112982957Y-67079015D01*
X113079889Y-67233281D01*
X113208719Y-67362111D01*
X113362985Y-67459043D01*
X113534953Y-67519217D01*
X113716000Y-67539616D01*
X113897047Y-67519217D01*
X114069015Y-67459043D01*
X114158030Y-67403110D01*
X114223998Y-67384105D01*
X114289969Y-67403110D01*
X114378985Y-67459043D01*
X114550953Y-67519217D01*
X114732000Y-67539616D01*
X114913047Y-67519217D01*
X115085015Y-67459043D01*
X115174030Y-67403110D01*
X115239998Y-67384105D01*
X115305969Y-67403110D01*
X115394985Y-67459043D01*
X115566953Y-67519217D01*
X115748000Y-67539616D01*
X115929047Y-67519217D01*
X116101015Y-67459043D01*
X116255281Y-67362111D01*
X116384111Y-67233281D01*
X116481043Y-67079015D01*
X116541217Y-66907047D01*
X116561616Y-66726000D01*
X116561616Y-66725999D01*
X123570383Y-66725999D01*
X123590782Y-66907044D01*
X123590782Y-66907046D01*
X123590783Y-66907047D01*
X123650957Y-67079015D01*
X123747889Y-67233281D01*
X123876719Y-67362111D01*
X124030985Y-67459043D01*
X124202953Y-67519217D01*
X124384000Y-67539616D01*
X124565047Y-67519217D01*
X124737015Y-67459043D01*
X124891281Y-67362111D01*
X125020111Y-67233281D01*
X125117043Y-67079015D01*
X125177217Y-66907047D01*
X125197616Y-66726000D01*
X125177217Y-66544953D01*
X125117043Y-66372985D01*
X125038505Y-66247993D01*
X125019500Y-66182023D01*
X125019500Y-65745977D01*
X125038506Y-65680005D01*
X125117043Y-65555015D01*
X125177217Y-65383047D01*
X125197616Y-65202000D01*
X125177217Y-65020953D01*
X125117043Y-64848985D01*
X125020111Y-64694719D01*
X124891281Y-64565889D01*
X124737015Y-64468957D01*
X124565047Y-64408783D01*
X124565046Y-64408782D01*
X124565044Y-64408782D01*
X124384000Y-64388383D01*
X124202955Y-64408782D01*
X124030984Y-64468957D01*
X123876717Y-64565890D01*
X123747890Y-64694717D01*
X123650957Y-64848984D01*
X123590782Y-65020955D01*
X123570383Y-65202000D01*
X123590782Y-65383044D01*
X123590782Y-65383046D01*
X123590783Y-65383047D01*
X123650957Y-65555015D01*
X123729139Y-65679441D01*
X123729494Y-65680005D01*
X123748500Y-65745977D01*
X123748500Y-66182023D01*
X123729494Y-66247995D01*
X123650957Y-66372984D01*
X123590782Y-66544955D01*
X123570383Y-66725999D01*
X116561616Y-66725999D01*
X116541217Y-66544953D01*
X116481043Y-66372985D01*
X116402505Y-66247993D01*
X116383500Y-66182023D01*
X116383500Y-64983977D01*
X116402506Y-64918005D01*
X116481043Y-64793015D01*
X116541217Y-64621047D01*
X116561616Y-64440000D01*
X116541217Y-64258953D01*
X116481043Y-64086985D01*
X116384111Y-63932719D01*
X116255281Y-63803889D01*
X116101015Y-63706957D01*
X115929047Y-63646783D01*
X115929046Y-63646782D01*
X115929044Y-63646782D01*
X115748000Y-63626383D01*
X115566955Y-63646782D01*
X115394984Y-63706957D01*
X115305972Y-63762888D01*
X115240000Y-63781894D01*
X115174028Y-63762888D01*
X115158716Y-63753267D01*
X115085015Y-63706957D01*
X114913047Y-63646783D01*
X114913046Y-63646782D01*
X114913044Y-63646782D01*
X114732000Y-63626383D01*
X114550955Y-63646782D01*
X114378984Y-63706957D01*
X114289972Y-63762888D01*
X114224000Y-63781894D01*
X114158028Y-63762888D01*
X114142716Y-63753267D01*
X114069015Y-63706957D01*
X113897047Y-63646783D01*
X113897046Y-63646782D01*
X113897044Y-63646782D01*
X113716000Y-63626383D01*
X113534955Y-63646782D01*
X113362984Y-63706957D01*
X113208717Y-63803890D01*
X113079890Y-63932717D01*
X112982957Y-64086984D01*
X112922782Y-64258955D01*
X112902383Y-64439999D01*
X112922782Y-64621044D01*
X112922782Y-64621046D01*
X112922783Y-64621047D01*
X112982957Y-64793015D01*
X113018125Y-64848985D01*
X113061494Y-64918005D01*
X113080500Y-64983977D01*
X113080500Y-66182023D01*
X113061494Y-66247995D01*
X112982957Y-66372984D01*
X112922782Y-66544955D01*
X112902383Y-66725999D01*
X100075500Y-66725999D01*
X100075500Y-62916000D01*
X105494843Y-62916000D01*
X105513435Y-63140363D01*
X105568705Y-63358618D01*
X105659138Y-63564788D01*
X105659140Y-63564791D01*
X105782278Y-63753268D01*
X105934760Y-63918906D01*
X106112424Y-64057189D01*
X106310426Y-64164342D01*
X106523365Y-64237444D01*
X106745431Y-64274500D01*
X106970569Y-64274500D01*
X107192635Y-64237444D01*
X107405574Y-64164342D01*
X107603576Y-64057189D01*
X107781240Y-63918906D01*
X107933722Y-63753268D01*
X108024190Y-63614795D01*
X108068982Y-63573561D01*
X108128000Y-63558616D01*
X108187018Y-63573561D01*
X108231809Y-63614795D01*
X108297194Y-63714875D01*
X108322278Y-63753268D01*
X108474760Y-63918906D01*
X108652424Y-64057189D01*
X108850426Y-64164342D01*
X109063365Y-64237444D01*
X109285431Y-64274500D01*
X109510569Y-64274500D01*
X109732635Y-64237444D01*
X109945574Y-64164342D01*
X110143576Y-64057189D01*
X110321240Y-63918906D01*
X110473722Y-63753268D01*
X110596860Y-63564791D01*
X110687296Y-63358616D01*
X110742564Y-63140368D01*
X110761156Y-62916000D01*
X110742564Y-62691632D01*
X110687296Y-62473384D01*
X110596860Y-62267209D01*
X110473722Y-62078732D01*
X110321240Y-61913094D01*
X110143576Y-61774811D01*
X110107067Y-61755053D01*
X110059563Y-61709474D01*
X110042086Y-61646000D01*
X110059563Y-61582526D01*
X110107067Y-61536946D01*
X110143576Y-61517189D01*
X110321240Y-61378906D01*
X110473722Y-61213268D01*
X110596860Y-61024791D01*
X110687296Y-60818616D01*
X110742564Y-60600368D01*
X110761156Y-60376000D01*
X110742564Y-60151632D01*
X110687296Y-59933384D01*
X110596860Y-59727209D01*
X110473722Y-59538732D01*
X110321240Y-59373094D01*
X110143576Y-59234811D01*
X110143575Y-59234810D01*
X110107067Y-59215053D01*
X110059562Y-59169471D01*
X110042086Y-59105997D01*
X110059564Y-59042523D01*
X110107067Y-58996946D01*
X110143576Y-58977189D01*
X110321240Y-58838906D01*
X110473722Y-58673268D01*
X110596860Y-58484791D01*
X110687296Y-58278616D01*
X110742564Y-58060368D01*
X110761156Y-57836000D01*
X110742564Y-57611632D01*
X110687296Y-57393384D01*
X110596860Y-57187209D01*
X110473722Y-56998732D01*
X110321240Y-56833094D01*
X110143576Y-56694811D01*
X110143575Y-56694810D01*
X110107067Y-56675053D01*
X110059562Y-56629471D01*
X110042086Y-56565997D01*
X110059564Y-56502523D01*
X110107067Y-56456946D01*
X110143576Y-56437189D01*
X110321240Y-56298906D01*
X110473722Y-56133268D01*
X110596860Y-55944791D01*
X110687296Y-55738616D01*
X110742564Y-55520368D01*
X110761156Y-55296000D01*
X110742564Y-55071632D01*
X110687296Y-54853384D01*
X110596860Y-54647209D01*
X110473722Y-54458732D01*
X110321240Y-54293094D01*
X110304416Y-54279999D01*
X114426383Y-54279999D01*
X114446782Y-54461044D01*
X114446782Y-54461046D01*
X114446783Y-54461047D01*
X114506957Y-54633015D01*
X114603889Y-54787281D01*
X114732719Y-54916111D01*
X114886985Y-55013043D01*
X115058953Y-55073217D01*
X115240000Y-55093616D01*
X115421047Y-55073217D01*
X115593015Y-55013043D01*
X115747281Y-54916111D01*
X115876111Y-54787281D01*
X115918683Y-54719527D01*
X115963696Y-54676972D01*
X116023677Y-54661500D01*
X117054500Y-54661500D01*
X117116500Y-54678113D01*
X117161887Y-54723500D01*
X117178500Y-54785500D01*
X117178500Y-56463634D01*
X117185011Y-56524205D01*
X117236110Y-56661203D01*
X117323738Y-56778261D01*
X117440793Y-56865887D01*
X117440796Y-56865889D01*
X117558596Y-56909826D01*
X117608129Y-56943840D01*
X117635856Y-56997151D01*
X117635263Y-57057237D01*
X117606490Y-57109990D01*
X117461279Y-57267730D01*
X117338138Y-57456211D01*
X117247705Y-57662381D01*
X117192435Y-57880636D01*
X117173843Y-58104999D01*
X117192435Y-58329363D01*
X117192435Y-58329366D01*
X117192436Y-58329368D01*
X117244457Y-58534795D01*
X117247705Y-58547618D01*
X117338138Y-58753788D01*
X117338140Y-58753791D01*
X117461278Y-58942268D01*
X117613760Y-59107906D01*
X117791424Y-59246189D01*
X117791426Y-59246190D01*
X117827931Y-59265946D01*
X117875436Y-59311527D01*
X117892913Y-59375000D01*
X117875436Y-59438473D01*
X117827931Y-59484054D01*
X117791426Y-59503809D01*
X117613760Y-59642094D01*
X117461279Y-59807730D01*
X117338138Y-59996211D01*
X117247705Y-60202381D01*
X117192435Y-60420636D01*
X117173843Y-60645000D01*
X117192435Y-60869363D01*
X117192435Y-60869366D01*
X117192436Y-60869368D01*
X117244457Y-61074795D01*
X117247705Y-61087618D01*
X117338138Y-61293788D01*
X117338140Y-61293791D01*
X117461278Y-61482268D01*
X117613760Y-61647906D01*
X117791424Y-61786189D01*
X117989426Y-61893342D01*
X118202365Y-61966444D01*
X118424431Y-62003500D01*
X118649569Y-62003500D01*
X118871635Y-61966444D01*
X119084574Y-61893342D01*
X119282576Y-61786189D01*
X119460240Y-61647906D01*
X119612722Y-61482268D01*
X119703190Y-61343795D01*
X119747982Y-61302561D01*
X119807000Y-61287616D01*
X119866018Y-61302561D01*
X119910809Y-61343795D01*
X119933747Y-61378905D01*
X120001278Y-61482268D01*
X120153760Y-61647906D01*
X120331424Y-61786189D01*
X120529426Y-61893342D01*
X120742365Y-61966444D01*
X120964431Y-62003500D01*
X121189569Y-62003500D01*
X121411635Y-61966444D01*
X121624574Y-61893342D01*
X121822576Y-61786189D01*
X122000240Y-61647906D01*
X122152722Y-61482268D01*
X122275860Y-61293791D01*
X122366296Y-61087616D01*
X122421564Y-60869368D01*
X122440156Y-60645000D01*
X122421564Y-60420632D01*
X122366296Y-60202384D01*
X122275860Y-59996209D01*
X122152722Y-59807732D01*
X122000240Y-59642094D01*
X121822576Y-59503811D01*
X121786067Y-59484053D01*
X121738563Y-59438474D01*
X121721086Y-59375000D01*
X121738563Y-59311526D01*
X121786067Y-59265946D01*
X121822576Y-59246189D01*
X122000240Y-59107906D01*
X122152722Y-58942268D01*
X122275860Y-58753791D01*
X122366296Y-58547616D01*
X122421564Y-58329368D01*
X122440156Y-58105000D01*
X122421564Y-57880632D01*
X122366296Y-57662384D01*
X122275860Y-57456209D01*
X122152722Y-57267732D01*
X122000240Y-57102094D01*
X121822576Y-56963811D01*
X121822575Y-56963810D01*
X121786067Y-56944053D01*
X121738562Y-56898471D01*
X121721086Y-56834997D01*
X121738564Y-56771523D01*
X121786067Y-56725946D01*
X121822576Y-56706189D01*
X122000240Y-56567906D01*
X122152722Y-56402268D01*
X122275860Y-56213791D01*
X122366296Y-56007616D01*
X122421564Y-55789368D01*
X122440156Y-55565000D01*
X122421564Y-55340632D01*
X122366296Y-55122384D01*
X122275860Y-54916209D01*
X122152722Y-54727732D01*
X122000240Y-54562094D01*
X121822576Y-54423811D01*
X121624574Y-54316658D01*
X121624573Y-54316657D01*
X121624572Y-54316657D01*
X121411636Y-54243556D01*
X121179435Y-54204809D01*
X121179937Y-54201795D01*
X121142378Y-54192667D01*
X121098163Y-54154255D01*
X121076510Y-54099834D01*
X121082250Y-54041546D01*
X121098498Y-53995111D01*
X121113217Y-53953047D01*
X121133616Y-53772000D01*
X121113217Y-53590953D01*
X121053043Y-53418985D01*
X120956111Y-53264719D01*
X120827281Y-53135889D01*
X120673015Y-53038957D01*
X120501047Y-52978783D01*
X120501046Y-52978782D01*
X120501044Y-52978782D01*
X120319999Y-52958383D01*
X120160988Y-52976299D01*
X120093303Y-52964799D01*
X120042111Y-52919051D01*
X120037042Y-52910984D01*
X119940111Y-52756719D01*
X119811281Y-52627889D01*
X119657015Y-52530957D01*
X119485047Y-52470783D01*
X119485046Y-52470782D01*
X119485044Y-52470782D01*
X119304000Y-52450383D01*
X119122955Y-52470782D01*
X118950984Y-52530957D01*
X118891872Y-52568100D01*
X118825993Y-52609494D01*
X118760023Y-52628500D01*
X117808019Y-52628500D01*
X117746824Y-52612348D01*
X117701571Y-52568100D01*
X117684050Y-52507282D01*
X117698825Y-52445740D01*
X117742045Y-52399507D01*
X117779281Y-52376111D01*
X117908111Y-52247281D01*
X118005043Y-52093015D01*
X118065217Y-51921047D01*
X118085616Y-51740000D01*
X118065217Y-51558953D01*
X118005043Y-51386985D01*
X117908111Y-51232719D01*
X117779281Y-51103889D01*
X117625015Y-51006957D01*
X117453047Y-50946783D01*
X117453046Y-50946782D01*
X117453044Y-50946782D01*
X117272000Y-50926383D01*
X117090955Y-50946782D01*
X116918984Y-51006957D01*
X116840867Y-51056041D01*
X116793993Y-51085494D01*
X116728023Y-51104500D01*
X115783977Y-51104500D01*
X115718006Y-51085494D01*
X115593015Y-51006957D01*
X115421047Y-50946783D01*
X115421046Y-50946782D01*
X115421044Y-50946782D01*
X115240000Y-50926383D01*
X115058955Y-50946782D01*
X114886984Y-51006957D01*
X114732717Y-51103890D01*
X114603890Y-51232717D01*
X114506957Y-51386984D01*
X114446782Y-51558955D01*
X114426383Y-51740000D01*
X114446782Y-51921044D01*
X114446782Y-51921046D01*
X114446783Y-51921047D01*
X114506957Y-52093015D01*
X114603889Y-52247281D01*
X114732719Y-52376111D01*
X114765975Y-52397007D01*
X114808530Y-52442019D01*
X114824002Y-52502000D01*
X114808530Y-52561981D01*
X114765975Y-52606992D01*
X114743236Y-52621280D01*
X114732717Y-52627890D01*
X114603890Y-52756717D01*
X114506957Y-52910984D01*
X114446782Y-53082955D01*
X114426383Y-53263999D01*
X114446782Y-53445044D01*
X114506957Y-53617016D01*
X114537065Y-53664932D01*
X114562887Y-53706027D01*
X114581894Y-53771998D01*
X114562888Y-53837971D01*
X114506957Y-53926984D01*
X114446782Y-54098955D01*
X114426383Y-54279999D01*
X110304416Y-54279999D01*
X110143576Y-54154811D01*
X109945574Y-54047658D01*
X109945573Y-54047657D01*
X109945572Y-54047657D01*
X109732636Y-53974556D01*
X109510569Y-53937500D01*
X109285431Y-53937500D01*
X109063363Y-53974556D01*
X108850427Y-54047657D01*
X108652424Y-54154811D01*
X108474759Y-54293094D01*
X108411548Y-54361759D01*
X108358924Y-54395612D01*
X108296470Y-54399460D01*
X108240089Y-54372322D01*
X108204138Y-54321110D01*
X108161389Y-54206500D01*
X108158889Y-54199796D01*
X108124797Y-54154255D01*
X108071261Y-54082738D01*
X107954203Y-53995110D01*
X107817205Y-53944011D01*
X107786919Y-53940755D01*
X107756638Y-53937500D01*
X105959362Y-53937500D01*
X105932445Y-53940393D01*
X105898794Y-53944011D01*
X105761796Y-53995110D01*
X105644738Y-54082738D01*
X105557110Y-54199796D01*
X105506011Y-54336794D01*
X105502393Y-54370445D01*
X105499689Y-54395612D01*
X105499500Y-54397366D01*
X105499500Y-56194634D01*
X105506011Y-56255205D01*
X105557110Y-56392203D01*
X105644738Y-56509261D01*
X105761793Y-56596887D01*
X105761796Y-56596889D01*
X105879596Y-56640826D01*
X105929129Y-56674840D01*
X105956856Y-56728151D01*
X105956263Y-56788237D01*
X105927490Y-56840990D01*
X105782279Y-56998730D01*
X105659138Y-57187211D01*
X105588000Y-57349393D01*
X105568704Y-57393384D01*
X105555016Y-57447438D01*
X105513435Y-57611636D01*
X105494843Y-57835999D01*
X105513435Y-58060363D01*
X105513435Y-58060366D01*
X105513436Y-58060368D01*
X105524738Y-58105000D01*
X105568705Y-58278618D01*
X105659138Y-58484788D01*
X105659140Y-58484791D01*
X105782278Y-58673268D01*
X105934760Y-58838906D01*
X106112424Y-58977189D01*
X106112426Y-58977190D01*
X106148931Y-58996946D01*
X106196436Y-59042527D01*
X106213913Y-59106000D01*
X106196436Y-59169473D01*
X106148931Y-59215054D01*
X106112426Y-59234809D01*
X105934760Y-59373094D01*
X105782279Y-59538730D01*
X105659138Y-59727211D01*
X105588000Y-59889393D01*
X105568704Y-59933384D01*
X105555016Y-59987438D01*
X105513435Y-60151636D01*
X105494843Y-60376000D01*
X105513435Y-60600363D01*
X105513435Y-60600366D01*
X105513436Y-60600368D01*
X105524738Y-60645000D01*
X105568705Y-60818618D01*
X105659138Y-61024788D01*
X105659140Y-61024791D01*
X105782278Y-61213268D01*
X105934760Y-61378906D01*
X106112424Y-61517189D01*
X106112426Y-61517190D01*
X106148931Y-61536946D01*
X106196436Y-61582527D01*
X106213913Y-61646000D01*
X106196436Y-61709473D01*
X106148931Y-61755054D01*
X106112426Y-61774809D01*
X105934760Y-61913094D01*
X105782279Y-62078730D01*
X105659138Y-62267211D01*
X105568705Y-62473381D01*
X105513435Y-62691636D01*
X105494843Y-62916000D01*
X100075500Y-62916000D01*
X100075500Y-50098634D01*
X117437500Y-50098634D01*
X117444011Y-50159205D01*
X117495110Y-50296203D01*
X117582738Y-50413261D01*
X117699796Y-50500889D01*
X117836794Y-50551988D01*
X117836797Y-50551988D01*
X117836799Y-50551989D01*
X117897362Y-50558500D01*
X119694634Y-50558500D01*
X119694638Y-50558500D01*
X119755201Y-50551989D01*
X119755203Y-50551988D01*
X119755205Y-50551988D01*
X119837097Y-50521443D01*
X119892204Y-50500889D01*
X120009261Y-50413261D01*
X120096889Y-50296204D01*
X120142137Y-50174889D01*
X120178089Y-50123677D01*
X120234471Y-50096539D01*
X120296925Y-50100387D01*
X120349548Y-50134241D01*
X120386969Y-50174890D01*
X120412760Y-50202906D01*
X120590424Y-50341189D01*
X120788426Y-50448342D01*
X121001365Y-50521444D01*
X121223431Y-50558500D01*
X121448569Y-50558500D01*
X121670635Y-50521444D01*
X121883574Y-50448342D01*
X122081576Y-50341189D01*
X122259240Y-50202906D01*
X122411722Y-50037268D01*
X122502190Y-49898795D01*
X122546982Y-49857561D01*
X122606000Y-49842616D01*
X122665018Y-49857561D01*
X122709809Y-49898795D01*
X122800278Y-50037268D01*
X122952760Y-50202906D01*
X123130424Y-50341189D01*
X123328426Y-50448342D01*
X123541365Y-50521444D01*
X123763431Y-50558500D01*
X123988569Y-50558500D01*
X124210635Y-50521444D01*
X124423574Y-50448342D01*
X124621576Y-50341189D01*
X124799240Y-50202906D01*
X124951722Y-50037268D01*
X125045748Y-49893349D01*
X125089663Y-49852595D01*
X125147562Y-49837188D01*
X125205926Y-49850726D01*
X125251131Y-49890048D01*
X125377892Y-50071080D01*
X125544918Y-50238106D01*
X125738423Y-50373600D01*
X125952507Y-50473430D01*
X126165999Y-50530635D01*
X126166000Y-50530636D01*
X126166000Y-50530635D01*
X126666000Y-50530635D01*
X126879492Y-50473430D01*
X127093576Y-50373600D01*
X127287081Y-50238106D01*
X127454106Y-50071081D01*
X127580868Y-49890048D01*
X127626072Y-49850726D01*
X127684436Y-49837188D01*
X127742335Y-49852595D01*
X127786252Y-49893351D01*
X127880276Y-50037267D01*
X127959824Y-50123677D01*
X128032760Y-50202906D01*
X128210424Y-50341189D01*
X128408426Y-50448342D01*
X128621365Y-50521444D01*
X128843431Y-50558500D01*
X129068569Y-50558500D01*
X129290635Y-50521444D01*
X129503574Y-50448342D01*
X129701576Y-50341189D01*
X129879240Y-50202906D01*
X130031722Y-50037268D01*
X130122190Y-49898795D01*
X130166982Y-49857561D01*
X130226000Y-49842616D01*
X130285018Y-49857561D01*
X130329809Y-49898795D01*
X130420278Y-50037268D01*
X130572760Y-50202906D01*
X130750424Y-50341189D01*
X130948426Y-50448342D01*
X131161365Y-50521444D01*
X131383431Y-50558500D01*
X131608569Y-50558500D01*
X131830635Y-50521444D01*
X132043574Y-50448342D01*
X132241576Y-50341189D01*
X132419240Y-50202906D01*
X132571722Y-50037268D01*
X132662190Y-49898795D01*
X132706982Y-49857561D01*
X132766000Y-49842616D01*
X132825018Y-49857561D01*
X132869809Y-49898795D01*
X132960278Y-50037268D01*
X133112760Y-50202906D01*
X133290424Y-50341189D01*
X133488426Y-50448342D01*
X133701365Y-50521444D01*
X133923431Y-50558500D01*
X134148569Y-50558500D01*
X134370635Y-50521444D01*
X134583574Y-50448342D01*
X134781576Y-50341189D01*
X134959240Y-50202906D01*
X135111722Y-50037268D01*
X135202190Y-49898795D01*
X135246982Y-49857561D01*
X135306000Y-49842616D01*
X135365018Y-49857561D01*
X135409809Y-49898795D01*
X135500278Y-50037268D01*
X135652760Y-50202906D01*
X135830424Y-50341189D01*
X136028426Y-50448342D01*
X136241365Y-50521444D01*
X136463431Y-50558500D01*
X136688569Y-50558500D01*
X136910635Y-50521444D01*
X137123574Y-50448342D01*
X137321576Y-50341189D01*
X137499240Y-50202906D01*
X137651722Y-50037268D01*
X137742190Y-49898795D01*
X137786982Y-49857561D01*
X137846000Y-49842616D01*
X137905018Y-49857561D01*
X137949809Y-49898795D01*
X138040278Y-50037268D01*
X138192760Y-50202906D01*
X138370424Y-50341189D01*
X138568426Y-50448342D01*
X138781365Y-50521444D01*
X139003431Y-50558500D01*
X139228569Y-50558500D01*
X139450635Y-50521444D01*
X139663574Y-50448342D01*
X139861576Y-50341189D01*
X140039240Y-50202906D01*
X140191722Y-50037268D01*
X140282190Y-49898795D01*
X140326982Y-49857561D01*
X140386000Y-49842616D01*
X140445018Y-49857561D01*
X140489809Y-49898795D01*
X140580278Y-50037268D01*
X140732760Y-50202906D01*
X140910424Y-50341189D01*
X141108426Y-50448342D01*
X141321365Y-50521444D01*
X141543431Y-50558500D01*
X141768569Y-50558500D01*
X141990635Y-50521444D01*
X142203574Y-50448342D01*
X142401576Y-50341189D01*
X142579240Y-50202906D01*
X142675230Y-50098634D01*
X144361500Y-50098634D01*
X144368011Y-50159205D01*
X144419110Y-50296203D01*
X144506738Y-50413261D01*
X144623796Y-50500889D01*
X144760794Y-50551988D01*
X144760797Y-50551988D01*
X144760799Y-50551989D01*
X144821362Y-50558500D01*
X146618634Y-50558500D01*
X146618638Y-50558500D01*
X146679201Y-50551989D01*
X146679203Y-50551988D01*
X146679205Y-50551988D01*
X146761097Y-50521443D01*
X146816204Y-50500889D01*
X146933261Y-50413261D01*
X147020889Y-50296204D01*
X147066137Y-50174889D01*
X147102089Y-50123677D01*
X147158471Y-50096539D01*
X147220925Y-50100387D01*
X147273548Y-50134241D01*
X147310969Y-50174890D01*
X147336760Y-50202906D01*
X147514424Y-50341189D01*
X147712426Y-50448342D01*
X147925365Y-50521444D01*
X148147431Y-50558500D01*
X148372569Y-50558500D01*
X148594635Y-50521444D01*
X148807574Y-50448342D01*
X149005576Y-50341189D01*
X149183240Y-50202906D01*
X149335722Y-50037268D01*
X149426190Y-49898795D01*
X149470982Y-49857561D01*
X149530000Y-49842616D01*
X149589018Y-49857561D01*
X149633809Y-49898795D01*
X149724278Y-50037268D01*
X149876760Y-50202906D01*
X150054424Y-50341189D01*
X150252426Y-50448342D01*
X150465365Y-50521444D01*
X150687431Y-50558500D01*
X150912569Y-50558500D01*
X151134635Y-50521444D01*
X151347574Y-50448342D01*
X151545576Y-50341189D01*
X151723240Y-50202906D01*
X151875722Y-50037268D01*
X151966190Y-49898795D01*
X152010982Y-49857561D01*
X152070000Y-49842616D01*
X152129018Y-49857561D01*
X152173809Y-49898795D01*
X152264278Y-50037268D01*
X152416760Y-50202906D01*
X152594424Y-50341189D01*
X152792426Y-50448342D01*
X153005365Y-50521444D01*
X153227431Y-50558500D01*
X153452569Y-50558500D01*
X153674635Y-50521444D01*
X153887574Y-50448342D01*
X154085576Y-50341189D01*
X154263240Y-50202906D01*
X154415722Y-50037268D01*
X154506190Y-49898795D01*
X154550982Y-49857561D01*
X154610000Y-49842616D01*
X154669018Y-49857561D01*
X154713809Y-49898795D01*
X154804278Y-50037268D01*
X154956760Y-50202906D01*
X155134424Y-50341189D01*
X155332426Y-50448342D01*
X155545365Y-50521444D01*
X155767431Y-50558500D01*
X155992569Y-50558500D01*
X156214635Y-50521444D01*
X156427574Y-50448342D01*
X156625576Y-50341189D01*
X156803240Y-50202906D01*
X156955722Y-50037268D01*
X157046190Y-49898795D01*
X157090982Y-49857561D01*
X157150000Y-49842616D01*
X157209018Y-49857561D01*
X157253809Y-49898795D01*
X157344278Y-50037268D01*
X157496760Y-50202906D01*
X157674424Y-50341189D01*
X157872426Y-50448342D01*
X158085365Y-50521444D01*
X158307431Y-50558500D01*
X158532569Y-50558500D01*
X158754635Y-50521444D01*
X158967574Y-50448342D01*
X159165576Y-50341189D01*
X159343240Y-50202906D01*
X159495722Y-50037268D01*
X159586190Y-49898795D01*
X159630982Y-49857561D01*
X159690000Y-49842616D01*
X159749018Y-49857561D01*
X159793809Y-49898795D01*
X159884278Y-50037268D01*
X160036760Y-50202906D01*
X160214424Y-50341189D01*
X160412426Y-50448342D01*
X160625365Y-50521444D01*
X160847431Y-50558500D01*
X161072569Y-50558500D01*
X161294635Y-50521444D01*
X161507574Y-50448342D01*
X161705576Y-50341189D01*
X161883240Y-50202906D01*
X162035722Y-50037268D01*
X162126190Y-49898795D01*
X162170982Y-49857561D01*
X162230000Y-49842616D01*
X162289018Y-49857561D01*
X162333809Y-49898795D01*
X162424278Y-50037268D01*
X162576760Y-50202906D01*
X162754424Y-50341189D01*
X162952426Y-50448342D01*
X163165365Y-50521444D01*
X163387431Y-50558500D01*
X163612569Y-50558500D01*
X163834635Y-50521444D01*
X164047574Y-50448342D01*
X164245576Y-50341189D01*
X164423240Y-50202906D01*
X164575722Y-50037268D01*
X164698860Y-49848791D01*
X164789296Y-49642616D01*
X164844564Y-49424368D01*
X164863156Y-49200000D01*
X164844564Y-48975632D01*
X164789296Y-48757384D01*
X164698860Y-48551209D01*
X164575722Y-48362732D01*
X164423240Y-48197094D01*
X164245576Y-48058811D01*
X164047574Y-47951658D01*
X164047573Y-47951657D01*
X164047572Y-47951657D01*
X163834636Y-47878556D01*
X163612569Y-47841500D01*
X163387431Y-47841500D01*
X163165363Y-47878556D01*
X162952427Y-47951657D01*
X162754424Y-48058811D01*
X162576760Y-48197094D01*
X162424279Y-48362730D01*
X162333809Y-48501205D01*
X162289017Y-48542438D01*
X162230000Y-48557383D01*
X162170983Y-48542438D01*
X162126191Y-48501205D01*
X162035723Y-48362734D01*
X162035722Y-48362732D01*
X161883240Y-48197094D01*
X161705576Y-48058811D01*
X161507574Y-47951658D01*
X161507573Y-47951657D01*
X161507572Y-47951657D01*
X161294636Y-47878556D01*
X161072569Y-47841500D01*
X160847431Y-47841500D01*
X160625363Y-47878556D01*
X160412427Y-47951657D01*
X160214424Y-48058811D01*
X160036760Y-48197094D01*
X159884279Y-48362730D01*
X159793809Y-48501205D01*
X159749017Y-48542438D01*
X159690000Y-48557383D01*
X159630983Y-48542438D01*
X159586191Y-48501205D01*
X159495723Y-48362734D01*
X159495722Y-48362732D01*
X159343240Y-48197094D01*
X159165576Y-48058811D01*
X158967574Y-47951658D01*
X158967573Y-47951657D01*
X158967572Y-47951657D01*
X158754636Y-47878556D01*
X158532569Y-47841500D01*
X158307431Y-47841500D01*
X158085363Y-47878556D01*
X157872427Y-47951657D01*
X157674424Y-48058811D01*
X157496760Y-48197094D01*
X157344279Y-48362730D01*
X157253809Y-48501205D01*
X157209017Y-48542438D01*
X157150000Y-48557383D01*
X157090983Y-48542438D01*
X157046191Y-48501205D01*
X156955723Y-48362734D01*
X156955722Y-48362732D01*
X156803240Y-48197094D01*
X156625576Y-48058811D01*
X156427574Y-47951658D01*
X156427573Y-47951657D01*
X156427572Y-47951657D01*
X156214636Y-47878556D01*
X155992569Y-47841500D01*
X155767431Y-47841500D01*
X155545363Y-47878556D01*
X155332427Y-47951657D01*
X155134424Y-48058811D01*
X154956760Y-48197094D01*
X154804279Y-48362730D01*
X154713809Y-48501205D01*
X154669017Y-48542438D01*
X154610000Y-48557383D01*
X154550983Y-48542438D01*
X154506191Y-48501205D01*
X154415723Y-48362734D01*
X154415722Y-48362732D01*
X154263240Y-48197094D01*
X154085576Y-48058811D01*
X153887574Y-47951658D01*
X153887573Y-47951657D01*
X153887572Y-47951657D01*
X153674636Y-47878556D01*
X153452569Y-47841500D01*
X153227431Y-47841500D01*
X153005363Y-47878556D01*
X152792427Y-47951657D01*
X152594424Y-48058811D01*
X152416760Y-48197094D01*
X152264279Y-48362730D01*
X152173809Y-48501205D01*
X152129017Y-48542438D01*
X152070000Y-48557383D01*
X152010983Y-48542438D01*
X151966191Y-48501205D01*
X151875723Y-48362734D01*
X151875722Y-48362732D01*
X151723240Y-48197094D01*
X151545576Y-48058811D01*
X151347574Y-47951658D01*
X151347573Y-47951657D01*
X151347572Y-47951657D01*
X151134636Y-47878556D01*
X150912569Y-47841500D01*
X150687431Y-47841500D01*
X150465363Y-47878556D01*
X150252427Y-47951657D01*
X150054424Y-48058811D01*
X149876760Y-48197094D01*
X149724279Y-48362730D01*
X149633809Y-48501205D01*
X149589017Y-48542438D01*
X149530000Y-48557383D01*
X149470983Y-48542438D01*
X149426191Y-48501205D01*
X149335723Y-48362734D01*
X149335722Y-48362732D01*
X149183240Y-48197094D01*
X149005576Y-48058811D01*
X148807574Y-47951658D01*
X148807573Y-47951657D01*
X148807572Y-47951657D01*
X148594636Y-47878556D01*
X148372569Y-47841500D01*
X148147431Y-47841500D01*
X147925363Y-47878556D01*
X147712427Y-47951657D01*
X147514424Y-48058811D01*
X147336759Y-48197094D01*
X147273548Y-48265759D01*
X147220924Y-48299612D01*
X147158470Y-48303460D01*
X147102089Y-48276322D01*
X147066138Y-48225110D01*
X147041427Y-48158861D01*
X147020889Y-48103796D01*
X146962951Y-48026400D01*
X146933261Y-47986738D01*
X146816203Y-47899110D01*
X146679205Y-47848011D01*
X146648919Y-47844755D01*
X146618638Y-47841500D01*
X144821362Y-47841500D01*
X144794445Y-47844393D01*
X144760794Y-47848011D01*
X144623796Y-47899110D01*
X144506738Y-47986738D01*
X144419110Y-48103796D01*
X144368011Y-48240794D01*
X144364393Y-48274445D01*
X144361689Y-48299612D01*
X144361500Y-48301366D01*
X144361500Y-50098634D01*
X142675230Y-50098634D01*
X142731722Y-50037268D01*
X142854860Y-49848791D01*
X142945296Y-49642616D01*
X143000564Y-49424368D01*
X143019156Y-49200000D01*
X143000564Y-48975632D01*
X142945296Y-48757384D01*
X142854860Y-48551209D01*
X142731722Y-48362732D01*
X142579240Y-48197094D01*
X142401576Y-48058811D01*
X142203574Y-47951658D01*
X142203573Y-47951657D01*
X142203572Y-47951657D01*
X141990636Y-47878556D01*
X141768569Y-47841500D01*
X141543431Y-47841500D01*
X141321363Y-47878556D01*
X141108427Y-47951657D01*
X140910424Y-48058811D01*
X140732760Y-48197094D01*
X140580279Y-48362730D01*
X140489809Y-48501205D01*
X140445017Y-48542438D01*
X140386000Y-48557383D01*
X140326983Y-48542438D01*
X140282191Y-48501205D01*
X140191723Y-48362734D01*
X140191722Y-48362732D01*
X140039240Y-48197094D01*
X139861576Y-48058811D01*
X139663574Y-47951658D01*
X139663573Y-47951657D01*
X139663572Y-47951657D01*
X139450636Y-47878556D01*
X139228569Y-47841500D01*
X139003431Y-47841500D01*
X138781363Y-47878556D01*
X138568427Y-47951657D01*
X138370424Y-48058811D01*
X138192760Y-48197094D01*
X138040279Y-48362730D01*
X137949809Y-48501205D01*
X137905017Y-48542438D01*
X137846000Y-48557383D01*
X137786983Y-48542438D01*
X137742191Y-48501205D01*
X137651723Y-48362734D01*
X137651722Y-48362732D01*
X137499240Y-48197094D01*
X137321576Y-48058811D01*
X137123574Y-47951658D01*
X137123573Y-47951657D01*
X137123572Y-47951657D01*
X136910636Y-47878556D01*
X136688569Y-47841500D01*
X136463431Y-47841500D01*
X136241363Y-47878556D01*
X136028427Y-47951657D01*
X135830424Y-48058811D01*
X135652760Y-48197094D01*
X135500279Y-48362730D01*
X135409809Y-48501205D01*
X135365017Y-48542438D01*
X135306000Y-48557383D01*
X135246983Y-48542438D01*
X135202191Y-48501205D01*
X135111723Y-48362734D01*
X135111722Y-48362732D01*
X134959240Y-48197094D01*
X134781576Y-48058811D01*
X134583574Y-47951658D01*
X134583573Y-47951657D01*
X134583572Y-47951657D01*
X134370636Y-47878556D01*
X134148569Y-47841500D01*
X133923431Y-47841500D01*
X133701363Y-47878556D01*
X133488427Y-47951657D01*
X133290424Y-48058811D01*
X133112760Y-48197094D01*
X132960279Y-48362730D01*
X132869809Y-48501205D01*
X132825017Y-48542438D01*
X132766000Y-48557383D01*
X132706983Y-48542438D01*
X132662191Y-48501205D01*
X132571723Y-48362734D01*
X132571722Y-48362732D01*
X132419240Y-48197094D01*
X132241576Y-48058811D01*
X132043574Y-47951658D01*
X132043573Y-47951657D01*
X132043572Y-47951657D01*
X131830636Y-47878556D01*
X131608569Y-47841500D01*
X131383431Y-47841500D01*
X131161363Y-47878556D01*
X130948427Y-47951657D01*
X130750424Y-48058811D01*
X130572760Y-48197094D01*
X130420279Y-48362730D01*
X130329809Y-48501205D01*
X130285017Y-48542438D01*
X130226000Y-48557383D01*
X130166983Y-48542438D01*
X130122191Y-48501205D01*
X130031723Y-48362734D01*
X130031722Y-48362732D01*
X129879240Y-48197094D01*
X129701576Y-48058811D01*
X129503574Y-47951658D01*
X129503573Y-47951657D01*
X129503572Y-47951657D01*
X129290636Y-47878556D01*
X129068569Y-47841500D01*
X128843431Y-47841500D01*
X128621363Y-47878556D01*
X128408427Y-47951657D01*
X128210424Y-48058811D01*
X128032760Y-48197094D01*
X127880275Y-48362734D01*
X127786250Y-48506650D01*
X127742334Y-48547405D01*
X127684435Y-48562812D01*
X127626071Y-48549274D01*
X127580867Y-48509951D01*
X127454109Y-48328921D01*
X127287081Y-48161893D01*
X127093576Y-48026399D01*
X126879492Y-47926569D01*
X126666000Y-47869364D01*
X126666000Y-50530635D01*
X126166000Y-50530635D01*
X126166000Y-47869364D01*
X126165999Y-47869364D01*
X125952507Y-47926569D01*
X125738421Y-48026400D01*
X125544921Y-48161890D01*
X125377893Y-48328918D01*
X125251132Y-48509952D01*
X125205928Y-48549274D01*
X125147564Y-48562812D01*
X125089665Y-48547405D01*
X125045748Y-48506649D01*
X124951723Y-48362732D01*
X124862451Y-48265759D01*
X124799240Y-48197094D01*
X124621576Y-48058811D01*
X124423574Y-47951658D01*
X124423573Y-47951657D01*
X124423572Y-47951657D01*
X124210636Y-47878556D01*
X123988569Y-47841500D01*
X123763431Y-47841500D01*
X123541363Y-47878556D01*
X123328427Y-47951657D01*
X123130424Y-48058811D01*
X122952760Y-48197094D01*
X122800279Y-48362730D01*
X122709809Y-48501205D01*
X122665017Y-48542438D01*
X122606000Y-48557383D01*
X122546983Y-48542438D01*
X122502191Y-48501205D01*
X122411723Y-48362734D01*
X122411722Y-48362732D01*
X122259240Y-48197094D01*
X122081576Y-48058811D01*
X121883574Y-47951658D01*
X121883573Y-47951657D01*
X121883572Y-47951657D01*
X121670636Y-47878556D01*
X121448569Y-47841500D01*
X121223431Y-47841500D01*
X121001363Y-47878556D01*
X120788427Y-47951657D01*
X120590424Y-48058811D01*
X120412759Y-48197094D01*
X120349548Y-48265759D01*
X120296924Y-48299612D01*
X120234470Y-48303460D01*
X120178089Y-48276322D01*
X120142138Y-48225110D01*
X120117427Y-48158861D01*
X120096889Y-48103796D01*
X120038951Y-48026400D01*
X120009261Y-47986738D01*
X119892203Y-47899110D01*
X119755205Y-47848011D01*
X119724919Y-47844755D01*
X119694638Y-47841500D01*
X117897362Y-47841500D01*
X117870445Y-47844393D01*
X117836794Y-47848011D01*
X117699796Y-47899110D01*
X117582738Y-47986738D01*
X117495110Y-48103796D01*
X117444011Y-48240794D01*
X117440393Y-48274445D01*
X117437689Y-48299612D01*
X117437500Y-48301366D01*
X117437500Y-50098634D01*
X100075500Y-50098634D01*
X100075500Y-47428093D01*
X100076097Y-47415939D01*
X100087494Y-47300222D01*
X100092234Y-47276389D01*
X100124216Y-47170959D01*
X100133508Y-47148526D01*
X100185442Y-47051365D01*
X100198938Y-47031166D01*
X100268827Y-46946006D01*
X100286006Y-46928827D01*
X100371166Y-46858938D01*
X100391365Y-46845442D01*
X100488526Y-46793508D01*
X100510959Y-46784216D01*
X100616389Y-46752234D01*
X100640220Y-46747494D01*
X100755938Y-46736097D01*
X100768093Y-46735500D01*
X100786531Y-46735500D01*
X163417365Y-46735500D01*
X163464818Y-46744939D01*
G37*
%TD.AperFunction*%
%TD*%
%TA.AperFunction,Conductor*%
%TO.N,VCC*%
G36*
X139308000Y-63186613D02*
G01*
X139353387Y-63232000D01*
X139370000Y-63294000D01*
X139370000Y-79556000D01*
X139353387Y-79618000D01*
X139308000Y-79663387D01*
X139246000Y-79680000D01*
X133398000Y-79680000D01*
X133336000Y-79663387D01*
X133290613Y-79618000D01*
X133274000Y-79556000D01*
X133274000Y-75286754D01*
X133283439Y-75239301D01*
X133310319Y-75199073D01*
X133310319Y-75199072D01*
X133402111Y-75107281D01*
X133499043Y-74953015D01*
X133559217Y-74781047D01*
X133579616Y-74600000D01*
X133559217Y-74418953D01*
X133499043Y-74246985D01*
X133402111Y-74092719D01*
X133310319Y-74000927D01*
X133283439Y-73960699D01*
X133274000Y-73913246D01*
X133274000Y-70206754D01*
X133283439Y-70159301D01*
X133310319Y-70119073D01*
X133310318Y-70119073D01*
X133402111Y-70027281D01*
X133499043Y-69873015D01*
X133559217Y-69701047D01*
X133579616Y-69520000D01*
X133559217Y-69338953D01*
X133499043Y-69166985D01*
X133402111Y-69012719D01*
X133310318Y-68920926D01*
X133283439Y-68880699D01*
X133274000Y-68833246D01*
X133274000Y-63294000D01*
X133290613Y-63232000D01*
X133336000Y-63186613D01*
X133398000Y-63170000D01*
X139246000Y-63170000D01*
X139308000Y-63186613D01*
G37*
%TD.AperFunction*%
%TD*%
M02*
